<svg width="20" height="20" viewBox="0 0 20 20" fill="none" xmlns="http://www.w3.org/2000/svg">
<g clip-path="url(#clip0_136_558)">
<path d="M10.86 0.54838L13.1946 5.53944C13.3359 5.83099 13.6028 6.03024 13.9085 6.07317L19.1996 6.88477C19.5423 6.91859 19.8351 7.16079 19.9496 7.50442C20.0642 7.84899 19.9798 8.23284 19.7335 8.48782L15.847 12.4908C15.6386 12.7001 15.543 13.0054 15.5912 13.3052L16.5015 18.8966C16.6289 19.678 15.8005 20.2629 15.1081 19.8791L10.4613 17.3054C10.1737 17.1491 9.83176 17.1491 9.54415 17.3054L4.89732 19.8791C4.20494 20.2629 3.3765 19.678 3.50395 18.8966L4.41334 13.3052C4.46157 13.0054 4.36598 12.7001 4.15757 12.4908L0.266911 8.48782C0.0206148 8.23284 -0.0646366 7.84896 0.0507582 7.50442C0.165293 7.16076 0.4581 6.91858 0.800825 6.88477L6.09184 6.07317C6.39755 6.03022 6.66452 5.83097 6.80575 5.53944L9.1446 0.54838C9.31252 0.211135 9.64321 0 10.0023 0C10.3614 0 10.692 0.211121 10.86 0.54838Z" fill="black"/>
</g>
<defs>
<clipPath id="clip0_136_558">
<rect width="20" height="20" fill="white"/>
</clipPath>
</defs>
</svg>
