<svg width="679" height="649" viewBox="0 0 679 649" fill="none" xmlns="http://www.w3.org/2000/svg">
<path d="M48.9046 133.072C50.2481 133.986 51.5915 134.877 52.9351 135.768" stroke="#4E49FC" stroke-miterlimit="10"/>
<path d="M1.09991 85.8704C176.914 241.083 354.99 275.461 560.114 238.336C582.209 234.338 607.958 225.883 612.961 205.709C616.369 191.93 607.784 177.444 595.421 169.059C583.03 160.673 567.553 157.269 552.377 154.915C480.475 143.811 405.062 152.676 338.534 180.071C318.479 188.321 298.227 199.129 287.654 216.813C272.353 242.381 282.479 275.992 304.298 297.218C326.092 318.444 357.069 329.503 387.72 337.18C418.374 344.857 450.071 349.906 478.956 362.04C504.16 372.618 529.164 393.297 526.378 418.614C523.865 441.554 499.457 457.182 475.597 464.379C403.47 486.132 318.355 460.976 252.374 495.477C204.131 520.701 178.803 577.527 192.785 626.651" stroke="#FFCB32" stroke-miterlimit="10" stroke-dasharray="4.01 2.01"/>
<path d="M193.432 628.845C193.88 630.307 194.377 631.77 194.901 633.209" stroke="#4E49FC" stroke-miterlimit="10"/>
</svg>
