<svg width="42" height="47" viewBox="0 0 42 47" fill="none" xmlns="http://www.w3.org/2000/svg">
<path d="M41.8241 6.88299C38.424 3.62164 34.0985 1.3921 29.3866 0.472173C24.6747 -0.44775 19.7847 -0.0173773 15.326 1.70966C10.8674 3.43671 7.03709 6.38405 4.31249 10.1845C1.5879 13.9848 0.0894566 18.4703 0.00388023 23.0818C-0.0816962 27.6933 1.24938 32.227 3.83124 36.118C6.41311 40.009 10.1316 43.0852 14.5234 44.9634C18.9152 46.8415 23.7861 47.4385 28.5291 46.68C33.2721 45.9216 37.6776 43.8411 41.1966 40.6979L37.1518 36.5316C34.4853 38.9133 31.147 40.4898 27.553 41.0645C23.959 41.6393 20.2681 41.1869 16.9403 39.7637C13.6124 38.3406 10.7948 36.0096 8.83838 33.0612C6.88198 30.1128 5.87337 26.6774 5.93821 23.1831C6.00306 19.6887 7.1385 16.29 9.20304 13.4102C11.2676 10.5305 14.17 8.29716 17.5485 6.98851C20.927 5.67985 24.6324 5.35374 28.2028 6.0508C31.7732 6.74787 35.0508 8.43729 37.6272 10.9086L41.8241 6.88299Z" fill="#FFCB32"/>
</svg>
