<svg width="17" height="17" viewBox="0 0 17 17" fill="none" xmlns="http://www.w3.org/2000/svg">
<g clip-path="url(#clip0_205_561)">
<path d="M5.67 8.5C5.67 7.74944 5.96816 7.02962 6.49889 6.49889C7.02962 5.96816 7.74944 5.67 8.5 5.67C9.25056 5.67 9.97038 5.96816 10.5011 6.49889C11.0318 7.02962 11.33 7.74944 11.33 8.5C11.33 9.25056 11.0318 9.97038 10.5011 10.5011C9.97038 11.0318 9.25056 11.33 8.5 11.33C7.74944 11.33 7.02962 11.0318 6.49889 10.5011C5.96816 9.97038 5.67 9.25056 5.67 8.5ZM4.14 8.5C4.14 9.65634 4.59936 10.7653 5.41701 11.583C6.23467 12.4006 7.34366 12.86 8.5 12.86C9.65634 12.86 10.7653 12.4006 11.583 11.583C12.4006 10.7653 12.86 9.65634 12.86 8.5C12.86 7.34366 12.4006 6.23467 11.583 5.41701C10.7653 4.59936 9.65634 4.14 8.5 4.14C7.34366 4.14 6.23467 4.59936 5.41701 5.41701C4.59936 6.23467 4.14 7.34366 4.14 8.5ZM12.02 3.96C12.02 4.16174 12.0798 4.35894 12.1919 4.52668C12.304 4.69442 12.4633 4.82516 12.6497 4.90236C12.836 4.97956 13.0411 4.99976 13.239 4.9604C13.4369 4.92104 13.6186 4.8239 13.7612 4.68125C13.9039 4.5386 14.001 4.35685 14.0404 4.15899C14.0798 3.96113 14.0596 3.75604 13.9824 3.56966C13.9052 3.38328 13.7744 3.22398 13.6067 3.1119C13.4389 2.99982 13.2417 2.94 13.04 2.94C12.7695 2.94 12.51 3.04746 12.3188 3.23875C12.1275 3.43004 12.02 3.68948 12.02 3.96ZM5.07 15.42C4.53001 15.4115 3.99552 15.31 3.49 15.12C3.09 14.97 2.81 14.79 2.51 14.49C2.21 14.19 2.03 13.91 1.87 13.51C1.6845 13.007 1.58642 12.476 1.58 11.94C1.54 11.04 1.53 10.77 1.53 8.5C1.53 6.23 1.54 5.96 1.58 5.07C1.62 4.24 1.76 3.79 1.88 3.49C2.03 3.09 2.21 2.81 2.51 2.51C2.81 2.21 3.09 2.03 3.49 1.87C3.79 1.76 4.24 1.62 5.07 1.58C5.97 1.54 6.23 1.53 8.5 1.53C10.77 1.53 11.04 1.54 11.94 1.58C12.76 1.62 13.21 1.76 13.51 1.88C13.91 2.03 14.19 2.21 14.49 2.51C14.79 2.81 14.97 3.09 15.13 3.49C15.24 3.79 15.38 4.24 15.42 5.07C15.46 5.97 15.47 6.23 15.47 8.5C15.47 10.77 15.47 11.04 15.42 11.94C15.4102 12.4766 15.3087 13.0076 15.12 13.51C14.97 13.91 14.79 14.19 14.49 14.49C14.19 14.79 13.91 14.97 13.51 15.13C13.21 15.24 12.76 15.38 11.94 15.42C11.04 15.46 10.77 15.47 8.5 15.47C6.23 15.47 5.96 15.46 5.07 15.42ZM5 0.05C4.1 0.09 3.47 0.24 2.93 0.45C2.37 0.66 1.9 0.95 1.43 1.43C0.95 1.9 0.66 2.37 0.45 2.93C0.200036 3.59226 0.0647659 4.29229 0.05 5C0.01 5.9 0 6.2 0 8.5C0 10.8 0.01 11.1 0.05 12C0.09 12.91 0.24 13.53 0.45 14.07C0.66 14.63 0.95 15.1 1.43 15.57C1.9 16.05 2.37 16.34 2.93 16.55C3.47 16.76 4.09 16.91 5 16.95C5.9 16.99 6.2 17 8.5 17C10.8 17 11.1 17 12 16.95C12.91 16.91 13.53 16.76 14.07 16.55C14.63 16.34 15.1 16.05 15.57 15.57C16.05 15.1 16.34 14.63 16.55 14.07C16.76 13.53 16.91 12.91 16.95 12C16.99 11.1 17 10.8 17 8.5C17 6.2 16.99 5.9 16.95 5C16.9352 4.29229 16.8 3.59226 16.55 2.93C16.3356 2.36504 16.0012 1.85329 15.57 1.43C15.1471 0.998255 14.6352 0.663833 14.07 0.45C13.4078 0.199847 12.7077 0.0645709 12 0.05C11.1 0.01 10.8 0 8.5 0C6.18 0 5.9 0.01 5 0.05Z" fill="#FFCB32"/>
</g>
<defs>
<clipPath id="clip0_205_561">
<rect width="17" height="17" fill="white"/>
</clipPath>
</defs>
</svg>
