<svg width="53" height="50" viewBox="0 0 53 50" fill="none" xmlns="http://www.w3.org/2000/svg">
<path d="M35.9444 35.7627C35.8576 35.4904 35.7737 35.2201 35.6899 34.9415C34.9205 32.3986 34.3441 29.6928 34.1078 27.0814C33.9694 25.5747 33.9386 24.1016 34.0214 22.7067C34.0517 22.206 34.5921 22.2353 34.6613 22.0961C34.8536 21.7186 34.218 21.4951 34.265 21.2195C34.3627 20.6466 34.4423 20.0962 34.5218 19.555C34.6272 18.839 34.7322 18.1383 34.881 17.4305C35.1531 16.1559 36.796 16.8536 37.2263 16.4367C38.0723 15.6334 35.851 16.23 35.3812 15.8655C35.5699 14.8895 35.8742 13.9278 36.1843 12.9887C36.3702 13.2371 36.552 13.4858 36.7234 13.7368C36.7984 13.3195 37.1787 12.7526 37.6964 13.4895C37.8644 13.3471 38.0583 13.2176 38.223 13.0715C37.9595 13.0374 37.7829 12.9323 37.6474 12.8037C37.3768 12.5467 37.2702 12.196 36.9605 12.1275C36.4955 12.024 36.5719 12.4453 36.5311 12.4397C35.9472 12.3633 36.8788 10.7436 36.9536 10.6321C37.1522 10.328 38.113 10.6838 38.071 10.4087C37.9992 9.93575 35.9757 10.0882 38.6827 9.6689C37.8385 9.35296 38.2887 9.36631 38.3727 9.05622C38.3833 9.01539 37.8808 9.00915 37.8692 8.98995C37.5343 8.4864 38.4364 8.92248 38.4869 8.92405C39.346 8.9461 39.0043 8.4057 39.0942 8.30542C39.6904 7.63043 40.1837 7.04931 40.5632 6.43984C40.898 5.90235 41.1444 5.34306 41.2907 4.68218C41.3585 4.37672 41.0534 3.42596 41.2091 3.13717C41.3639 2.85014 41.976 3.02967 42.2783 2.88587C40.8001 2.58456 40.6444 2.35678 41.6375 1.82989C40.5573 1.60026 41.4323 1.64682 41.2223 1.2498C41.0484 0.917449 39.7519 0.352237 40.8608 7.47044e-06C40.759 0.408289 41.2925 0.366858 41.6099 0.834409C41.7196 0.987802 41.7037 2.60531 42.8124 2.52095C43.3927 2.47513 42.8768 1.91549 42.9833 1.89783C43.6072 1.78888 44.3635 2.11463 44.0879 2.38018C43.9646 2.30876 43.8398 2.22368 43.7164 2.14773C42.9229 2.73164 45.9161 2.40699 43.2965 2.78712C42.9751 2.83325 42.6427 2.80002 42.3 2.8813C42.4397 2.9055 42.7918 2.80326 42.8507 2.90396C42.91 3.00727 42.2421 3.17264 42.7979 3.22219C43.6062 3.29624 43.3025 2.86513 43.3507 2.8355C43.3458 2.83499 43.3409 2.83449 43.336 2.83399C43.7756 2.56898 43.8047 3.15489 43.8798 3.18579C44.3775 3.38617 44.7709 3.277 45.1767 3.56783C45.408 3.73407 45.2504 4.12732 45.3198 4.27814C45.3914 4.42836 45.7852 4.21845 45.8627 4.32103C45.9402 4.424 45.6433 4.53276 45.7328 4.65313C45.7723 4.70476 46.1995 4.72389 46.2132 4.74871C46.3642 5.01512 45.4848 4.80011 45.5267 5.03533C45.5551 5.1859 46.3539 5.74178 46.6203 5.40475C46.6968 5.57855 46.7502 5.74683 46.8074 5.91855C46.9407 5.82027 47.0333 5.71574 47.1886 5.62052C46.9671 5.9255 47.6888 6.11191 47.7309 6.31422C47.7726 6.51565 46.8944 6.63623 47.2923 6.87894C47.2943 6.88019 47.2964 6.88144 47.2985 6.8827C47.6145 7.07105 47.7723 7.03983 47.8528 6.91552C47.9965 6.69354 47.8929 6.17923 48.0023 6.09288C48.0696 6.04042 48.7431 6.29764 48.7606 6.33233C48.8375 6.48565 48.3356 6.6288 48.3503 6.74337C48.3603 6.81674 48.3886 6.8862 48.4288 6.9531C48.6144 7.26145 49.0559 7.51664 49.1413 7.84075C49.4946 9.18623 49.7272 10.8184 49.7749 12.027C49.792 12.4783 49.0437 12.6878 49.0488 12.8882C49.0597 13.2899 49.525 13.4248 49.659 13.7102C49.6812 13.7574 49.6943 13.8087 49.6948 13.866C49.702 14.4665 49.0891 15.2594 48.9379 15.7409C48.8333 16.0755 49.4291 16.4175 49.4389 16.5049C49.5742 17.6453 49.5181 18.9605 49.5032 19.9047C49.502 19.9756 49.5009 20.0442 49.5 20.111C49.4949 20.5584 48.8022 20.7618 48.8215 20.8554C48.9049 21.2531 49.4969 21.1488 49.4371 21.4657C49.4058 21.6363 48.8385 21.6715 48.8164 21.6948C48.6307 21.8997 49.3725 21.9327 49.3988 22.0876C49.5512 22.9777 49.1 23.8387 49.091 24.7056C49.0899 24.7682 48.762 24.7868 48.7818 24.8262C48.8754 24.994 49.3847 24.8735 49.4365 25.0488C49.4898 25.2242 49.5061 25.4036 49.5063 25.5868C49.5065 25.7836 49.4882 25.9848 49.4773 26.1884C49.4753 26.2272 49.0578 26.2929 49.0682 26.3814C49.0787 26.47 49.484 26.4878 49.4791 26.6265C49.467 26.9881 49.0438 27.4084 49.0797 27.791C49.0863 27.8544 49.6007 27.8472 49.6108 27.9391C49.6424 28.2277 49.2693 28.7364 49.3049 28.9883C49.4037 29.6839 49.7539 30.2663 49.9913 30.862C50.035 30.9716 50.0748 31.0814 50.1088 31.1925C50.1591 31.3611 49.757 31.653 49.7752 31.7472C49.8173 31.9568 50.1917 31.6681 50.2594 31.8692C50.7335 33.2393 51.0066 34.2367 51.7336 35.7183C51.9468 35.9216 53.7916 39.8329 51.9222 43.2668C50.4663 45.9852 48.5512 46.8505 47.5597 47.3991C46.1622 48.072 45.2508 48.3137 44.4798 48.3704C43.9076 48.3978 43.7767 47.7894 43.4255 47.8225C43.1915 47.8438 43.0638 47.9626 42.9375 48.114C42.7315 48.3683 42.5612 48.7122 42.1993 48.7833C41.7237 48.8733 41.1917 48.1051 40.7564 48.1652C40.3908 48.2151 40.2049 48.7564 39.8678 48.9927C39.8006 49.0399 39.7273 49.0749 39.6463 49.0911C39.2477 49.1705 38.7043 48.8256 38.2995 48.8826C37.9164 48.9365 37.5457 48.9878 37.1865 49.0373C36.3593 49.1522 35.5691 49.2586 34.9681 49.3628C34.3176 49.433 34.001 49.6872 35.0534 49.2985C32.0219 50.3897 30.9878 49.8824 30.2513 49.8811C29.5129 49.7728 29.0371 49.6446 28.6058 49.5211C28.1845 49.3971 27.8298 49.2718 27.5014 49.145C27.1742 49.0182 26.874 48.889 26.5857 48.7555C26.2969 48.6217 26.0223 48.4844 25.7425 48.3355C25.472 48.1904 25.1643 48.0213 24.8141 47.8111C24.6646 47.6981 24.5274 47.5946 24.4078 47.4983C23.931 47.066 23.1964 46.9275 22.3961 46.0199C22.3869 46.0093 22.3778 45.9986 22.3687 45.9878C22.2934 45.8999 22.5832 45.2037 22.2546 45.297C22.0767 45.3487 21.7443 45.9336 21.372 45.9091C20.5455 45.8538 19.6698 45.6289 18.7237 45.3924C17.4099 45.0621 15.9609 44.7119 14.5053 44.753C14.1855 44.7619 13.8654 44.7896 13.5471 44.8405C12.3987 45.0243 11.2528 45.5982 10.1036 46.1848C8.60918 46.9462 7.09832 47.7304 5.47894 47.7131C3.7976 47.6932 1.93488 46.7951 0.178436 44.0193C-0.0484828 43.6525 -0.0250603 41.7972 0.0629464 41.2658C0.19207 41.6355 0.319662 42.0757 0.46291 42.4926C0.47137 40.1737 0.484056 40.7782 1.02801 40.9491C1.3655 41.0543 1.03237 40.0861 1.18528 39.7934C1.38854 39.4166 2.32211 38.19 2.25874 39.7329C2.30037 39.4625 2.33672 39.2038 2.37607 38.9392C3.09167 38.6482 3.7682 38.2085 4.43978 37.711C4.45761 37.6978 4.47545 37.6847 4.4933 37.6715C4.61301 37.5817 4.57076 37.1027 4.6926 37.0128C5.02084 36.7677 5.33955 37.0514 5.69866 36.9642C5.89428 36.917 5.8626 36.3616 6.12811 36.369C6.39499 36.3764 6.46672 37.1231 6.73738 36.2745C6.40386 35.3634 7.51844 35.9318 7.88493 35.8362C7.93823 35.8231 8.29699 34.9365 8.5448 35.0095C8.67577 35.0471 8.85371 35.2047 9.04274 35.295C9.2112 35.3758 9.38755 35.4029 9.54902 35.2424C9.70924 35.0826 9.75461 34.4171 9.94117 34.3624C10.0722 34.3242 10.2839 34.8928 10.4543 34.9024C10.624 34.9118 10.9503 34.4021 11.0175 34.3888C11.2578 34.3372 11.0235 34.7692 11.191 34.7763C12.0006 34.804 12.9493 34.9591 13.7388 34.6406C13.8362 34.6019 13.6735 34.125 13.6856 34.1082C13.8142 33.9825 13.9049 33.908 13.9685 33.8725C14.2245 33.7302 14.044 34.2135 14.2067 34.5536C14.4011 34.961 15.6826 34.6883 15.6786 33.8488C15.7442 34.9027 16.016 34.0907 16.0938 34.0586C16.3906 33.9343 16.3435 34.8481 16.6267 34.5629C16.7317 34.4592 16.5204 33.8437 16.6346 33.8609C16.9196 33.9037 17.1741 34.8945 17.5435 34.997C17.633 35.0222 17.6672 34.5808 17.8284 34.598C17.989 34.6141 18.6556 35.1723 18.3658 34.233C18.7229 34.9176 18.8302 34.6518 19.2068 34.6248C19.247 34.622 19.2902 34.622 19.3369 34.6262C19.4608 34.6385 19.5797 35.3569 19.8499 35.1521C19.9418 35.0828 19.9824 34.3978 20.1173 34.4011C20.4293 34.4072 20.6648 35.1372 21.045 35.2003C21.7594 35.3206 22.6057 34.921 23.3567 35.2242C23.5601 35.3076 23.3929 35.9782 23.6887 36.0441C23.7312 36.0513 24.2017 35.5319 24.4078 35.6319C24.4363 35.6458 24.49 35.6867 24.5567 35.7421C24.7753 35.9218 25.1196 36.2593 25.2149 36.3096C25.4181 36.4146 25.6208 35.7783 25.7103 35.9359C25.966 36.3923 25.4239 37.2629 26.196 36.0819C26.1328 36.8372 26.3927 36.8362 26.2009 37.7364C26.6317 36.8174 26.5185 37.7923 26.8876 37.5607C27.2515 37.3268 28.1805 35.5944 27.5142 37.5803C27.7275 37.3845 28.4548 37.2036 28.5606 37.2161C28.8694 37.2487 28.4893 37.7167 28.7193 37.7308C28.7591 37.7342 28.8881 37.3571 29.095 37.4929C29.1776 37.5465 29.5831 37.7517 29.8765 37.9278C29.9858 37.9992 30.0808 38.0613 30.094 38.0915C30.2988 38.7665 29.8094 38.451 29.5457 38.5736C29.4797 38.5836 29.4197 38.6071 29.3716 38.6517C29.3977 38.5388 29.4238 38.4255 29.4467 38.3127C29.2326 37.9991 29.0076 38.8848 29.0414 39.1334C29.0544 39.2246 29.118 39.251 29.1923 39.2636C29.2995 39.2742 29.4158 39.227 29.3945 39.4233C29.3759 39.5773 28.8918 40.5359 28.8081 40.3516C28.8131 40.7209 28.4545 40.9352 28.3774 41.2427C28.3379 41.413 28.4976 41.613 28.6994 41.6968C28.9012 41.7814 29.1416 41.7496 29.2558 41.4769C29.1446 41.4118 28.9986 41.3619 28.8777 41.2965C28.8558 41.2846 28.8345 41.2721 28.8139 41.2587C28.9044 40.8724 29.2542 40.213 29.6272 39.6136C30.0992 38.8619 30.5962 38.1983 30.7632 38.3328C30.8147 38.3741 30.8376 38.4905 30.8247 38.7034C30.7807 39.6331 30.1661 40.1829 30.717 39.9578C30.7951 39.9241 30.8964 39.8734 31.0199 39.8005C30.9504 39.7476 30.8976 39.67 30.8416 39.6018C30.8184 39.5736 30.7945 39.547 30.7686 39.5243C30.8975 39.1497 30.9266 39.1938 30.9481 39.2976C30.9679 39.3954 30.9836 39.5472 31.0607 39.4473C31.133 39.3454 31.0807 38.752 31.3334 38.6455C31.2256 39.2992 31.362 39.2099 31.5133 39.0313C31.6169 38.9096 31.7289 38.7461 31.7742 38.7498C31.7051 38.9363 31.6031 39.1135 31.4857 39.2854C31.5907 39.7589 31.3704 39.9908 31.1938 40.1838C31.1167 40.2761 31.0646 40.3655 31.1103 40.4851C31.1455 40.5781 31.2474 40.6941 31.4187 40.8177C31.3015 40.8326 31.1766 40.7933 31.0299 40.809C30.994 41.2183 30.5619 42.3302 30.5655 42.5911C30.5904 43.2026 30.9344 43.0346 31.2026 43.0478C31.2388 43.0499 31.2739 43.055 31.3078 43.0654C31.4432 43.1035 31.3298 43.414 31.3394 43.417C31.5549 43.4685 31.5329 42.9977 31.7157 42.9665C31.7827 42.951 32.111 43.0028 32.3685 42.9749C32.5227 43.0354 32.689 43.1349 32.705 43.0992C32.7968 42.9361 32.2807 42.1175 32.2493 42.0575C32.2186 41.5933 32.5607 41.8912 32.3968 41.3277C32.2608 41.4696 32.0267 41.5787 31.8093 41.6578C31.8093 41.6578 31.8093 41.6578 31.8093 41.6578C31.7477 41.674 31.5013 41.5711 31.4313 41.4047C31.3612 41.2663 31.3852 41.0984 31.5003 40.9092C31.5251 40.7889 31.8286 40.6057 31.48 40.48C31.481 39.6705 32.5091 38.2421 30.4372 38.4263C30.504 38.3596 30.5884 38.2986 30.6941 38.2472C31.568 37.8657 31.1579 38.5513 31.7576 38.9809C31.8742 39.01 32.9102 39.1081 32.838 38.7179C32.942 39.6503 33.2832 40.4437 33.2536 41.4238C33.2482 41.567 32.9792 41.5504 33.188 42.3063C33.2914 42.6857 33.5208 43.5131 33.568 44.0091C33.5636 43.6604 33.5629 43.2679 33.571 42.9033C33.9232 42.7614 34.0207 43.1304 34.2658 43.7581C34.2408 43.4898 33.9619 42.3754 34.2754 42.6973C34.2918 42.7169 34.3328 43.1209 34.4909 43.313C34.5511 43.3852 34.6026 43.4483 34.6455 43.5111C34.8247 43.7783 34.8387 44.0377 34.7258 44.968C34.7235 44.9869 34.7211 45.0061 34.7187 45.0256C34.7219 45.0214 34.7251 45.0173 34.7283 45.0132C35.2706 44.3324 35.4511 45.6406 36.0632 45.2418C35.9164 43.7107 35.6769 44.0919 35.1221 44.4079C35.0831 44.0444 35.0569 43.684 35.0155 43.3168C35.8249 44.1162 35.4279 44.0456 35.8625 43.294C35.9645 43.1096 36.5699 43.2963 36.3569 42.2661C36.3049 42.0234 35.9294 42.0571 35.9663 41.6735C35.9705 41.6 36.4349 41.4081 36.4728 41.5071C36.9429 42.617 36.242 43.4279 37.1606 43.2186C37.2495 43.1985 37.3541 43.1689 37.4774 43.1292C37.5159 43.116 37.5281 42.6694 37.6035 42.607C37.7445 42.4907 37.7472 43.008 37.8732 42.8883C37.9992 42.7683 38.1736 42.0722 38.3661 42.7149C38.7201 43.8852 37.8929 44.5609 37.531 43.9406C37.4145 45.1461 39.0073 45.4237 39.8195 45.4101C40.0345 45.4069 40.1861 45.3836 40.2217 45.3552C40.8144 44.8863 40.1343 45.0211 39.8123 44.874C39.7304 44.8373 39.6701 44.7831 39.6564 44.698C39.6274 44.5186 39.616 42.2423 39.3281 43.7222C39.241 44.1609 39.6247 44.7342 39.401 44.9777C39.1763 45.221 39.261 44.5498 39.2442 44.5032C39.187 44.3434 38.9494 44.5934 38.9181 44.4984C38.4402 43.0578 38.4721 40.8783 39.1143 44.0949C39.3818 43.3653 38.7501 42.2092 39.0844 41.7132C39.3963 41.2465 39.6473 41.7605 39.774 42.0378C39.8105 42.1188 39.8357 42.1797 39.8475 42.1901C40.4748 42.7329 39.7355 41.2315 40.4971 41.6997C40.9264 41.958 39.888 42.7247 40.8535 42.5994C41.6711 42.4851 41.2021 41.9739 41.2137 40.7738C41.2166 40.4928 41.6179 40.131 41.0533 40.2786C41.0491 40.5914 41.0336 41.0041 41.0063 41.2934C40.8466 41.0711 40.5692 39.5149 40.4947 39.462C40.1255 39.2109 40.1566 40.0213 39.9256 39.0695C40.0968 40.1124 39.8357 39.4867 39.7435 39.7086C39.7432 39.7093 39.7429 39.7101 39.7426 39.7108C39.3999 40.5267 39.8651 40.8238 39.0586 39.7857C39.1661 40.2752 39.2644 40.7556 39.3706 41.243C39.274 41.2607 39.177 41.2787 39.08 41.2961C38.9275 40.2177 38.4185 40.3578 38.8758 39.2689C38.3202 38.9627 38.0921 39.198 37.9708 40.0383C37.9478 40.1987 37.8634 40.2629 37.7642 40.2786C37.7835 40.5147 37.8091 41.2443 37.7937 41.3339C37.6569 42.1212 37.4344 40.7622 37.5073 40.243C37.4372 40.2184 37.3817 40.1895 37.3621 40.1769C37.2378 40.0967 37.4795 39.6267 37.3784 39.4661C37.3599 39.4372 37.2443 39.456 37.1438 39.4462C37.0628 39.4384 36.9915 39.4119 36.988 39.3268C36.9351 38.1046 37.5322 38.9816 36.3459 38.2806C36.3305 39.3937 36.8709 39.1443 36.7403 40.328C36.6019 41.5992 36.2877 39.8984 36.237 41.4579C36.2091 41.202 36.1953 40.9885 36.1699 40.6971C35.7131 41.3833 35.6841 40.0868 35.5265 39.8036C35.2355 39.2457 33.8819 39.3927 35.1299 40.4646C34.9599 40.5828 34.7857 40.642 34.6236 40.7494C34.5325 39.4073 34.5483 39.1478 34.4027 39.1086C34.2917 39.0809 34.1101 39.1676 33.7138 39.0498C33.5072 38.9888 33.3283 37.9779 33.2563 39.2085C33.147 38.0177 32.5885 38.8159 32.4718 38.694C31.858 37.8259 33.4056 36.2877 33.71 38.4018C33.8799 37.565 33.9549 38.6474 34.192 38.488C34.2576 38.4445 34.3126 38.4017 34.3618 38.3662C34.5652 38.2155 34.6612 38.1948 35.0178 38.8307C35.2338 38.1567 34.6358 38.124 34.3362 37.9025C34.1705 37.7832 34.0927 37.6053 34.2993 37.233C34.3622 37.1241 34.4396 36.9992 34.5509 36.855C34.946 36.3477 35.9737 35.9029 37.1265 35.5526C37.9596 35.2975 38.8629 35.084 39.6776 34.8918C40.5433 34.6889 41.3042 34.5047 41.7855 34.3478C42.1629 34.2271 42.361 34.1282 42.4263 34.0728C42.5373 33.9877 42.5109 33.8935 42.0979 33.9886C40.5995 31.5204 36.7017 44.0287 38.7865 42.539C38.3006 41.7655 37.8398 40.9009 37.3533 39.6993C37.2061 39.3956 36.2813 37.2665 37.6855 37.2789C37.8827 37.2803 38.6749 37.9724 39.354 36.8721C38.843 37.2326 38.3146 36.9348 38.2418 36.918C36.5834 36.5479 36.4064 37.1596 35.9444 35.7627ZM46.2988 29.3202C46.2899 30.7306 46.9336 29.5562 48.9151 29.4139C48.8861 29.2554 48.858 29.0951 48.8314 28.9349C48.7188 29.0011 48.6066 29.0672 48.4944 29.1345C48.4944 29.1346 48.4945 29.1348 48.4945 29.135C47.7636 29.203 47.0315 29.2643 46.2988 29.3202ZM47.8875 5.19949C48.143 5.2758 48.3989 5.35159 48.6483 5.43357C48.5563 5.64203 48.4653 5.8487 48.3724 6.05512C48.1983 6.01944 48.0222 5.98457 47.8481 5.94905C47.8703 5.70058 47.8926 5.45096 47.8875 5.19949ZM37.3179 44.2262C37.2532 44.0643 37.2047 44.004 37.1641 44.0011C37.025 43.9909 36.9772 44.6608 36.684 44.2092C36.7375 45.1573 36.7948 46.0848 36.8487 47.0236C36.9957 46.9489 37.0823 46.8141 37.1763 46.7361C37.2615 46.6656 37.3528 46.6417 37.5015 46.7513C37.4642 46.4466 37.4261 46.14 37.3896 45.8334C37.3379 45.899 37.2832 45.9736 37.2337 46.0317C37.1492 45.1789 37.6488 45.0499 37.3188 44.2242C37.3185 44.2248 37.3182 44.2255 37.3179 44.2262ZM34.5439 44.6731C34.4077 44.5551 33.8386 44.139 33.8277 44.539C33.749 45.8779 34.9886 44.9252 34.1296 46.1872C34.1523 46.3728 34.1669 46.5554 34.1856 46.7395C34.3403 46.7895 34.5162 46.8322 34.6971 46.8735C34.6412 46.1384 34.6026 45.4117 34.5439 44.6731ZM47.7282 34.034C47.7041 34.2734 48.6443 34.9069 49.3013 34.287C49.4967 34.1159 48.2282 34.1994 48.2166 34.022C48.2105 33.9127 48.8691 33.782 48.5698 33.6803C48.3004 33.7925 48.0002 33.913 47.7302 34.0339C47.7295 34.0339 47.7288 34.034 47.7282 34.034ZM43.9747 34.9887C44.1705 35.181 44.3985 35.3613 44.6037 35.5411C45.2407 35.1023 44.6672 34.9535 45.6542 34.5632C45.7521 34.5955 45.8492 34.6266 45.947 34.6576C45.7472 34.785 45.5475 34.9127 45.3486 35.0416C45.9587 35.0204 46.1793 34.8013 46.1601 35.2029C47.5614 34.3856 48.3628 34.0845 46.6291 34.0776C47.4843 33.8809 50.1089 32.8105 48.0973 33.2001C47.7219 33.2673 47.5717 33.594 47.517 33.6179C46.8313 33.9107 46.3338 33.932 45.6871 34.2116C45.3946 34.3385 45.4576 34.4973 45.0524 34.6745C44.8547 34.7613 44.2196 34.8139 43.9747 34.9887ZM47.375 33.2854C47.8219 33.1975 48.7598 32.6387 48.4956 32.5311C48.0808 32.3496 47.2645 33.1252 47.375 33.2854ZM47.8866 5.19805C47.8869 5.19853 47.8872 5.19902 47.8875 5.19949C47.8866 5.19921 47.8856 5.19893 47.8846 5.19864C47.8853 5.19846 47.886 5.19824 47.8866 5.19805ZM35.2787 45.1604C35.122 45.5491 34.8898 45.5042 34.9372 46.1122C34.8833 46.0344 34.8326 45.9574 34.7761 45.8807C34.749 45.843 34.722 45.8052 34.6951 45.7673C34.7066 45.9501 34.7188 46.1334 34.7301 46.3144C34.7538 46.3251 34.7777 46.3358 34.8018 46.3465C34.9984 46.438 35.2074 46.5319 35.4184 46.629C35.3739 46.14 35.3305 45.6491 35.2787 45.1604ZM33.2933 44.9123C33.177 44.8752 33.5509 45.6331 33.6715 46.0126C33.7337 46.1795 33.7451 46.2069 33.7547 46.2398C33.2913 46.5172 32.5208 46.6776 32.7594 46.9585C33.211 46.8872 33.6347 46.7492 33.9186 46.6257C33.9186 46.6257 33.9185 46.6257 33.9186 46.6257C33.9227 46.6435 33.9084 46.6797 33.8846 46.706C33.7084 46.1042 33.5087 45.4978 33.2931 44.9123C33.2931 44.9123 33.2932 44.9123 33.2933 44.9123ZM46.3027 23.6128C46.1326 23.8276 45.4958 23.7766 46.2573 24.1497C46.2572 24.1494 46.2572 24.1491 46.2572 24.1488C46.7529 23.7289 47.1944 23.2223 46.6822 22.806C46.0223 23.0898 46.5693 23.2751 46.3027 23.6128ZM38.1163 46.091C38.2115 45.5895 37.7609 45.1717 37.6657 45.6378C37.5095 46.3921 37.9687 46.8528 38.1163 46.091ZM42.0908 14.5981C40.5757 14.1424 38.7997 14.6819 39.5016 15.4338C39.563 15.498 40.082 15.0799 40.374 15.2329C40.4026 15.2482 40.35 15.4921 40.5605 15.5664C40.7714 15.6408 41.2738 15.6086 41.4767 15.7209C41.8312 15.917 41.1304 16.2685 41.6029 16.4277C41.6662 16.4482 42.3472 16.2438 42.3735 16.2306C42.7915 16.0072 41.9352 15.7139 41.9319 15.6744C41.9146 15.474 42.5958 15.5479 42.7596 15.5083C43.0676 15.4338 42.7767 15.2483 42.7999 15.238C43.4187 14.9785 43.202 15.651 43.4431 15.7582C44.0925 16.0467 44.724 15.8588 45.0642 16.4675C45.0961 16.5263 45.0179 17.1869 45.8315 16.3952C47.3331 18.115 46.7837 15.6374 46.4569 15.3377C46.3025 15.2029 45.6389 15.3469 45.3509 15.2519C44.6923 15.0349 44.5947 14.731 43.6485 14.6915C41.6589 14.611 42.9329 15.0924 42.5812 15.3402C42.1518 15.2835 41.7319 15.245 41.3135 15.1642C41.8754 15.282 42.2046 14.631 42.0947 14.5984C42.0934 14.5983 42.0921 14.5982 42.0908 14.5981ZM44.1327 18.9491C43.5203 19.301 44.7771 19.3115 44.0499 19.629C45.1703 19.9522 45.1091 19.3693 45.1753 19.3037C45.4692 19.0027 46.6949 19.0527 46.3291 18.727C45.5997 18.8071 44.8635 18.8701 44.1327 18.9491ZM44.812 15.7507C45.431 16.0394 45.4485 15.5947 45.5712 15.5846C46.8706 15.4742 46.5376 16.778 44.812 15.7507ZM45.8974 36.2352C45.9071 36.3649 46.431 36.043 46.6371 36.0645C46.8426 36.0828 46.5221 36.6374 46.8613 36.4668C47.1947 36.2851 47.8286 35.2938 48.2826 35.7801C48.466 35.6687 48.6126 35.6068 48.7822 35.5145C48.7162 35.3566 48.6557 35.1981 48.595 35.0446C48.0718 35.3801 47.5245 35.7388 47.0259 36.0763C46.5411 36.1886 47.0869 35.8738 47.085 35.8696C47.0844 35.8698 47.0838 35.8701 47.0832 35.8704C46.965 35.7244 45.8765 35.9457 45.8974 36.2352ZM45.3435 26.6167C43.8241 26.7533 45.5488 26.8437 45.7501 26.929C45.9506 27.0179 45.4109 27.2447 46.0541 27.1027C46.4796 26.8675 45.513 26.605 45.3415 26.6169C45.3422 26.6169 45.3428 26.6168 45.3435 26.6167ZM44.0941 20.9504C44.4628 21.26 44.859 21.2097 44.4075 21.5839C44.776 21.5681 45.1526 21.5525 45.5155 21.5372C45.5226 21.2468 44.4524 21.2635 44.8844 20.9235C44.9559 20.8682 45.8095 20.9935 45.537 20.7411C45.0801 20.8095 44.5732 20.8799 44.0941 20.9504ZM45.4696 22.4448C45.4075 22.1082 42.4211 21.8587 43.7766 22.4942C43.9796 22.5885 45.5178 22.701 45.4696 22.4448ZM44.6992 33.2451C44.8 33.8422 45.0483 33.0438 45.4452 32.7689C46.2059 33.9501 45.2697 32.6483 46.7039 32.097C46.244 32.0737 45.2028 32.0422 45.0436 32.4505C44.9784 32.6209 45.3989 32.4414 45.3996 32.4504C45.3669 32.7339 44.6465 32.9188 44.6992 33.2451ZM44.0835 18.3033C44.105 18.3271 44.6209 18.3126 44.7208 18.3891C44.8199 18.4653 44.4535 18.6152 44.7686 18.6434C45.0856 18.671 45.3447 18.3549 45.1177 18.2447C44.8884 18.1345 43.8941 18.0875 44.0835 18.3033ZM42.752 20.6094C43.1193 20.9167 45.0212 20.4425 45.0137 20.3821C44.9241 19.8096 43.3514 20.6271 42.752 20.6094ZM41.1988 32.741C42.338 33.2518 43.7886 32.225 44.6523 31.5572C44.4402 31.5512 44.2274 31.5429 44.0171 31.5347C45.2863 31.4948 46.5783 31.6172 45.2865 30.9051C45.1378 31.5195 44.702 31.1444 44.6329 31.1549C42.4043 31.6313 43.6495 32.2324 41.1986 32.7403C41.1987 32.7405 41.1987 32.7408 41.1988 32.741ZM44.6709 17.3431C44.6785 17.0275 44.3349 16.1718 43.3225 16.5033C43.7708 16.787 44.2205 17.0666 44.6709 17.3431ZM42.3263 39.5717C42.2847 39.4932 42.2447 39.4266 42.2058 39.3702C41.9732 39.0358 41.7807 39.0611 41.5232 39.1074C41.844 39.9153 41.6728 40.0204 41.5862 40.2275C41.4562 40.5394 41.81 40.4947 41.8133 40.5496C41.8572 41.3317 41.63 41.47 42.1585 41.4151C42.0428 41.6974 41.9364 41.9802 41.816 42.2589C42.1382 42.2675 42.299 42.5762 42.5094 42.999C42.5677 43.115 42.6302 43.2396 42.7022 43.3683C42.3046 41.8701 42.7322 42.7954 42.972 42.0038C43.0737 41.6101 42.4559 39.8531 42.3254 39.5717C42.3257 39.5717 42.326 39.5717 42.3263 39.5717ZM41.126 33.6197C41.4132 33.6218 41.7909 33.5873 42.1143 33.5713C42.1671 33.6436 42.2169 33.7168 42.2703 33.7887C42.041 33.8702 41.8005 33.9535 41.5808 34.0343C41.5468 34.164 41.857 34.021 41.8973 34.0436C41.8961 34.044 41.8948 34.0444 41.8936 34.0448C42.466 34.3686 42.4775 34.56 41.8897 35.1624C42.5935 34.9183 43.2974 34.6741 44.0012 34.4299C43.908 34.3779 43.8163 34.324 43.7251 34.2704C43.3322 34.3583 42.9388 34.4452 42.5449 34.5294C42.7236 34.3674 42.9021 34.2084 43.0828 34.05C42.9224 34.0221 42.7501 33.9807 42.5964 33.9594C44.4693 32.9773 43.3767 34.2104 44.2033 33.9476C44.7282 33.7739 44.4566 33.0038 44.0579 32.9977C43.9989 32.9961 42.5664 33.6188 43.2514 33.0883C43.3459 33.014 45.8267 32.2721 44.6244 32.3929C44.4545 32.409 44.211 32.4415 43.8766 32.4934C43.6423 32.5297 42.8185 32.8118 42.1212 33.107C41.677 33.2947 41.2842 33.4878 41.126 33.6197ZM41.206 37.1602C42.9893 35.8616 41.6411 38.5305 42.9423 37.0638C43.9382 36.8871 43.9048 36.842 44.6238 36.2942C44.6886 36.246 44.9956 36.277 45.0221 36.2512C45.3867 35.8748 45.0617 35.7546 45.8724 35.4185C45.8097 35.3884 45.7529 35.3588 45.6903 35.3281C45.0068 35.8446 44.3608 35.7287 43.6577 35.845C43.3393 35.8984 43.3042 36.0767 43.0264 36.1258C42.9244 36.1427 43.0345 35.8684 42.7612 35.964C42.1431 36.1806 41.3651 36.6258 41.0089 37.0383C41.0083 37.0386 41.0077 37.0388 41.0071 37.0391C41.0701 37.0816 41.1411 37.1188 41.206 37.1602ZM40.4542 26.1182C41.6283 25.9258 41.9379 25.5815 42.5714 26.1463C42.8011 26.0939 43.0289 26.0412 43.2588 25.9898C43.2289 25.8895 43.1998 25.7921 43.1723 25.6896C39.6609 25.654 43.5523 24.7569 41.1074 25.3194C40.8416 25.3806 41.1613 25.6152 40.4126 25.4161C40.412 25.4165 40.4114 25.4169 40.4107 25.4173C40.6618 25.7577 41.0842 25.7628 40.4542 26.1182ZM41.5525 28.3835C44.133 28.7932 42.7799 27.1183 42.169 27.4999C42.1112 27.539 42.7534 28.2687 41.5525 28.3835ZM38.9125 21.9279C38.8732 22.3043 40.221 22.3072 40.7051 22.2634C41.1908 22.2201 40.6964 21.9756 40.7728 21.9418C41.0244 21.8343 41.1933 22.0556 41.5381 21.9162C41.6492 21.8689 42.1275 21.2462 42.0704 21.2187C41.7487 21.059 40.6369 21.2889 40.5098 21.2437C40.093 21.091 40.6724 20.8899 40.082 20.8419C38.822 20.7374 40.1427 21.1324 40.1644 21.1955C40.2239 21.3908 39.5143 21.3736 39.3724 21.5222C39.2308 21.6709 39.4745 21.7666 39.4253 21.8973C39.4088 21.941 38.9169 21.909 38.9125 21.9279ZM41.7786 23.0856C40.7481 22.7325 39.6677 23.6985 39.9134 23.8072C40.635 24.0977 42.2679 23.242 41.7786 23.0856ZM43.7812 34.8189C42.9665 34.7353 42.6797 35.7127 43.0478 35.8336C43.316 35.6782 44.0573 34.8399 43.7812 34.8189ZM41.1466 32.5272C41.4526 32.7861 42.9515 31.9444 42.8656 31.7036C41.766 31.8146 42.0113 31.9055 42.0112 32.0882C42.011 32.2704 40.9086 32.3219 41.1466 32.5272ZM40.2052 17.9567C40.183 18.028 41.0467 19.1629 41.4454 18.5444C41.4743 18.4979 41.3474 17.7253 41.1828 17.6585C40.8482 17.5248 40.2613 17.7809 40.2052 17.9567ZM39.2 31.3149C40.1639 31.2969 40.188 31.4635 41.2391 31.0693C41.2391 31.069 41.239 31.0688 41.239 31.0686C41.6644 31.4171 39.4563 31.9504 39.5262 32.0379C39.7723 32.336 41.2712 31.6447 41.8366 31.7247C41.2399 31.3731 42.3339 31.2581 42.324 30.8976C42.3215 30.8189 41.6172 30.6396 41.2098 30.6725C40.802 30.7064 39.6445 31.1213 39.2 31.3149ZM40.0484 16.3809C39.665 16.7364 41.1791 17.156 41.4497 16.6569C41.5832 16.4148 40.282 16.1658 40.0484 16.3809ZM33.6079 39.3294C33.709 39.724 33.8079 40.1175 33.9058 40.5094C33.7657 40.6183 33.6306 40.7305 33.5018 40.8441C33.5984 40.7057 33.7003 40.5701 33.807 40.4351C33.5238 40.3194 33.3097 39.6068 33.6071 39.3294C33.6074 39.3294 33.6076 39.3294 33.6079 39.3294ZM25.9663 37.2368C25.9421 36.8267 25.3846 37.9184 25.3935 38.0179C25.4281 38.7485 25.9863 37.8015 25.9663 37.2368ZM40.5457 36.5766C40.56 37.0861 42.2602 36.0747 42.2917 35.7756C42.0025 36.0676 40.5407 36.2906 40.5457 36.5766ZM29.3716 38.6517C29.3357 38.8075 29.2994 38.9632 29.2655 39.1206C29.2621 39.1327 29.2586 39.1448 29.2552 39.157C29.2555 39.1509 29.2558 39.1449 29.2561 39.139C29.2384 38.8783 29.2849 38.732 29.3716 38.6517ZM38.4772 18.0619C38.3245 18.1225 38.1822 18.6146 38.3652 18.6892C38.7494 18.8407 39.8384 18.4937 39.5166 18.2579C39.482 18.2322 38.6294 18.0019 38.4771 18.063C38.4771 18.0626 38.4772 18.0623 38.4772 18.0619ZM32.8322 38.6653C32.8356 38.6837 32.8375 38.7014 32.838 38.7179C32.8363 38.7005 32.8337 38.6827 32.8322 38.6653ZM15.6724 33.7599C15.676 33.79 15.6782 33.82 15.6786 33.8488C15.6768 33.8206 15.6739 33.7909 15.6724 33.7599ZM36.7499 21.5957C34.8922 21.7772 35.8843 22.1767 36.8002 21.8512C36.8483 21.8333 36.7463 21.6375 36.7499 21.5957Z" fill="#FFCB32"/>
</svg>
