<svg width="100" height="18" viewBox="0 0 100 18" fill="none" xmlns="http://www.w3.org/2000/svg">
<path d="M3.29658 14.5462C3.58602 14.5347 3.89874 14.4803 4.21311 14.4195C4.77833 14.3105 5.35886 14.1803 5.87351 14.2364C5.88478 14.2376 5.89605 14.2388 5.90732 14.24C6.23509 14.2758 6.57193 14.3407 6.97773 14.4191C7.0294 14.4291 7.0824 14.4397 7.13648 14.4501C7.39929 14.5005 7.69344 14.556 8.03614 14.6134C8.32151 14.6613 8.63913 14.7105 8.99962 14.7596C10.0534 14.903 10.9955 14.8952 11.7866 14.8237C12.9939 14.7144 13.8522 14.4568 14.2206 14.3469C14.591 14.2362 14.9718 14.1493 15.3702 14.079C16.2837 13.9181 17.2976 13.8413 18.5228 13.7724C18.649 13.7653 18.7785 13.759 18.9095 13.7524C18.9452 13.7506 18.9811 13.7488 19.0171 13.747C19.1536 13.7399 19.2749 13.9456 19.2896 14.2065C19.3036 14.4677 19.2067 14.6847 19.0719 14.6917C19.0325 14.6937 18.9934 14.6957 18.9544 14.6978C18.8321 14.7042 18.7113 14.7108 18.5933 14.7174C18.5926 14.7174 18.5918 14.7175 18.5911 14.7175C17.3518 14.7872 16.3445 14.8641 15.4439 15.0258C15.0704 15.0931 14.7139 15.1755 14.3667 15.2795C13.9914 15.3917 13.114 15.6554 11.8762 15.7662C11.0699 15.8382 10.1094 15.8454 9.03397 15.6989C8.69957 15.6534 8.40187 15.6079 8.13199 15.5637C7.75501 15.5017 7.43491 15.4419 7.15239 15.3878C7.09939 15.3776 7.04769 15.3673 6.99747 15.3576C6.99628 15.3573 6.99509 15.3571 6.99391 15.3568C6.58451 15.2779 6.26209 15.2152 5.94738 15.1811C5.94071 15.1806 5.93404 15.1801 5.92737 15.1796C5.41506 15.1238 4.84935 15.249 4.30243 15.3569C3.98367 15.4199 3.66809 15.4774 3.37784 15.4889C3.22796 15.4948 3.08645 15.2883 3.06462 15.0279C3.04239 14.7677 3.14753 14.5523 3.29658 14.5462ZM56.0769 10.8421C56.4779 10.66 56.9486 10.5841 57.4351 10.5755C57.8748 10.5677 58.3275 10.6148 58.7534 10.6881C59.0909 10.7461 59.4164 10.8216 59.7119 10.9022C60.2071 11.0374 60.6178 11.1872 60.8588 11.2948C61.1933 11.444 61.5608 11.5035 61.9887 11.5383C62.0419 11.5426 62.0961 11.5466 62.1513 11.5503C62.2656 11.5579 62.3842 11.5645 62.5069 11.5713C62.912 11.5938 63.3628 11.619 63.8576 11.6938C63.9972 11.7149 64.1332 11.7345 64.2655 11.7526C65.1827 11.878 65.9268 11.9338 66.5423 11.9541C66.9729 11.9692 67.3173 11.9719 67.6097 11.9701C67.7644 11.9693 67.9076 11.9671 68.0445 11.9658C68.0447 11.9658 68.0449 11.9658 68.0452 11.9658C68.5114 11.9619 68.8779 11.9658 69.2035 12.0596C69.2432 12.071 69.2822 12.0837 69.3207 12.098C69.9538 12.3325 70.4695 12.5467 71.079 12.9395C71.303 13.084 71.5564 13.196 71.826 13.2795C72.5666 13.5089 73.4333 13.5242 74.0882 13.3753C74.137 13.3641 74.1873 13.352 74.238 13.3404C74.3707 13.31 74.51 13.2784 74.658 13.2469C75.233 13.1244 75.9377 13.0041 76.8966 12.9622C77.1524 12.951 77.3996 12.9508 77.6383 12.959C78.3348 12.983 78.9614 13.0784 79.5356 13.1827C79.7568 13.2229 79.9678 13.2646 80.1717 13.3035C80.3243 13.3326 80.4723 13.3604 80.6172 13.3858C80.96 13.4459 81.2835 13.4919 81.5969 13.5062C82.3833 13.5422 83.112 13.5836 83.7022 13.6257C83.7022 13.6257 83.7023 13.6257 83.7023 13.6257C84.8142 13.7085 85.5456 13.8866 86.1418 14.0902C86.2717 14.1357 86.3913 14.1824 86.5016 14.2297C87.1536 14.5098 87.5013 14.8171 87.7511 15.0379C87.8265 15.1047 87.8933 15.1647 87.9573 15.2134C88.1401 15.3525 88.3202 15.472 88.5041 15.5799C88.8941 15.8092 89.2974 15.9861 89.7614 16.1881C89.913 16.254 90.0711 16.3229 90.2377 16.3969C90.5351 16.5291 90.8022 16.6026 91.0412 16.6403C91.2497 16.6732 91.437 16.6789 91.6054 16.6728C91.7636 16.6671 91.905 16.6517 92.039 16.6363C92.0415 16.6359 92.044 16.6355 92.0465 16.6351C92.0651 16.633 92.0836 16.6312 92.102 16.6292C92.1159 16.6276 92.1299 16.6251 92.1438 16.6235C92.1498 16.6196 92.1549 16.6173 92.1588 16.6151C92.1619 16.6134 92.1643 16.6122 92.1659 16.6115C92.1662 16.6111 92.1665 16.6108 92.1668 16.6104C92.1948 16.5962 92.2177 16.5923 92.2224 16.5915C92.2306 16.59 92.2377 16.5899 92.2413 16.5896C92.2607 16.588 92.2852 16.5891 92.3014 16.5901C92.3432 16.5928 92.4154 16.5993 92.5275 16.6112C92.6265 16.6116 92.723 16.602 92.8444 16.5892C92.852 16.5883 92.8597 16.5874 92.8673 16.5866C92.9857 16.574 93.1247 16.56 93.2982 16.5509C93.456 16.5426 93.5742 16.7461 93.5612 17.0064C93.5483 17.2667 93.4072 17.4847 93.247 17.4929C93.0814 17.5014 92.9498 17.515 92.8299 17.5274C92.8223 17.5283 92.8146 17.5292 92.807 17.5301C92.6821 17.543 92.5644 17.5547 92.4398 17.5533C92.3981 17.5529 92.3554 17.551 92.3156 17.5484C92.2433 17.5497 92.1601 17.5579 92.0607 17.5689C92.0408 17.5711 92.0203 17.5728 91.9993 17.5752C91.8644 17.5905 91.7078 17.6082 91.5345 17.6143C91.3432 17.6211 91.1313 17.6139 90.897 17.5761C90.6347 17.5337 90.3443 17.4529 90.0246 17.3107C89.866 17.2402 89.7133 17.1738 89.5649 17.1092C89.135 16.922 88.7426 16.7498 88.3619 16.5333C88.1372 16.4058 87.9181 16.2632 87.696 16.093C87.6142 16.0301 87.5371 15.9606 87.4545 15.887C87.2098 15.6693 86.9169 15.4078 86.3242 15.1508C86.2341 15.1117 86.1371 15.073 86.0323 15.0351C85.4599 14.8335 84.7586 14.6536 83.645 14.5705C83.0607 14.5291 82.3256 14.4873 81.536 14.4508C81.2096 14.4359 80.8695 14.3881 80.5174 14.3269C80.3581 14.2993 80.1966 14.269 80.0322 14.2377C79.8306 14.1993 79.6252 14.1605 79.4157 14.1225C78.8346 14.0172 78.2085 13.9224 77.5159 13.9011C77.2963 13.8943 77.0698 13.895 76.8362 13.9052C75.8335 13.9486 75.1197 14.0785 74.5325 14.2073C74.4275 14.2304 74.3266 14.2533 74.229 14.2757C74.2068 14.281 74.1845 14.2864 74.1623 14.2918C74.1347 14.2981 74.1074 14.3044 74.0803 14.3106C73.3983 14.4661 72.5042 14.4581 71.724 14.2237C71.418 14.1318 71.1288 14.0048 70.8716 13.8373C70.2978 13.4638 69.8125 13.2592 69.195 13.0275C69.1779 13.0211 69.1606 13.015 69.1433 13.0093C68.8535 12.9138 68.5302 12.9099 68.0564 12.9132C67.9166 12.9143 67.7685 12.9156 67.6031 12.9166C67.3148 12.9185 66.9743 12.9158 66.5423 12.9006C65.9243 12.8804 65.1797 12.8251 64.2655 12.7012C64.1223 12.6817 63.9749 12.6606 63.8231 12.6377C63.3439 12.5653 62.9128 12.5411 62.5099 12.5187C62.3848 12.5117 62.262 12.5046 62.1417 12.4965C62.0904 12.4931 62.0394 12.4894 61.9887 12.4854C61.5455 12.4502 61.1299 12.3883 60.7398 12.2142C60.5268 12.1191 60.1597 11.9838 59.7119 11.858C59.4083 11.7728 59.0677 11.6919 58.7128 11.6308C58.2875 11.5576 57.8497 11.5143 57.4351 11.5229C56.987 11.5322 56.566 11.6021 56.2173 11.7603C56.1475 11.792 56.0771 11.8233 56.0068 11.8548C55.722 11.9826 55.4346 12.1115 55.1582 12.2601C54.8471 12.4276 54.5501 12.62 54.2868 12.864C53.8737 13.4008 53.3985 13.8002 52.8814 14.0936C51.3508 14.9507 49.3732 14.8793 47.6319 14.6675C46.7434 14.5608 45.8982 14.4192 45.1583 14.3481C45.1228 14.3447 45.0873 14.3412 45.0518 14.3377C44.1006 14.2461 43.2319 14.1745 42.4617 14.1193C40.7053 13.993 39.4609 13.9536 38.9299 13.9377C38.8943 13.9366 38.8618 13.9357 38.8327 13.9347C38.8067 13.9339 38.7832 13.9337 38.7625 13.933C38.4516 13.9223 38.1755 13.9442 37.8864 13.9671C37.8707 13.9684 37.8549 13.9696 37.8391 13.9709C37.679 13.9835 37.5148 13.9957 37.3407 14.0017C37.1827 14.0072 37.0166 14.0075 36.8378 13.9984C35.4404 13.9271 34.3054 13.9231 33.3257 13.9302C33.1444 13.9315 32.9682 13.9323 32.7965 13.934C32.796 13.934 32.7955 13.934 32.795 13.934C32.6185 13.9358 32.447 13.9376 32.2795 13.9391C31.7314 13.9441 31.2278 13.9454 30.7451 13.929C29.5965 13.8902 28.8226 13.928 28.2212 13.9763C28.0326 13.9915 27.8588 14.0077 27.6951 14.0234C27.5499 14.0374 27.4122 14.0507 27.2785 14.062C27.0861 14.0783 26.9019 14.0904 26.7148 14.0942C26.1178 14.1062 25.5681 14.1616 25.0305 14.2174C24.9828 14.2224 24.9352 14.2268 24.8877 14.2318C24.3087 14.2924 23.7413 14.3503 23.1287 14.3493C22.9868 14.349 22.8688 14.1361 22.8662 13.8746C22.8638 13.6134 22.9779 13.4016 23.1205 13.4018C23.718 13.4028 24.2755 13.3469 24.8574 13.2863C24.9054 13.2813 24.9537 13.2757 25.0021 13.2707C25.5404 13.215 26.1024 13.1599 26.7127 13.1477C26.9085 13.1438 27.0984 13.1308 27.3006 13.1132C27.4157 13.1031 27.5347 13.0917 27.6609 13.0796C27.8271 13.0636 28.0061 13.0465 28.2056 13.0305C28.8181 12.9814 29.6046 12.9426 30.767 12.9818C31.2525 12.9983 31.7589 12.9971 32.3152 12.9922C32.474 12.9908 32.6366 12.9891 32.8042 12.9874C32.9773 12.9856 33.1554 12.9839 33.3392 12.9826C34.3227 12.9755 35.4646 12.9798 36.87 13.0515C37.0515 13.0607 37.2196 13.0598 37.381 13.0535C37.5355 13.0474 37.6839 13.0364 37.8325 13.0247C37.8496 13.0235 37.8666 13.0223 37.8837 13.021C38.1701 12.9983 38.4615 12.9746 38.7898 12.9859C38.8336 12.9874 38.8896 12.9897 38.957 12.9917C39.4886 13.0077 40.7372 13.0469 42.4974 13.1735C43.269 13.2287 44.1389 13.3004 45.0908 13.3923C45.1005 13.3934 45.1102 13.3944 45.1199 13.3955C46.1641 13.4962 46.9852 13.5706 47.6572 13.5935C48.3324 13.6163 48.8578 13.5871 49.3098 13.4776C50.0204 13.305 50.5571 13.2641 50.9959 13.2457C51.0794 13.2422 51.1585 13.2388 51.2338 13.2362C51.5592 13.2248 51.8156 13.215 52.0706 13.1505C52.368 13.0752 52.6317 12.9803 52.8814 12.8571C53.2738 12.661 53.6331 12.3945 54.0353 12.0216C54.3784 11.7037 54.7692 11.466 55.1582 11.268C55.3987 11.1456 55.6385 11.0383 55.866 10.9366C55.8669 10.9362 55.8678 10.9358 55.8687 10.9354C55.9393 10.9038 56.0089 10.8729 56.0769 10.8421ZM95.6438 16.1981C95.8033 16.222 95.9126 16.4508 95.8867 16.7107C95.8606 16.9707 95.706 17.1631 95.5432 17.139C95.1557 17.0812 94.7731 17.0197 94.3944 16.9553C94.2357 16.9283 94.1352 16.6964 94.1691 16.4375C94.2033 16.1785 94.3571 15.9901 94.5132 16.0166C94.8865 16.0803 95.2631 16.1411 95.6438 16.1981ZM55.466 6.13191C55.6089 6.07893 55.7512 6.24452 55.7837 6.5006C55.816 6.75647 55.7263 7.00654 55.5835 7.05947C55.508 7.08748 55.3839 7.13812 55.2168 7.20648C55.1979 7.21425 55.1783 7.22225 55.1582 7.23047C54.6771 7.42728 53.8817 7.75031 52.8814 8.09649C51.4868 8.58055 49.6714 9.08991 47.7574 9.33725C47.4727 9.37411 47.1861 9.40528 46.8981 9.42985C46.5889 9.45623 46.312 9.4826 46.0481 9.50762C45.0642 9.60044 44.2336 10.1014 42.6115 10.1554C42.3736 10.1633 42.1187 10.1614 41.844 10.1472C40.3977 10.0722 38.9559 9.96442 37.5177 9.84177C35.825 9.69742 34.1371 9.53243 32.4515 9.37564C30.7652 9.21879 29.0812 9.07016 27.3977 8.95836C25.7105 8.84649 24.0376 8.77161 22.3481 8.76171C21.1171 8.75473 19.9094 8.80517 18.6792 8.90997C17.489 9.01176 16.3002 9.16448 15.1138 9.36753C15.0775 9.37375 15.0412 9.37993 15.0049 9.38608C13.7808 9.59373 12.5539 9.76912 11.3208 9.92226C10.0883 10.0753 8.84976 10.2063 7.60359 10.3254C7.54722 10.3308 7.49086 10.3362 7.4345 10.3415C6.46364 10.4334 5.11598 10.4676 3.83722 10.4743C2.27725 10.4839 0.822941 10.4449 0.303131 10.457C0.154895 10.4608 0.0203077 10.2519 0.00204137 9.99111C-0.0161613 9.73049 0.0878086 9.51698 0.234866 9.51326C0.748631 9.50145 2.19387 9.54144 3.74748 9.53248C5.01495 9.52627 6.35219 9.49246 7.31694 9.40119C7.38079 9.39514 7.44465 9.38906 7.50852 9.38294C8.7548 9.26364 9.99517 9.13238 11.2312 8.97863C12.4677 8.82484 13.6998 8.64845 14.9312 8.43931C14.9553 8.43522 14.9794 8.43112 15.0035 8.42701C16.2093 8.22104 17.4179 8.04497 18.6314 7.9053C19.8683 7.76311 21.1037 7.65868 22.348 7.60255C24.0426 7.5266 25.735 7.49733 27.4317 7.50195C29.127 7.50654 30.8227 7.54494 32.5182 7.6038C34.2135 7.66265 35.9085 7.74193 37.6033 7.82808C39.0481 7.90152 40.4928 7.97995 41.9378 8.05494C42.2077 8.06895 42.4569 8.08929 42.6887 8.11392C44.2766 8.28218 45.0481 8.65508 46.0271 8.5627C46.2909 8.53764 46.5685 8.51056 46.8795 8.48396C47.1815 8.45813 47.4817 8.42494 47.7798 8.38544C49.6976 8.13207 51.5007 7.61354 52.8814 7.12802C53.8547 6.78751 54.6242 6.47287 55.0844 6.28475C55.11 6.27431 55.1346 6.26425 55.1582 6.25459C55.294 6.19917 55.398 6.15713 55.466 6.13191ZM62.2776 6.52744C62.8662 6.50166 63.5441 6.50168 64.2655 6.5175C64.9957 6.53351 65.7705 6.5657 66.5423 6.6037C67.1345 6.6323 67.7432 6.67757 68.3195 6.73148C68.7409 6.77087 69.1481 6.8148 69.5336 6.85906C70.0772 6.92147 70.5779 6.98454 71.0141 7.03595C71.595 7.10458 72.0601 7.21856 72.4663 7.35257C72.8679 7.48529 73.2116 7.63795 73.5526 7.79126C73.56 7.79449 73.5674 7.79772 73.5747 7.80095C74.0837 8.0301 74.5898 8.25996 75.2863 8.43975C75.5272 8.50196 75.7909 8.55821 76.0854 8.60638C76.6794 8.70341 77.3976 8.76796 78.1773 8.81252C78.9138 8.85452 79.7051 8.87816 80.4977 8.89159C80.499 8.89173 80.5003 8.89187 80.5015 8.89201C80.6989 8.89538 80.8968 8.89104 81.0949 8.88097C82.1306 8.82941 83.1384 8.61642 84.0113 8.52666C84.3607 8.4925 84.6896 8.48479 84.9903 8.51848C85.6239 8.58946 86.2077 8.68022 86.7564 8.78364C87.7729 8.9758 88.6546 9.20895 89.4191 9.44806C90.4982 9.78699 91.3437 10.1371 91.9953 10.449C92.3118 10.6008 92.5821 10.7442 92.8094 10.8754C93.3599 11.1934 93.9541 11.3831 94.5699 11.5088C95.4472 11.6879 96.364 11.736 97.2698 11.8431C98.1651 11.9492 99.0469 12.1128 99.9208 12.529C100.188 12.7786 99.7342 13.5022 99.2389 13.284C99.2211 13.2778 99.2034 13.2716 99.1856 13.2654C99.0168 13.2071 98.8705 13.1589 98.6627 13.1155C98.3629 13.075 98.1377 13.0616 97.9343 13.0489C97.8176 13.0415 97.5467 13.0172 97.1861 12.9718C96.4717 12.8839 95.4054 12.7023 94.4492 12.4511C93.6802 12.2508 92.9803 12.012 92.5685 11.7749C92.367 11.659 92.1229 11.5664 91.8352 11.4882C91.1782 11.3103 90.2933 11.2041 89.1754 11.0815C88.4027 10.9976 87.5204 10.9067 86.5232 10.7968C85.9872 10.7379 85.4149 10.6737 84.8145 10.6054C84.5335 10.5735 84.227 10.5127 83.8952 10.4425C83.8951 10.4425 83.8952 10.4425 83.8951 10.4425C83.0261 10.2611 82.0239 9.96741 80.9902 9.86847C80.8047 9.85082 80.6182 9.83948 80.4299 9.83616C80.4254 9.83605 80.4209 9.83593 80.4164 9.83582C79.6128 9.82167 78.8062 9.79721 78.055 9.7536C77.2771 9.70836 76.5587 9.64319 75.9621 9.54572C75.6688 9.49773 75.4049 9.44179 75.1634 9.38007C74.4289 9.19242 73.9007 8.95112 73.3825 8.71686C73.3758 8.71371 73.3691 8.71057 73.3624 8.70743C73.0424 8.56292 72.7259 8.42169 72.3641 8.29827C71.9639 8.16197 71.5084 8.04698 70.9323 7.97864C70.4987 7.92734 70.0055 7.86557 69.4736 7.80452C69.0841 7.75982 68.6737 7.71551 68.25 7.67571C67.6958 7.62356 67.1173 7.57953 66.5424 7.55119C65.7695 7.51279 64.995 7.48018 64.2655 7.46402C63.5531 7.44824 62.8837 7.44815 62.301 7.47367C62.1547 7.47995 62.0307 7.27298 62.0242 7.01164C62.0179 6.75042 62.1314 6.53392 62.2776 6.52744ZM62.3113 0.629529C62.9623 0.480861 63.6138 0.359169 64.2655 0.262948C65.0244 0.150904 65.7835 0.0733944 66.5423 0.0280379C67.6102 -0.0322023 68.8922 0.00741948 69.9613 0.119621C71.0752 0.233011 72.153 0.422893 73.1883 0.669268C74.2292 0.917028 75.2271 1.2217 76.1848 1.56505C76.4387 1.65607 76.6898 1.74983 76.9384 1.84603C77.5496 1.94561 78.2733 2.072 79.0362 2.20508C79.7481 2.32919 80.4942 2.45861 81.2241 2.57677C81.2412 2.57987 81.2583 2.58296 81.2753 2.58604C81.4362 2.61199 81.5957 2.63733 81.7544 2.66203C82.7198 2.81069 83.526 2.92391 84.3458 3.00744C84.7235 3.04373 85.0942 3.08229 85.4433 3.12024C86.1665 3.19861 86.7867 3.28282 87.3831 3.37316C88.4938 3.54257 89.4395 3.72553 90.2462 3.90531C91.3806 4.15961 92.2402 4.40719 92.8877 4.6582C93.2147 4.78535 93.487 4.9141 93.7105 5.04785C94.595 5.5779 94.9508 5.69194 95.3069 5.7521C95.3799 5.76428 95.4527 5.77398 95.5296 5.78409C95.5418 5.78601 95.554 5.78791 95.5663 5.78982C95.5672 5.78915 95.5681 5.78847 95.569 5.7878C95.586 5.77763 95.5997 5.7723 95.6067 5.77012C95.621 5.76566 95.6324 5.76474 95.6366 5.76437C95.6464 5.76354 95.6544 5.76437 95.6573 5.76455C95.669 5.76529 95.6823 5.76709 95.6909 5.76863C95.77 5.78308 96.0169 5.84131 96.2082 5.90159C96.405 5.96356 96.5422 6.02955 96.6866 6.10105C96.7012 6.10837 96.7159 6.11569 96.7305 6.123C96.8611 6.18751 97.0022 6.25722 97.2082 6.33606C97.3336 6.38412 97.405 6.6302 97.3685 6.88694C97.3319 7.14345 97.1975 7.31272 97.0687 7.26434C96.8471 7.18065 96.6926 7.10572 96.5587 7.04038C96.5439 7.03302 96.5291 7.02566 96.5142 7.01828C96.3732 6.9493 96.2484 6.8918 96.0706 6.83601C95.8107 6.7775 95.6135 6.7517 95.4332 6.72797C95.349 6.71687 95.2684 6.70606 95.1866 6.69217C94.8063 6.6269 94.4032 6.49983 93.4749 5.947C93.275 5.828 93.0325 5.71247 92.7429 5.59785C92.1095 5.348 91.2532 5.0994 90.1065 4.84159C89.3113 4.66392 88.3762 4.48203 87.2742 4.31321C86.6891 4.22415 86.0773 4.14077 85.3703 4.06366C85.028 4.02623 84.6629 3.988 84.2886 3.95191C84.2885 3.95191 84.2885 3.95191 84.2885 3.95191C83.4612 3.86805 82.627 3.7525 81.6546 3.60304C81.4935 3.57807 81.3318 3.55247 81.1689 3.52627C81.1512 3.5235 81.1334 3.52072 81.1156 3.51794C80.3781 3.39891 79.6276 3.26865 78.9141 3.14406C78.1482 3.01023 77.4247 2.88354 76.8154 2.78423C76.5589 2.74239 76.3009 2.70243 76.0412 2.66425C75.0548 2.51925 74.0445 2.39989 73.0119 2.3017C71.9754 2.20315 70.9169 2.12603 69.8377 2.06603C68.7902 2.0067 67.589 1.96171 66.5423 1.9325C65.7852 1.90857 65.0265 1.86757 64.2655 1.80145C63.6239 1.7457 62.9806 1.67208 62.335 1.57576C62.2182 1.58088 62.1028 1.58557 61.9887 1.58989C61.2722 1.61702 60.6085 1.62955 59.9873 1.6411C59.8946 1.64282 59.8028 1.64453 59.7119 1.64627C58.8867 1.66204 58.1365 1.68029 57.4351 1.73566C56.6244 1.79966 55.8789 1.91323 55.1582 2.12987C55.0016 2.17697 54.8461 2.22893 54.6913 2.28631C54.4179 2.38772 53.7878 2.47681 52.8814 2.57717C52.6643 2.60156 52.4319 2.62621 52.1856 2.65131C51.8165 2.68895 51.4137 2.72725 50.9807 2.76771C50.0988 2.85051 49.0597 2.93953 47.9055 3.04062C47.6754 3.06075 47.4406 3.08137 47.201 3.10253C46.8986 3.12923 46.6273 3.15588 46.3687 3.18117C45.3735 3.27775 44.5654 3.35533 42.871 3.29146C42.6806 3.28421 42.4788 3.27514 42.2643 3.26403C41.0411 3.20098 39.4283 3.07322 37.8119 2.92637C35.9772 2.75951 34.1367 2.57145 32.8741 2.42795C32.8197 2.42173 32.7663 2.41558 32.7139 2.40949C31.6237 2.2828 30.9896 2.18238 30.5354 2.10088C30.4027 2.07713 30.2861 2.05458 30.1789 2.03452C29.8993 1.98215 29.6818 1.94213 29.3957 1.9113C28.7417 1.84089 28.1475 1.80153 27.5653 1.78677C26.3143 1.75577 25.1183 1.83499 23.4763 1.98218C23.3265 1.9957 23.1972 1.79488 23.1866 1.53385C23.1761 1.27278 23.2887 1.04948 23.4392 1.03572C25.0972 0.887577 26.3124 0.807461 27.5874 0.839779C28.1753 0.855014 28.7763 0.894873 29.4369 0.965871C29.7364 0.998083 29.9698 1.04154 30.2552 1.09491C30.361 1.1147 30.474 1.13605 30.6001 1.1586C31.046 1.23849 31.6715 1.3376 32.7496 1.46296C32.806 1.46952 32.8636 1.47616 32.9224 1.48287C34.1841 1.62613 36.0221 1.81372 37.8521 1.9801C39.4669 2.12675 41.0762 2.25425 42.2947 2.3171C42.5115 2.32833 42.715 2.33748 42.9068 2.34476C44.5716 2.40735 45.3619 2.33219 46.3483 2.23628C46.6067 2.21097 46.8784 2.18358 47.1826 2.15666C47.4364 2.13419 47.6848 2.11231 47.9279 2.09097C49.0626 1.9912 50.0868 1.90289 50.9526 1.82114C51.3824 1.78079 51.7819 1.74233 52.148 1.70493C52.4111 1.67803 52.6561 1.65187 52.8814 1.62631C53.7668 1.52761 54.3425 1.44452 54.5738 1.35875C54.7671 1.28708 54.9617 1.22359 55.1582 1.16727C55.8807 0.960237 56.6296 0.850125 57.4351 0.7874C58.1433 0.732246 58.8954 0.713728 59.7119 0.698172C59.8118 0.696268 59.9126 0.694409 60.0145 0.692533C60.6328 0.681144 61.2881 0.669212 61.9887 0.642684C62.0952 0.638653 62.2027 0.634284 62.3113 0.629529ZM14.6562 2.10191C14.8059 2.07706 14.9517 2.26817 14.9817 2.52778C15.0117 2.78735 14.9155 3.01767 14.7668 3.04244C14.6801 3.0569 14.596 3.07107 14.5145 3.08495C13.859 3.19678 13.3729 3.28888 12.9838 3.36327C12.1754 3.51858 11.7872 3.59612 11.1996 3.64347C11.0417 3.65628 10.8844 3.66926 10.7279 3.68236C9.39539 3.794 8.12158 3.91439 6.96789 4.02356C6.957 4.02459 6.94611 4.02562 6.93524 4.02665C5.47337 4.16541 4.20519 4.28422 3.25416 4.3549C2.80326 4.38854 2.42214 4.41184 2.12682 4.42264C1.98247 4.42791 1.84817 4.22058 1.82627 3.96014C1.80455 3.69993 1.90271 3.4852 2.04626 3.47983C2.33885 3.46918 2.71676 3.44617 3.1644 3.41285C4.10586 3.34305 5.36275 3.2256 6.81778 3.08747C6.83614 3.08573 6.85452 3.08399 6.87294 3.08224C8.02492 2.9732 9.29962 2.8517 10.6382 2.73933C10.7928 2.72636 10.9483 2.71351 11.1044 2.70084C11.6762 2.65473 12.0439 2.58214 12.8375 2.42966C13.2365 2.3534 13.7427 2.2567 14.4408 2.13809C14.5107 2.12623 14.5824 2.11417 14.6562 2.10191Z" fill="#FBEF29"/>
</svg>
