<svg width="34" height="34" viewBox="0 0 34 34" fill="none" xmlns="http://www.w3.org/2000/svg">
<path d="M24.6597 33.9998C24.3546 34.0092 24.2865 33.6483 24.3267 33.2717C24.3386 33.1544 24.6487 32.8591 24.6698 32.7638C24.7106 32.5779 24.5065 32.6763 24.5693 32.4675C24.5916 32.3967 25.07 31.9176 25.083 31.855C25.1513 31.5155 24.9131 31.5336 24.8766 31.3083C24.6979 30.1977 24.23 29.4371 23.7809 28.6189C23.6323 28.3495 23.7808 27.6576 23.3786 27.6563C23.3312 27.6566 22.9495 28.1114 22.9118 28.1433C22.333 28.6295 23.1607 27.7629 23.2166 27.599C23.4363 26.9511 23.2499 26.7093 22.9033 26.705C22.9012 26.705 22.899 26.7052 22.8967 26.7056C22.7349 26.7311 22.0526 27.6457 22.4079 27.088C22.4321 27.0496 22.8752 26.6007 22.8977 26.5305C22.9479 26.3722 22.7755 26.3683 22.7694 26.2955C22.7597 26.1528 22.7428 26.1461 22.6755 26.0757C22.5871 25.9752 22.6799 25.6369 22.4785 25.6473C22.4342 25.6509 22.031 26.1572 21.9213 26.2062C21.8117 26.255 21.7531 26.1282 21.823 25.9862C21.8931 25.8442 22.2472 25.4799 22.3195 25.3884C22.9314 24.6175 21.909 25.5271 21.8722 25.5392C21.2292 25.7305 21.5274 24.9553 21.2835 24.7376C21.0972 24.5736 20.7288 24.5851 20.5773 24.4007C20.3985 24.1791 20.4567 23.7596 20.2139 23.6209C20.1887 23.6057 19.704 24.1913 19.6723 24.1739C19.3357 23.9883 19.116 23.6777 19.1842 23.0478C19.1915 22.9842 19.6748 22.5222 19.7088 22.429C19.9074 21.8696 20.523 20.6511 18.474 22.7124C18.4355 22.5246 18.375 22.3118 18.6652 21.7851C18.8249 21.495 19.2518 21.1013 19.1906 21.0916C19.1802 21.09 19.156 21.0993 19.1143 21.1219C19.0496 21.1565 18.6465 21.6497 18.5819 21.666C18.3099 21.734 18.3223 21.4663 17.9874 21.6065C17.9183 21.6362 17.5422 22.0646 17.4668 22.1348C16.8537 22.7011 17.6834 21.5987 17.7303 21.5064C18.0767 20.8157 17.7683 20.9319 17.6378 20.7894C17.6078 20.7561 17.1334 21.3594 17.086 21.3478C16.8473 21.2799 16.7204 21.0765 16.7865 20.6783C16.8024 20.5884 17.2727 20.1343 17.3027 20.0666C17.4295 19.7737 16.5869 20.6727 16.6927 20.4095C16.7139 20.3552 17.0968 19.9486 17.1351 19.9006C17.7365 19.1467 16.7843 20.1246 16.7528 20.1368C16.3348 20.3136 17.1978 19.1745 16.9251 19.2C16.8915 19.2041 16.4553 19.7621 16.3899 19.7416C15.951 19.6083 15.7552 19.1704 15.8279 18.4756C15.8386 18.3683 16.2276 18.0044 16.2684 17.9531C16.9036 17.1495 15.9557 18.139 15.9057 18.1634C15.5352 18.3295 16.1892 17.3728 15.0153 18.5111C14.904 17.8 14.1563 17.8008 14.1039 17.0292C14.091 16.8392 14.1201 16.6022 14.2111 16.2961C14.2159 16.2776 14.6774 15.7855 14.685 15.7508C14.7803 15.3279 14.1114 16.1361 13.1529 16.999C12.9122 17.2157 13.8643 15.9905 13.9329 15.8996C14.1858 15.5648 14.8813 14.8404 14.9266 14.7723C15.279 14.2344 13.0791 16.7195 12.9826 16.6347C12.9833 16.6279 13.4029 16.1836 13.4353 16.1311C13.5373 15.9665 13.3508 16.1254 13.4663 15.9467C13.7344 15.5337 14.7883 14.3128 14.0775 14.9364C13.9855 15.0176 12.7486 16.4369 12.7222 16.2941C12.7127 16.236 12.5401 16.1253 12.5789 15.9965C12.6176 15.8678 13.0503 15.4408 13.0648 15.4185C13.4843 14.7178 13.7487 14.5082 14.4814 13.5703C15.2109 12.6356 13.3499 14.7571 13.1171 14.9715C12.8849 15.1853 13.2412 14.6164 13.3735 14.4261C13.506 14.2358 13.788 13.9708 13.8562 13.8572C14.3003 13.1131 12.8718 14.8561 12.5341 15.1552C11.7351 15.8639 13.0524 14.2348 13.1021 14.0045C13.1154 13.9423 12.8179 14.3156 12.7675 14.3304C12.5721 14.3845 12.956 13.8521 12.4647 14.2166C12.3845 14.2759 11.4737 15.1499 12.0374 14.4156C12.1188 14.3098 12.4846 13.9372 12.527 13.8186C12.5908 13.6408 12.5716 13.4715 12.3995 13.5519C12.2722 13.6115 11.7502 14.2971 11.8748 14.0508C11.9305 13.9409 12.3071 13.6029 12.3839 13.4278C12.4609 13.2529 12.3346 13.1706 12.2806 13.1461C12.2264 13.1218 11.8177 13.6306 11.7852 13.6604C11.5978 13.8305 11.3083 13.9941 11.3017 13.9872C10.8874 13.7271 11.2795 12.6079 10.6853 12.5697C10.6393 12.5661 10.2039 13.0986 10.1923 13.1033C9.90723 13.2362 11.1887 11.9293 11.5259 11.4114C10.6148 12.4677 10.7423 12.2435 10.5744 12.2996C10.4927 12.3275 10.1539 12.7488 10.1145 12.7877C9.52544 13.3623 10.1913 12.5368 10.3256 12.3663C10.8199 11.7392 10.164 12.4171 10.4939 11.9975C10.8211 11.5809 11.388 11.035 11.3169 10.986C10.9697 11.3456 10.157 12.3684 9.96878 12.4847C9.67608 12.6658 9.56014 12.5913 9.51941 12.4261C9.4612 12.1899 9.55657 11.7681 9.51049 11.6448C9.43246 11.4356 9.3241 11.4634 9.35642 11.2521C9.41488 10.8703 8.83599 11.65 8.44842 11.9001C8.0607 12.15 9.67154 10.3941 9.99377 9.99569C10.316 9.59759 9.95513 9.982 10.1227 9.75483C10.2903 9.52774 10.5558 9.29723 10.5849 9.18257C10.6139 9.06789 9.90649 9.65953 9.54117 10.0514C8.76715 10.8817 8.03557 11.8232 8.20427 11.4156C8.21446 11.3916 8.6449 10.9358 8.6631 10.8678C8.79404 10.3429 8.62087 10.1532 8.71428 9.67015C8.72775 9.60296 9.20642 9.0957 9.21939 9.05062C9.35577 8.57935 8.64274 9.51602 7.70492 10.4306C8.85933 9.13261 9.507 8.28783 9.39552 8.1781C9.32897 8.11173 8.84571 8.6967 8.45082 9.06216C8.33187 9.17241 8.62185 8.73469 8.37988 8.99712C7.58877 9.85483 6.78365 10.8843 7.0022 10.3865C7.01301 10.3632 7.44642 9.89402 7.45331 9.84893C7.49973 9.55501 6.68998 10.4675 6.46594 10.4697C6.29031 10.4716 6.59633 9.75402 6.5604 9.56397C7.83343 8.08318 7.43353 8.32942 6.51431 9.3149C6.47577 9.20937 6.34599 9.19856 6.39491 8.9956C6.41135 8.9262 6.79481 8.51018 6.83136 8.46106C7.40564 7.69129 6.5226 8.65974 6.47324 8.68513C5.97515 8.91632 6.47648 8.03923 5.68127 8.63668C5.6527 8.65825 4.76472 9.68372 5.36167 8.89128C5.40296 8.83678 5.85764 8.41324 5.81016 8.31028C5.76291 8.20736 6.08503 7.52703 5.56957 7.91416C5.44526 8.00718 4.66729 8.79133 5.16958 8.08933C5.23791 7.9941 5.49699 7.7037 5.62649 7.52971C6.03856 6.97478 5.13511 8.00632 5.84788 7.08368C6.41863 6.34479 6.84053 5.72565 6.66261 5.77559C6.61839 5.78802 6.53708 5.84185 6.41181 5.94556C6.39319 5.96041 5.66634 6.76895 5.64272 6.72655C5.60556 6.65812 5.6726 6.4186 5.61001 6.37518C5.5798 6.35469 5.16309 6.88593 5.15032 6.89131C4.72065 7.02395 4.97518 6.45215 4.94241 6.08409C4.93714 6.01549 4.24132 6.63302 4.63697 6.01559C5.06948 5.33921 7.27456 2.8647 6.58688 3.31869C6.31062 3.49929 3.52815 6.6513 4.79131 4.86963C4.19315 5.07379 4.66948 4.021 3.9231 4.40365C3.88985 4.42045 3.1066 5.29485 3.08998 5.26042C3.0667 5.20752 3.39376 4.76662 3.3882 4.71522C3.37365 4.48913 2.96598 4.76103 2.89713 4.60997C2.87018 4.55351 3.24545 4.12818 3.2132 4.06068C3.18058 3.99357 2.67219 4.54196 2.83005 4.20518C2.95092 3.94891 3.86427 2.72481 3.90516 2.52845C2.94907 3.69068 2.91976 3.6266 2.58141 3.86313C2.51593 3.90916 2.20231 4.32933 2.15425 4.37203C1.95137 4.55488 2.19636 4.19445 1.98001 4.39719C1.92795 4.44581 1.60254 4.84362 1.54166 4.90585C1.01178 5.45033 1.65815 4.48568 1.77061 4.31766C2.1977 3.67955 1.74927 4.17642 1.89651 3.9081C2.04364 3.63975 2.34539 3.4002 2.4105 3.21768C2.54483 2.83987 2.3583 2.79526 2.26717 2.69097C2.2288 2.65181 1.82562 3.20813 1.81009 3.21489C1.61344 3.27946 1.98397 2.64053 1.07624 3.66394C3.23734 0.867413 0.808089 3.88782 1.12828 3.23723C1.15444 3.18483 2.1912 1.87434 2.38333 1.71418C2.57536 1.55423 2.30473 2.00705 2.59782 1.75229C2.66661 1.6925 3.72322 0.533329 3.79286 0.467679C4.33647 -0.0459496 2.77552 1.90303 2.69317 2.01281C1.80701 3.19966 2.95629 1.95993 3.05297 1.8883C3.49489 1.55914 3.36293 1.90442 3.69157 1.6804C3.90467 1.53619 4.94338 0.272742 4.95735 0.348708C5.00473 0.60083 3.61316 2.41026 5.00724 0.994629C5.30482 0.692927 6.40662 -0.715397 5.62597 0.462165C5.57686 0.536485 4.84288 1.59755 5.40529 1.00684C5.4762 0.932355 5.80636 0.529341 5.84189 0.501875C6.07359 0.325768 5.84506 0.67515 6.02795 0.568108C6.21083 0.461072 6.46741 0.288363 6.42 0.478183C6.392 0.591977 5.82502 1.38252 5.69248 1.58122C5.30962 2.15279 6.07983 1.33305 5.58493 1.99947C5.08736 2.66909 4.21871 3.59278 3.96119 4.07822C4.82587 3.03684 5.71747 1.97133 6.58913 0.925746C6.74807 1.11873 6.65454 1.60948 6.88156 1.72016C6.91059 1.73286 7.35133 1.15299 7.39448 1.15222C7.57465 1.15153 7.33569 1.62745 7.57768 1.5601C7.76678 1.50584 8.35349 0.991859 8.56715 0.917349C7.62917 2.15192 8.09767 1.85814 8.10263 2.04686C8.10476 2.11241 7.83702 2.42777 7.77417 2.55116C7.54337 3.00889 8.38016 1.92438 8.54311 1.77988C9.23956 1.1641 7.25839 3.54585 7.4311 3.59086C7.43947 3.59396 8.5818 2.39682 8.65919 2.32753C9.16113 1.87342 8.30109 2.77738 8.26664 2.90782C8.20359 3.14611 8.00528 3.49465 8.41097 3.20393C8.53062 3.1174 9.26003 2.38604 8.80023 3.03974C8.74004 3.12535 8.38426 3.53935 8.36929 3.56853C8.26104 3.78961 8.42389 3.64878 8.6757 3.39059C8.98578 3.07264 9.43071 2.57667 9.66988 2.35908C10.1033 1.96502 9.42959 2.94579 9.22745 3.22174C8.70533 3.93629 8.9471 3.47872 8.88856 3.54266C8.19252 4.30417 8.37265 4.22403 8.3664 4.33285C7.28744 5.6228 7.42215 5.60458 8.36427 4.44049C8.46704 4.31323 8.32682 4.4 8.3664 4.33285C9.47595 3.11034 9.69045 3.01505 8.77852 4.2633C8.35098 4.84824 7.76863 5.45912 8.08821 5.32601C8.23278 5.2662 8.96093 4.36545 9.2136 4.16585C9.79051 3.71078 9.23459 4.65591 9.45837 4.62294C9.53969 4.61105 9.91045 4.09425 9.98023 4.06953C10.1668 4.00252 9.92438 4.42077 10.1577 4.29959C10.1794 4.28801 10.5933 3.76903 10.6223 3.7826C10.8501 3.87575 10.7285 4.3309 10.9057 4.49822C10.9915 4.57881 11.3895 4.43811 11.4342 4.57346C11.5142 4.80513 11.0814 5.70563 11.3706 5.64551C11.5576 5.60856 11.9715 5.08921 12.3051 4.7798C12.9516 4.17999 12.0562 5.4811 11.9145 5.68001C11.9098 5.68655 11.731 5.73886 11.5491 6.03191C11.1088 6.5895 11.9116 5.68158 11.9145 5.68001C11.8234 5.8088 11.8775 6.05476 11.9908 5.98507C12.0527 5.94689 12.4549 5.46346 12.4794 5.45255C13.0521 5.20406 13.3622 5.26142 13.3765 5.66333C13.3718 5.67608 12.905 6.20218 12.8997 6.22554C12.8142 6.56552 13.4553 5.98289 13.8896 5.68378C14.3238 5.38478 14.2901 5.58232 13.5549 6.54317C13.7293 6.49346 13.485 6.98873 13.3331 7.28611C13.1812 7.58347 14.0905 6.55998 14.1137 6.54433C14.6551 6.174 14.5749 6.43833 14.5304 6.70191C14.5143 6.79786 14.5029 6.89373 14.528 6.95898C14.5711 7.07699 14.8664 7.07182 15.0549 7.03811C15.2054 7.00974 15.0364 7.2883 15.2371 7.19156C15.264 7.17874 15.6574 6.71299 15.6756 6.69774C16.2301 6.21408 15.2112 7.30255 15.0506 7.51567C14.4661 8.29051 14.1592 8.70697 14.5529 8.44694C14.6431 8.38745 16.1233 6.83189 16.2456 6.77237C16.4019 6.69785 15.8743 7.25806 16.0508 7.16529C16.0655 7.15788 16.3782 6.801 16.3973 6.84577C16.4904 7.04889 16.4744 7.40292 16.6646 7.50746C16.6894 7.52312 17.1598 6.9345 17.2038 6.94786C17.4101 7.01103 17.553 7.1746 17.4626 7.56505C17.4387 7.66292 17.0673 8.03787 16.9712 8.16178C16.3904 8.91196 17.3689 7.94112 17.3973 7.93128C18.0977 7.66874 17.4714 8.77734 18.131 8.57069C18.1685 8.55747 19.2602 7.55497 18.4694 8.54411C18.4169 8.61004 17.6059 9.62031 18.2374 8.99816C18.2769 8.95922 18.6891 8.43438 18.6975 8.53272C18.7059 8.6309 19.0879 8.37546 18.6746 8.98736C18.5445 9.18027 17.7406 10.1926 18.4944 9.48639C18.5466 9.43669 20.2022 7.79606 19.172 9.02797C19.0023 9.23067 17.8651 10.4923 18.5275 9.9162C18.6557 9.80432 18.8793 9.49607 19.0784 9.3567C19.385 9.14162 19.1664 9.55635 19.7488 9.06205C19.8517 8.97433 20.6781 8.16671 20.1418 8.86092C20.0578 8.96964 19.666 9.38005 19.6484 9.44938C19.5626 9.78099 19.9381 9.6079 19.7952 10.0066C19.7454 10.147 19.1125 10.8108 18.9924 11.033C18.8724 11.2552 18.8029 11.51 19.1282 11.239C19.4536 10.9679 20.3783 9.83472 20.5251 9.80922C20.5439 9.80596 20.5619 9.80359 20.5792 9.80206C21.1471 9.75182 20.8928 10.613 21.1001 10.9628C21.1317 11.0164 21.4445 10.5946 21.5162 10.6457C21.782 10.8322 22.5238 10.8403 21.9879 11.8527C21.5586 12.6635 20.8962 12.9785 20.7807 13.3618C20.7263 13.5452 21.9295 12.343 21.9802 12.3166C22.4883 12.0434 22.0849 12.6927 22.3694 12.6384C22.4283 12.6271 22.8631 12.0921 22.9081 12.0881C23.0662 12.0698 22.9423 12.372 23.0545 12.3975C23.1059 12.4077 23.452 12.0118 23.4556 12.0697C23.4682 12.2038 23.3852 12.4266 23.1266 12.8571C23.1031 12.8964 22.6207 13.3421 22.6588 13.4093C22.7217 13.5166 22.505 13.976 22.9428 13.6949C23.074 13.6099 23.8808 12.7192 23.389 13.3934C23.2864 13.5343 22.3017 14.5894 23.2128 13.7321C23.3643 13.5898 24.6182 12.4563 23.9533 13.3165C23.7784 13.543 23.0283 14.4567 23.1888 14.3516C23.2135 14.3341 23.6268 13.8375 23.6989 13.8178C23.9456 13.7568 24.0098 13.9078 24.2537 13.8557C24.3196 13.8409 24.7246 13.3065 24.8087 13.3002C25.0404 13.2821 25.0742 13.542 25.0497 13.8018C25.0398 13.8985 24.639 14.2821 24.6018 14.3296C23.9946 15.101 24.911 14.1474 24.9793 14.1053C25.3921 13.8563 25.0539 14.3878 25.2591 14.3518C25.3146 14.3432 25.719 13.859 25.7619 13.8221C25.7743 13.8116 25.7856 13.8021 25.796 13.7935C26.1383 13.5103 25.3832 14.2703 25.3351 14.3902C25.1939 14.7389 25.3348 14.7981 25.4858 14.8262C25.5419 14.8358 25.9924 14.2577 26.037 14.2726C26.3107 14.3505 26.4603 14.5803 26.3743 15.0459C26.3572 15.1346 25.9576 15.532 25.8785 15.6338C25.3248 16.3456 26.2212 15.5025 26.3165 15.4311C26.7511 15.1049 26.4467 15.5007 26.5765 15.4929C27.2168 15.4487 27.4024 16.0615 27.5765 16.4938C27.8056 17.0548 27.7605 17.7361 28.2398 17.9821C28.2697 17.9982 28.7472 17.4206 28.7795 17.4274C29.1735 17.5403 29.2458 18.0001 29.664 18.0865C29.6974 18.0945 30.1409 17.5387 30.2106 17.5339C30.3567 17.5204 30.4243 17.6335 30.347 17.869C30.3102 17.9829 29.8532 18.3909 29.8245 18.4963C29.7568 18.7428 29.8144 18.8629 29.9783 18.8575C29.9787 18.8575 29.9791 18.8575 29.9794 18.8574C30.0536 18.8478 30.4794 18.2646 30.5332 18.3019C30.9114 18.5462 31.3189 18.7452 31.0232 19.7439C31.0028 19.8125 30.0358 20.927 30.2737 20.7605C30.5513 20.4595 30.8734 20.1014 31.1678 19.7776C31.8058 20.0347 31.939 20.842 32.3683 21.333C32.3865 21.3535 32.8732 20.74 32.911 20.7768C33.1308 20.9893 33.4957 21.0253 33.2107 21.8127C33.1831 21.89 32.2547 22.9046 32.4615 22.8105C32.4988 22.793 32.7238 22.748 32.9492 22.5491C32.9828 22.5187 33.3917 22.0233 33.4372 22.0388C33.6941 22.1377 33.7976 22.4263 33.7286 22.8901C33.7166 22.9659 33.2289 23.4469 33.2164 23.5053C33.1318 23.9159 33.6476 23.6794 33.385 24.2763C33.2076 24.6778 32.3855 25.528 31.6664 26.4449C31.5649 26.5743 31.6101 26.6492 31.1639 27.158C30.0421 28.4376 28.7742 29.8036 27.582 31.1707C27.3252 31.4651 27.6892 31.2256 27.0122 31.887C26.9667 31.9311 26.6972 32.1109 26.4694 32.3369C26.3118 32.493 25.8736 33.0244 25.6638 33.2171C25.4542 33.4097 25.8138 32.9574 25.5568 33.1746C25.2972 33.3949 24.7927 33.994 24.6597 33.9998ZM12.6555 8.61654C12.279 9.16068 13.8731 7.3559 13.4325 7.73588C13.4093 7.7564 12.6738 8.58972 12.6555 8.61654ZM5.49464 3.00737C4.89253 3.88778 5.94106 2.72847 6.41108 2.05263C6.88017 1.37717 5.67686 2.74024 5.49464 3.00737ZM4.21568 2.95733C3.77212 3.67675 5.95568 1.05144 5.42158 1.50595C5.39123 1.5315 4.24138 2.91551 4.21568 2.95733ZM31.1979 26.4716C31.1774 26.4961 31.2016 26.5593 31.2237 26.5366C31.7558 25.9864 31.7073 25.8605 31.1979 26.4716ZM2.90122 2.97222C2.63691 3.35269 3.0535 3.00443 3.38233 2.53141C3.64669 2.15073 3.22979 2.49875 2.90122 2.97222ZM13.8805 13.1238C13.8575 13.1514 13.8684 13.2043 14.0024 13.0521C14.4342 12.5618 14.2667 12.6596 13.8805 13.1238ZM1.54749 1.92678C1.66464 2.18591 0.0120186 4.47678 -7.87071e-06 4.05842C-0.00240529 3.98257 0.64684 3.4244 0.757346 3.1869C0.957682 2.75343 -0.211331 4.08601 0.291537 3.2727C0.383488 3.12375 1.54455 1.90696 1.5503 1.924C1.54936 1.92493 1.54842 1.92585 1.54749 1.92678ZM10.7834 10.8217C10.7635 10.8466 10.7887 10.9087 10.8105 10.8859C11.3384 10.332 11.288 10.2064 10.7834 10.8217ZM14.7693 15.912C14.7265 15.9648 14.7874 16.1045 14.8324 16.0609C15.7205 15.1781 15.5995 14.8925 14.7693 15.912ZM6.59249 9.52287C6.04282 10.0647 5.92532 10.0833 6.51389 9.31584C6.52959 9.39675 6.57401 9.44472 6.59249 9.52287Z" fill="#FBEF29"/>
</svg>
