<svg width="420" height="364" viewBox="0 0 420 364" fill="none" xmlns="http://www.w3.org/2000/svg">
<path d="M0.327634 0.377963C120.626 104.659 242.472 127.756 382.826 102.813C397.944 100.127 415.562 94.4471 418.985 80.8926C421.317 71.6356 415.443 61.9028 406.983 56.269C398.506 50.6351 387.916 48.3478 377.531 46.7666C328.333 39.306 276.733 45.2622 231.212 63.668C217.49 69.2105 203.633 76.4716 196.398 88.3531C185.929 105.531 192.858 128.113 207.787 142.374C222.699 156.635 243.895 164.065 264.867 169.223C285.842 174.381 307.53 177.773 327.294 185.925C344.54 193.032 361.648 206.926 359.742 223.935C358.022 239.348 341.321 249.848 324.996 254.683C275.644 269.298 217.405 252.396 172.259 275.576C139.249 292.523 121.919 330.702 131.486 363.707" stroke="white" stroke-miterlimit="10" stroke-dasharray="4.01 2.01"/>
</svg>
