<svg width="27" height="46" viewBox="0 0 27 46" fill="none" xmlns="http://www.w3.org/2000/svg">
<path d="M0.021581 40.8369C-0.0880811 40.5268 0.237044 40.2926 0.613295 40.1615C0.730269 40.12 1.11757 40.3047 1.21638 40.2827C1.40914 40.2394 1.24667 40.0738 1.46881 40.0426C1.54439 40.0329 2.16483 40.3065 2.22954 40.2911C2.57963 40.2046 2.48326 39.9663 2.68845 39.8239C3.70028 39.1223 4.27761 38.2778 4.91521 37.423C5.12491 37.141 5.84167 36.9649 5.70741 36.5463C5.69116 36.4972 5.12434 36.3181 5.08093 36.2942C4.4173 35.9256 5.53129 36.371 5.70802 36.3507C6.30661 36.2806 6.51714 36.0426 6.49389 35.7478C6.49002 35.6987 6.47965 35.648 6.46351 35.5963C6.41379 35.4415 5.26025 35.1627 5.9271 35.2655C5.97224 35.2722 6.5545 35.5168 6.62975 35.5064C6.79924 35.4824 6.74469 35.3013 6.81274 35.2599C6.94689 35.1811 6.94763 35.1603 6.99274 35.0563C7.05956 34.916 7.41686 34.8492 7.33861 34.6446C7.32014 34.6004 6.69591 34.4255 6.61151 34.3351C6.5273 34.2447 6.62952 34.1226 6.79 34.1267C6.95057 34.1309 7.42147 34.3232 7.5341 34.3542C8.48408 34.6179 7.26139 33.9941 7.23722 33.9618C6.8347 33.3855 7.68238 33.3205 7.80922 32.9609C7.90394 32.6874 7.76755 32.3095 7.89365 32.0622C8.04626 31.7683 8.47 31.6249 8.52103 31.3044C8.52712 31.2708 7.79827 31.0511 7.80425 31.0096C7.86849 30.5687 8.09294 30.1885 8.72292 29.9523C8.78673 29.9289 9.39599 30.2072 9.4973 30.1973C10.1037 30.1313 11.4866 30.1789 8.80484 29.0482C8.91389 28.9626 9.02995 28.8621 9.26399 28.8147C9.39025 28.7891 9.55086 28.779 9.76323 28.7949C10.1533 28.8241 10.8035 29.1651 10.5547 28.9397C10.4994 28.8892 9.8874 28.7094 9.8498 28.6499C9.69203 28.3994 9.9542 28.2817 9.70555 28.0006C9.65357 27.9429 9.11316 27.7595 9.01998 27.715C8.26638 27.3515 9.61019 27.6793 9.71499 27.6832C10.4982 27.7077 10.2818 27.4425 10.375 27.2367C10.397 27.1891 9.65481 26.988 9.65003 26.9329C9.63485 26.6503 9.78826 26.4182 10.1947 26.2929C10.2869 26.2657 10.8835 26.5358 10.959 26.5341C11.2842 26.5239 10.1329 26.0816 10.4225 26.0637C10.482 26.0594 11.0033 26.2614 11.0626 26.278C11.9926 26.5392 10.7283 26.0206 10.7059 25.9936C10.3946 25.6426 11.7843 25.99 11.6679 25.7174C11.6527 25.6843 10.9675 25.4998 10.9652 25.4214C10.9464 24.8974 11.3039 24.4787 11.9995 24.2176C12.1067 24.1767 12.5883 24.4074 12.6514 24.4252C13.6399 24.7004 12.3673 24.1881 12.327 24.1476C12.0429 23.8401 13.1854 24.0616 11.6942 23.3834C12.2065 23.0199 12.161 22.4561 12.4757 22.024C12.6588 21.7727 12.9637 21.5659 13.5712 21.47C13.5907 21.4661 14.2189 21.7142 14.255 21.7054C14.6957 21.6028 13.6933 21.2888 12.5432 20.696C12.2545 20.5469 13.7535 20.9592 13.864 20.9877C14.2711 21.0929 15.2006 21.476 15.2814 21.491C15.9178 21.6038 12.7901 20.484 12.8409 20.3415C12.8477 20.3389 13.4154 20.567 13.4769 20.5759C13.6697 20.6042 13.4548 20.4843 13.6658 20.5201C14.1536 20.604 15.6809 21.1276 14.8444 20.6793C14.7357 20.6214 12.9565 20.0001 13.0864 19.9037C13.1397 19.8659 13.1911 19.631 13.3287 19.6102C13.4661 19.5894 14.0208 19.8408 14.0471 19.8454C14.863 19.9524 15.1522 20.1306 16.2995 20.4545C17.4426 20.777 14.7812 19.8301 14.4977 19.6874C14.215 19.5449 14.8825 19.6489 15.1098 19.6977C15.3373 19.7466 15.6858 19.9171 15.8181 19.9349C16.6835 20.0491 14.5302 19.3744 14.1308 19.1612C13.185 18.6569 15.1917 19.2692 15.431 19.2129C15.4957 19.1975 15.0374 19.0613 15.0068 19.0153C14.8914 18.8352 15.5318 18.9874 15.0199 18.6428C14.9365 18.5866 13.7953 18.0405 14.6895 18.2869C14.8183 18.3226 15.2976 18.5318 15.4264 18.5204C15.6195 18.5037 15.7778 18.4039 15.6446 18.2606C15.546 18.1547 14.7128 17.9279 14.992 17.943C15.1166 17.9499 15.5655 18.1873 15.7602 18.1858C15.9547 18.1847 15.9942 18.0132 16.0009 17.9449C16.0072 17.8766 15.3824 17.6849 15.343 17.6647C15.118 17.5472 14.8669 17.3187 14.8715 17.3084C14.9935 16.7475 16.2067 16.6383 16.0578 15.9938C16.047 15.9435 15.3919 15.731 15.3836 15.7209C15.1651 15.4811 16.8392 16.228 17.4493 16.3442C16.1352 15.8719 16.3935 15.9025 16.2865 15.7511C16.2338 15.6778 15.7175 15.515 15.6672 15.4914C14.9237 15.135 15.9359 15.4559 16.144 15.5191C16.7492 15.7026 16.3347 15.5036 16.388 15.4888C16.4021 15.4849 16.4489 15.4939 16.556 15.5262C17.0639 15.6795 17.7726 16.0259 17.7981 15.9286C17.3395 15.7278 16.0895 15.3417 15.9177 15.1964C15.2678 14.647 16.416 14.502 16.5967 14.3232C16.7772 14.1444 16.717 14.0423 16.9333 13.9799C17.3244 13.8674 16.3859 13.6101 16.0237 13.3128C15.6618 13.0149 17.8679 13.9229 18.3553 14.0829C18.8424 14.2433 18.3569 14.0359 18.6298 14.1103C18.9027 14.1847 19.2088 14.3608 19.3296 14.34C19.4503 14.3193 18.6569 13.8395 18.1632 13.6299C17.117 13.186 15.9747 12.8378 16.4247 12.831C16.4513 12.8309 17.0271 13.0808 17.0992 13.0692C17.6525 12.9698 17.7862 12.7006 18.2872 12.5829C18.357 12.5671 18.9968 12.8471 19.0448 12.8407C19.5467 12.7751 18.4166 12.4385 17.2417 11.8523C18.8569 12.4964 19.8771 12.8058 19.951 12.64C19.9961 12.5406 19.2796 12.2884 18.8044 12.0323C18.6611 11.9551 19.1759 12.0682 18.8471 11.9282C17.7725 11.47 16.5252 11.0736 17.0784 11.0829C17.1044 11.084 17.6923 11.3358 17.7385 11.323C18.0407 11.2412 16.9076 10.7859 16.8405 10.5469C16.7878 10.3594 17.5825 10.3658 17.7591 10.2432C19.5832 10.9456 19.2249 10.6296 17.991 10.0835C18.0837 9.99565 18.0572 9.85208 18.2711 9.81491C18.3441 9.80192 18.8634 10.0284 18.9222 10.0459C19.8441 10.321 18.6382 9.80381 18.5991 9.76209C18.2296 9.33087 19.2358 9.48378 18.4225 8.89392C18.3931 8.87282 17.132 8.36947 18.0816 8.66265C18.1469 8.68318 18.6925 8.98518 18.7807 8.88953C18.8603 8.80326 19.4862 8.83564 19.2243 8.56198C19.1956 8.53194 19.1561 8.49822 19.1042 8.46024C18.9776 8.36765 17.9874 7.87259 18.8201 8.10742C18.9331 8.13952 19.2917 8.29177 19.4994 8.35548C20.1616 8.5579 18.8926 8.03446 20.0011 8.40091C21.1095 8.76731 21.9683 8.96815 21.28 8.51898C21.2602 8.50551 20.2612 8.07312 20.2966 8.02979C20.3539 7.96101 20.6088 7.93124 20.6344 7.84619C20.6464 7.80531 20.0074 7.58467 19.9986 7.57331C19.7501 7.16937 20.3851 7.19948 20.74 7.01076C20.8063 6.97676 20.0082 6.48941 20.7256 6.65522C21.5108 6.83672 24.5511 8.16595 23.9159 7.6235C23.6619 7.40626 19.801 5.72953 21.9008 6.3469C21.5403 5.79035 22.7078 5.87298 22.1342 5.22984C22.1089 5.20113 21.0391 4.71411 21.0691 4.68201C21.1158 4.63529 21.6375 4.80846 21.6871 4.78178C21.9078 4.67519 21.5338 4.34622 21.6667 4.21111C21.7161 4.15943 22.2337 4.393 22.2926 4.33155C22.351 4.27003 21.6778 3.94139 22.0524 3.97711C22.3377 4.00499 23.7836 4.50281 23.9885 4.47072C22.5937 3.90155 22.65 3.84494 22.3306 3.57402C22.2685 3.52165 21.7725 3.34964 21.7181 3.31469C21.4859 3.16804 21.9054 3.28978 21.6502 3.13637C21.5889 3.09939 21.1125 2.90533 21.0355 2.86416C20.3629 2.50651 21.4833 2.82279 21.6782 2.87837C22.4188 3.08834 21.8139 2.79957 22.1174 2.85307C22.4208 2.90676 22.7332 3.13844 22.9309 3.13744C23.34 3.13518 23.3388 2.91782 23.4206 2.77966C23.4504 2.72334 22.7983 2.50364 22.7878 2.48954C22.6762 2.30208 23.4024 2.45597 22.164 1.87053C24.8461 2.88854 22.9895 2.12214 22.5785 1.84607C22.4832 1.78037 22.467 1.74039 22.6058 1.75652C22.6668 1.75973 24.2043 2.41804 24.417 2.545C24.486 2.58833 24.4783 2.60123 24.4465 2.61109C24.3794 2.63569 24.2175 2.6301 24.4357 2.7764C24.5118 2.8277 25.9221 3.5196 26.0046 3.56888C26.6485 3.95467 24.3288 3.02377 24.1995 2.97745C22.8023 2.48023 24.3161 3.23953 24.4113 3.31518C24.8472 3.6622 24.4717 3.65257 24.7758 3.91776C24.9721 4.09007 26.4853 4.715 26.4138 4.75804C26.1771 4.90112 24.0315 4.11467 25.7881 5.05336C26.1627 5.25369 27.8378 5.88432 26.4737 5.50471C26.3878 5.48062 25.1499 5.1086 25.8789 5.47776C25.9709 5.52426 26.4545 5.71942 26.4909 5.74639C26.7251 5.92329 26.3209 5.81491 26.4744 5.96646C26.628 6.11798 26.866 6.32128 26.6667 6.34308C26.5473 6.35647 25.6185 6.06214 25.3876 5.99898C24.7229 5.81555 25.7347 6.31108 24.9467 6.0467C24.1546 5.78149 23.0144 5.22166 22.4667 5.14005C23.7226 5.64836 25.0095 6.17556 26.2716 6.68919C26.1247 6.92839 25.6168 7.01944 25.5694 7.30065C25.5648 7.33599 26.2548 7.57218 26.2673 7.61694C26.3174 7.80447 25.7844 7.73984 25.917 7.96681C26.0221 8.14354 26.6888 8.55493 26.8215 8.74798C25.35 8.25318 25.768 8.62788 25.5844 8.70758C25.5207 8.7358 25.1366 8.58111 24.9979 8.56453C24.4842 8.50575 25.7821 8.94892 25.9694 9.06173C26.7688 9.54359 23.8774 8.42245 23.881 8.62316C23.8802 8.63351 25.3755 9.34816 25.4654 9.4009C26.0523 9.74301 24.9234 9.2072 24.7857 9.22369C24.5343 9.25372 24.1363 9.18766 24.5361 9.49473C24.6547 9.58515 25.5789 10.0511 24.8076 9.83545C24.7066 9.80727 24.1996 9.60337 24.1668 9.5996C23.6143 9.54813 25.2125 10.1752 25.7228 10.4671C26.2331 10.7588 25.08 10.4542 24.7516 10.356C23.9021 10.1027 24.4196 10.168 24.3401 10.133C23.3949 9.71648 23.5249 9.87251 23.4164 9.91099C21.8434 9.31149 21.8993 9.44648 23.3102 9.95336C23.4644 10.0086 23.3392 9.89722 23.4164 9.91099C24.7276 10.4817 25.021 10.6959 24.1145 10.4588C23.9732 10.4219 23.8028 10.374 23.6026 10.3148C22.9066 10.109 22.1406 9.75143 22.3626 10.0325C22.4627 10.1597 23.5551 10.5485 23.8236 10.7303C24.4362 11.1449 23.3501 10.956 23.4474 11.1772C23.4828 11.2573 24.0965 11.4292 24.1411 11.4918C24.2613 11.6586 23.7814 11.58 23.9685 11.773C23.9862 11.7908 24.615 12.006 24.6103 12.0418C24.5869 12.3175 24.1067 12.3813 23.9963 12.6366C23.9432 12.7602 24.1996 13.1151 24.0813 13.2187C23.8798 13.3995 22.8716 13.3333 23.0175 13.6097C23.1101 13.7888 23.7416 13.9971 24.1443 14.2116C24.9251 14.6267 23.3862 14.2528 23.1492 14.1915C23.1413 14.1894 23.036 14.0257 22.6952 13.9625C22.0181 13.7442 23.1467 14.1892 23.1492 14.1915C22.996 14.152 22.773 14.3149 22.8756 14.4028C22.9316 14.4507 23.5252 14.6604 23.5433 14.6812C23.9608 15.1694 24.0014 15.5146 23.6157 15.704C23.6018 15.7047 22.9459 15.4488 22.9216 15.4535C22.5647 15.5132 23.3298 15.9253 23.7559 16.245C24.1817 16.5647 23.98 16.6151 22.8172 16.2737C22.9201 16.4329 22.3629 16.3971 22.0265 16.371C21.6901 16.3448 22.9691 16.8373 22.9916 16.8544C23.7141 17.3977 22.9277 17.2613 22.7205 17.4676C22.652 17.5337 22.6758 17.6958 22.7274 17.8494C22.7516 17.9214 22.7818 17.9916 22.8114 18.0492C22.8869 18.1925 22.5632 18.1415 22.721 18.3064C22.742 18.3286 23.3187 18.5284 23.3393 18.5404C23.985 18.8987 22.6053 18.3292 22.3476 18.2579C21.4105 17.9985 20.9088 17.8673 21.2865 18.1596C21.3729 18.2268 23.3533 19.0634 23.4503 19.163C23.5728 19.2912 22.8611 18.9961 23.0077 19.1372C23.0195 19.1491 23.4654 19.3127 23.4283 19.3525C23.2621 19.5394 22.9147 19.682 22.8754 19.9258C22.8683 19.9585 23.5896 20.1797 23.5911 20.2312C23.5972 20.4724 23.486 20.6933 23.0796 20.7766C22.9773 20.7963 22.494 20.5823 22.343 20.5392C21.4289 20.2792 22.6858 20.8504 22.7047 20.8751C23.1874 21.4792 21.9121 21.3374 22.3284 21.9254C22.3535 21.9583 23.6806 22.6265 22.4657 22.2629C22.3848 22.2388 21.1426 21.8646 21.9512 22.2317C22.0018 22.2547 22.6441 22.4396 22.552 22.4934C22.4601 22.5473 22.8329 22.8243 22.1061 22.6788C21.8771 22.6331 20.6346 22.2693 21.5652 22.7229C21.6303 22.7543 23.7613 23.7075 22.2319 23.2118C21.9802 23.13 20.3865 22.5377 21.1617 22.9563C21.3121 23.0371 21.6835 23.1256 21.884 23.267C22.1932 23.4843 21.7208 23.4507 22.391 23.8235C22.5098 23.8892 23.5634 24.3683 22.7158 24.1361C22.5831 24.0997 22.0571 23.8853 21.9844 23.8993C21.6363 23.9648 21.9284 24.2723 21.4966 24.3105C21.3447 24.3244 20.4937 23.9797 20.2394 23.9594C19.9852 23.9391 19.7162 23.9869 20.0861 24.1968C20.4562 24.4068 21.8572 24.8332 21.931 24.973C22.0357 25.1717 22.0032 25.3201 21.9024 25.4435C21.6951 25.6974 21.1987 25.846 21.0136 26.1094C20.9727 26.1674 21.484 26.2921 21.4591 26.3903C21.3691 26.7533 21.6124 27.5238 20.4568 27.4502C19.5312 27.3915 19.004 26.8548 18.5959 26.918C18.4008 26.9493 19.9651 27.6234 20.0077 27.6632C20.4428 28.0595 19.6812 27.9513 19.8298 28.2204C19.8607 28.276 20.523 28.471 20.5421 28.5158C20.6133 28.6708 20.2806 28.6868 20.2941 28.8153C20.3017 28.8735 20.8002 29.0428 20.7457 29.0742C20.621 29.1514 20.3785 29.172 19.8764 29.1104C19.8306 29.1048 19.2379 28.8182 19.1861 28.89C19.1042 29.0068 18.5884 29.0029 19.0077 29.3221C19.134 29.4175 20.2654 29.8263 19.4495 29.6402C19.279 29.6015 17.9289 29.0873 19.0635 29.6203C19.252 29.7092 20.7693 30.4647 19.7153 30.1889C19.4379 30.1164 18.3035 29.7781 18.4592 29.8941C18.4844 29.9114 19.1029 30.101 19.1464 30.1664C19.289 30.3931 19.1656 30.5327 19.2987 30.7608C19.3354 30.8221 19.9875 30.9846 20.0222 31.0688C20.1184 31.3007 19.8799 31.4613 19.6215 31.5616C19.5251 31.5981 19.0194 31.3674 18.9611 31.3516C18.0119 31.0941 19.2417 31.5848 19.3055 31.6354C19.6857 31.9438 19.059 31.8497 19.1634 32.0457C19.1907 32.0992 19.7944 32.2848 19.8446 32.3116C20.3333 32.5772 19.2882 32.1349 19.1524 32.1433C18.9828 32.1532 18.8864 32.193 18.8337 32.249C18.7672 32.3198 18.7704 32.4164 18.784 32.5117C18.7939 32.5747 19.5037 32.7626 19.5046 32.8163C19.5228 33.1388 19.3525 33.4062 18.8747 33.5434C18.7835 33.5688 18.2649 33.3462 18.1399 33.3135C17.2661 33.0834 18.383 33.6065 18.4841 33.6709C18.9461 33.9647 18.4614 33.8405 18.513 33.972C18.7732 34.6176 18.2457 35.1107 17.8879 35.5041C17.4247 36.0179 16.7523 36.3044 16.6767 36.9263C16.6712 36.9656 17.3897 37.1823 17.394 37.2194C17.4177 37.6874 16.998 37.9888 17.0549 38.47C17.0583 38.509 17.7441 38.7015 17.772 38.7722C17.834 38.9191 17.7473 39.0457 17.4937 39.0803C17.3713 39.0976 16.8241 38.818 16.7126 38.8396C16.4516 38.8895 16.3548 39.0088 16.4148 39.1783C16.4417 39.251 17.1556 39.4135 17.1374 39.4887C17.1309 39.5192 17.1246 39.5497 17.1182 39.5802C17.0171 40.0671 16.9071 40.5444 15.9046 40.7124C15.8315 40.7246 14.432 40.2521 14.672 40.4211C15.0554 40.566 15.5089 40.7297 15.9199 40.8812C15.8818 41.68 15.1425 42.2166 14.8059 42.9101C14.7919 42.9394 15.5463 43.1545 15.5228 43.2127C15.388 43.5494 15.4709 43.9546 14.6131 44.0365C14.529 44.0449 13.2424 43.555 13.4008 43.7282C13.43 43.7591 13.5464 43.9754 13.8125 44.1177C13.8529 44.1385 14.4666 44.3312 14.4661 44.387C14.4527 44.7079 14.2047 44.9586 13.7309 45.1103C13.6533 45.1343 13.0289 44.8494 12.9681 44.8645C12.5414 44.9729 12.9363 45.4064 12.2712 45.4152C11.8236 45.4201 10.734 44.9564 9.61224 44.6334C9.45398 44.5878 9.39563 44.671 8.75822 44.4417C7.15532 43.8653 5.42142 43.1764 3.71094 42.5672C3.34255 42.436 3.69272 42.7039 2.83262 42.3049C2.77513 42.2779 2.51345 42.0809 2.22063 41.9483C2.01822 41.8566 1.36167 41.6459 1.1068 41.517C0.852172 41.3881 1.40663 41.5535 1.11267 41.3871C0.814819 41.2192 0.0710181 40.9712 0.021581 40.8369ZM20.5218 16.2577C19.875 16.1086 22.1286 16.9638 21.621 16.6744C21.5938 16.6594 20.5536 16.2648 20.5218 16.2577ZM23.9283 6.34529C22.8988 6.057 24.3227 6.70686 25.115 6.93658C25.9063 7.16642 24.2404 6.43274 23.9283 6.34529ZM23.6429 4.96841C22.816 4.77833 25.9792 6.0734 25.3906 5.68481C25.3575 5.66264 23.6909 4.97943 23.6429 4.96841ZM9.43597 44.1522C9.40551 44.1423 9.35189 44.1978 9.38108 44.2103C10.0866 44.5098 10.1934 44.3986 9.43597 44.1522ZM23.2961 3.56927C22.8522 3.43356 23.3019 3.74514 23.8539 3.91386C24.2979 4.04969 23.8483 3.73819 23.2961 3.56927ZM16.5369 19.6145C16.5027 19.6034 16.455 19.6397 16.6459 19.7086C17.2611 19.9305 17.112 19.8011 16.5369 19.6145ZM22.2642 1.45146C22.2955 1.43017 22.3706 1.43476 22.4763 1.45726C22.6384 1.47876 22.8948 1.60927 23.1439 1.60909C23.1725 1.10096 19.7629 1.69227 23.7563 -1.78093e-05C25.7802 4.26339 24.4096 1.72495 24.6968 2.47479C24.5986 2.55466 23.9832 1.86144 23.6831 1.91338C23.5616 1.91877 23.5623 1.95179 23.6138 2.01656C23.7023 2.12396 23.9431 2.30761 24.0482 2.42799C24.1433 2.53645 24.129 2.59025 23.8009 2.4714C23.6691 2.41998 22.7481 1.77625 22.3932 1.54325C22.3084 1.48671 22.2581 1.45065 22.261 1.44923C22.262 1.44997 22.2631 1.45071 22.2642 1.45146ZM17.7922 15.2914C17.7617 15.2818 17.709 15.3367 17.738 15.3493C18.4416 15.6524 18.5483 15.5422 17.7922 15.2914ZM14.1267 21.8711C14.0616 21.8515 13.9464 21.9824 14.0035 22.0087C15.1507 22.5154 15.3868 22.2525 14.1267 21.8711ZM17.8088 10.2593C17.1172 9.91255 17.0655 9.79429 17.9899 10.0835C17.9148 10.1361 17.8803 10.2048 17.8088 10.2593Z" fill="#FBEF29"/>
</svg>
