<svg width="299" height="367" viewBox="0 0 299 367" fill="none" xmlns="http://www.w3.org/2000/svg">
<path d="M193.958 63.9116C192.512 65.3749 190.809 66.7443 188.984 67.9881C184.473 71.0629 179.218 73.3841 174.79 74.8559C173.437 75.3098 172.734 74.1722 171.958 73.5552C171.618 73.2836 171.262 73.1131 170.834 73.2211C168.093 73.9164 166.794 76.3168 164.04 76.8156C163.119 76.9718 161.695 73.0958 160.779 73.3364C158.277 74.0091 156.252 75.2123 154.323 76.5088C152.396 77.8032 150.566 79.1894 148.432 80.2502C145.851 81.5328 143.346 82.853 140.926 84.2102C136.532 86.6749 132.412 89.2654 128.61 91.9809C124.626 94.8939 121.764 97.0602 118.262 100.444C117.31 101.337 117.107 101.344 116.124 102.506C115.303 103.456 114.408 104.642 113.471 106.004C112.537 107.363 111.56 108.895 110.541 110.564C109.524 112.228 108.464 114.028 107.335 115.948C106.209 117.862 105.016 119.893 103.697 122.052C103.504 122.369 103.308 122.686 103.108 123.01C102.073 124.675 100.459 127.014 99.0323 128.726C97.5721 129.872 94.4787 133.78 92.3538 136.913C90.5617 139.593 89.037 142.435 88.1971 145.383C87.9271 146.352 91.329 147.38 91.5044 147.677C92.5085 149.42 92.284 149.937 91.5261 149.972C90.2793 150.036 87.6014 148.784 86.5422 149.616C83.6587 151.89 81.2681 154.604 79.3338 157.533C77.0301 161.02 75.3682 164.826 74.2923 168.55C74.1596 169.01 74.0371 169.466 73.9248 169.916C73.1546 173.023 80.7858 173.052 75.947 174.268C75.6153 174.362 72.5513 172.101 71.833 172.73C70.2254 174.117 69.3636 177.737 68.5459 178.922C68.5451 178.923 68.5442 178.924 68.5434 178.925C66.9366 181.229 66.7742 181.714 65.9092 183.838C58.4217 178.157 83.5797 205.929 43.9891 163.33C45.5656 163.514 45.7667 163.731 47.2732 162.889C47.7466 162.554 46.025 159.083 46.6111 158.232C46.707 158.091 46.8465 157.964 47.022 157.849C47.8849 157.285 49.8025 156.928 50.8398 157.307C52.0624 157.774 52.8604 160.688 53.2862 161.256C54.3497 162.647 55.1398 162.866 55.7248 162.466C57.1549 161.495 57.2091 156.946 57.4474 156.672C58.311 155.75 59.2276 154.942 60.1942 154.221C62.3849 152.587 64.8383 151.401 67.4631 150.377C70.1738 149.32 73.0563 148.434 76.0627 147.398C78.5695 146.537 81.1556 145.563 84.0733 144.249C84.5848 144.019 85.0751 143.797 85.545 143.584C90.8202 141.172 96.0575 137.926 101.181 135.559C102.17 135.103 103.156 134.678 104.139 134.298C108.855 132.483 113.39 131.477 117.853 130.183C120.702 129.357 123.522 128.414 126.336 127.07C127.1 126.71 124.439 122.966 125.367 122.519C127.614 121.436 129.874 120.403 132.156 119.433C137.475 117.172 142.91 115.261 148.574 113.888C151.14 113.266 153.754 112.754 156.427 112.369C157.543 112.212 157.858 116.38 159.07 116.437C161.875 116.54 165.46 117.005 168.643 116.586C173.837 115.904 177.956 112.854 175.656 102.197C177.125 101.768 178.704 101.286 180.353 100.889C183.509 100.139 186.778 99.7499 190.181 100.629C193.497 101.488 193.1 106.455 195.186 103.4C195.661 102.714 193.161 99.7532 194 98.9792C194.342 98.6644 194.697 98.3703 195.066 98.0908C198.518 95.4743 203.023 94.2132 206.205 90.8114C206.92 90.0369 205.274 87.0889 205.274 86.4213C205.287 85.6386 205.445 85.0864 205.707 84.7158C207.288 82.496 212.512 86.7875 213.375 86.97C217.716 87.7736 220.799 87.1218 223.764 86.0316C226.115 85.1694 228.39 84.0322 231.097 83.2106C232.526 82.7838 229.462 79.0108 230.818 78.4394C233.219 77.4594 235.748 76.6334 238.371 76.0155C243.516 74.7987 249.044 74.4019 254.413 75.1633C256.206 75.437 254.998 79.4338 255.856 79.7646C256.252 79.9172 256.605 79.9723 256.927 79.9499C259.572 79.7842 260.285 74.0685 263.571 75.3968C264.338 75.708 263.946 79.012 264.089 79.3723C266.136 85.0303 268.146 77.0412 268.796 76.8887C271.208 76.1892 273.12 76.7124 274.755 77.6953C278.395 80.7789 282.887 81.0214 292.751 92.2702C294.182 95.1155 295.025 86.0721 298.702 95.251C300.28 114.854 293.167 116.016 290.549 120.868C283.754 128.116 276.958 132.135 269.813 135.531C268.457 136.153 267.114 136.717 265.727 137.267C263.814 138.027 263.121 134.653 262.789 134.416C257.644 130.694 261.357 137.98 260.997 138.611C258.149 143.33 250.531 140.307 253.107 150.187C252.877 150.294 252.655 150.397 252.431 150.504C245.556 153.759 239.284 157.759 233.045 161.722C226.785 165.699 220.539 169.645 213.853 172.68C208.768 174.989 203.316 176.834 197.495 177.745C197.229 177.796 195.46 174.199 194.938 174.315C192.154 174.929 191.371 176.197 191.553 178.057C191.718 180.495 193.265 184.049 193.696 188.865C193.906 191.001 186.28 185.086 185.684 184.679C183.483 183.177 181.063 177.667 180.518 177.455C176.068 175.913 187.389 191.918 184.342 193.992C184.229 194.03 182.597 190.776 182.14 190.653C180.712 190.263 180.732 191.987 179.246 191.502C177.167 190.813 174.118 187.809 172.118 187.032C170.829 186.531 169.988 186.947 170.178 189.477C170.256 190.306 177.192 199.008 174.255 200.471C173.065 201.043 168.585 204.587 166.896 204.986C165.192 205.381 163.885 201.871 163.703 201.814C157.348 200.726 157.462 198.164 151.348 194.041C150.929 193.763 150.589 193.564 150.319 193.435C146.638 191.679 156.13 202.769 156.569 204.638C157.04 206.632 152.104 205.625 150.613 205.109C149.128 204.579 148.431 202.192 147.388 202.062C140.482 201.329 151.176 209.701 151.75 212.692C153.245 219.631 143.166 212.376 139.777 213.716C139.754 213.725 139.731 213.734 139.708 213.744C138.832 214.128 141.304 215.66 140.916 216.396C139.399 219.259 135.293 217.904 135.416 222.915C135.399 223.767 139.048 230.763 133.816 228.47C133.054 228.147 131.225 225.556 129.837 226.099C128.559 226.601 127 227.673 125.88 228.98C125.173 229.803 124.644 230.713 124.462 231.604C124.126 233.305 129.233 234.965 126.829 235.54C125.753 235.809 124.323 232.747 122.484 233.43C120.627 234.107 118.346 237.685 117.604 239.108C116.849 240.517 120.593 241.791 120.742 242.041C121.591 243.466 121.777 246.844 121.675 247.044C121.343 247.698 120.996 248.349 120.645 248.983C117.551 254.68 114.03 258.957 111.473 265.187C111.18 265.922 111.044 265.997 110.89 266.325C110.743 266.565 110.683 266.614 110.473 266.251C110.29 265.919 109.722 265.079 109.028 264.656C108.346 264.218 107.936 264.228 107.98 264.252C108.005 264.282 108.35 264.312 108.803 264.252C109.321 264.185 109.651 264.091 110.43 263.862C110.847 263.718 110.935 263.601 111.132 263.447C111.618 263.112 109.91 259.403 109.977 259.31C110.035 259.082 110.14 259.008 110.282 259.064C111.616 259.347 113.964 268.012 117.326 269.909C115.039 265.95 114.617 264.399 114.878 263.505C115.096 262.78 115.818 262.438 116.474 261.537C116.619 261.334 116.637 261.071 116.573 260.782C116.326 259.673 114.885 258.155 114.811 257.894C113.693 253.955 116.403 256.083 118.07 257.483C118.468 257.823 118.801 258.124 118.997 258.291C122.165 260.991 121.115 257.456 122.361 257.669C122.57 257.705 122.841 257.85 123.205 258.152C125.678 260.253 126.675 265.159 128.697 263.739C127.791 260.814 121.667 255.59 123.039 253.226C123.228 252.912 123.441 252.603 123.639 252.322C125.76 248.917 130.187 246.735 134.674 245.229C139.569 243.58 144.622 242.657 147.31 241.494C147.352 241.476 147.395 241.458 147.436 241.44C152.671 239.164 154.015 237.788 157.426 237.046C158.25 236.867 158.88 236.642 159.358 236.379C162.471 234.657 159.096 231.298 160.72 227.713C162.576 223.575 168.215 236.585 170.222 238.912C172.231 241.235 171.142 238.261 172.568 239.344C173.997 240.424 173.808 242.936 175.485 242.657C176.044 242.563 176.522 241.741 176.86 240.576C177.544 238.24 177.648 234.535 176.845 232.549C174.287 226.246 168.982 221.277 173.68 221.242C173.954 221.242 175.296 224.772 176.247 224.611C177.962 224.295 179.614 223.841 181.225 223.303C185.368 221.913 189.171 220.022 193.248 218.4C194.517 217.902 195.816 217.421 197.162 216.995C198.152 216.691 199.924 220.509 200.536 220.362C206.956 218.792 201.021 214.578 198.945 206.46C201.281 210.016 203.557 212.76 205.679 214.563C208.676 217.131 211.38 217.793 213.514 216.215C215.718 214.596 212.622 211.321 212.165 207.716C212.023 206.632 215.42 207.942 214.455 206.038C214.25 205.634 214.034 205.235 213.81 204.841C210.589 199.153 205.596 194.659 211.012 194.285C211.27 194.279 212.917 197.739 213.649 197.495C217.681 196.187 215.629 191.491 217.419 187.807C217.733 187.166 218.167 186.557 218.771 186.009C220.917 184.06 225.67 183.271 229.981 182.594C232.076 182.257 234.064 181.94 235.638 181.439C240.678 191.797 243.06 187.759 242.1 179.642C242.666 179.484 243.231 179.308 243.798 179.128C246.518 178.264 249.447 177.268 252.58 177.638C253.906 177.794 253.57 181.237 253.793 181.565C256.529 186.848 257.173 179.094 258.081 178.755C258.411 178.622 258.735 178.509 259.052 178.415C262.529 177.398 266.611 178.687 269.441 180.018C272.595 181.441 275.311 182.931 279.295 183.286C279.957 183.35 280.656 183.385 281.405 183.395C281.695 183.358 286.989 177.239 285.288 183.368C285.088 183.732 280.802 184.931 283.514 187.531C284.336 188.355 285.1 189.709 285.834 191.22C287.282 194.144 288.436 197.478 291.104 199.631C291.549 199.99 292.038 200.322 292.587 200.627C293.863 201.1 301.479 202.505 297.258 206.796C296.672 207.315 294.35 207.477 293.214 208.239C292.261 208.87 292.101 209.239 292.277 209.54C292.755 210.3 295.957 210.906 291.012 212.644C286.141 214.483 282.143 215.313 281.77 217.382C281.588 218.188 282.093 218.386 283.025 219.616C283.121 219.683 287.375 222.218 287.787 223.913C287.856 224.15 287.844 224.358 287.735 224.509C286.872 225.717 285.282 226.785 283.843 227.702C283.028 228.228 282.255 228.731 281.667 229.279C280.884 230.002 284.016 232.552 283.925 232.73C283.499 233.387 283.042 233.977 282.563 234.511C281.224 235.999 279.734 237.034 278.181 237.831C276.576 238.655 274.895 239.226 273.162 239.802C271.543 240.348 269.92 240.849 268.254 241.677C267.596 242.012 266.936 242.374 266.275 242.774C265.404 243.294 265.559 246.727 264.095 248.318C263.465 249 262.528 249.354 261.045 249.029C256.141 247.997 246.039 235.022 242.837 238.636C242.485 239.037 242.223 239.641 242.072 240.484C241.693 242.515 247.189 250.291 248.956 255.111C250.143 258.355 249.613 260.293 244.462 258.232C244.117 258.985 243.726 259.689 243.297 260.351C241.868 262.558 240.016 264.305 238.033 265.867C236.014 267.458 233.915 268.809 231.889 270.341C229.997 271.693 227.863 273.159 225.965 275.468C225.519 276.011 225.083 276.6 224.678 277.233C224.413 277.637 226.891 284.25 225.951 284.716C224.559 285.39 222.168 283.056 221.124 283.447C221.079 283.463 221.034 283.48 220.989 283.496C218.187 284.539 216.327 286.818 214.371 288.845C213.322 289.931 212.246 290.944 210.953 291.685C209.542 292.512 208.023 289.465 206.292 290.54C206.013 290.717 205.819 290.983 205.684 291.298C204.963 292.96 205.831 295.859 203.026 296.054C201.647 296.162 198.716 294.806 195.639 294.133C193.05 293.539 190.325 293.474 188.837 294.943C196.249 299.708 194.621 301.807 196.271 305.54C196.296 305.588 196.321 305.637 196.346 305.686C196.704 306.382 199.866 306.149 200.192 306.505C201.582 307.999 198.849 308.75 200.321 310.265C200.673 310.638 203.65 311.232 204.1 311.589C208.031 314.798 200.499 316.665 199.208 316.829C198.864 316.897 198.561 316.968 198.294 317.043C194.735 318.005 197.614 319.877 195.559 320.88C193.361 321.896 191.999 318.898 190.39 320.351C189.045 321.55 188.043 323.022 187.207 324.6C185.975 326.93 185.1 329.496 184.125 331.646C183.488 333.09 187.643 333.646 187.639 333.888C187.575 334.597 187.298 335.221 186.96 335.804C185.653 338.057 183.419 339.718 188.747 343.569C173.286 338.897 182.244 342.983 184.631 346.321C185.346 347.324 185.472 348.258 184.168 348.888C183.718 349.093 174.403 345.788 173.626 343.88C173.32 343.128 173.711 342.539 174.216 341.94C174.992 341.019 176.037 340.073 175.251 338.427C174.949 337.783 167.495 331.685 167.116 331.142C164.183 326.85 177.915 332.232 178.725 332.397C178.803 332.413 178.879 332.429 178.954 332.444C187.317 334.073 179.474 327.378 179.121 326.407C178.469 324.416 178.628 322.905 178.941 321.532C179.36 319.687 180.064 318.074 179.354 316.075C178.556 313.79 169.343 310.855 169.979 309.723C170.064 309.569 170.167 309.425 170.285 309.289C172.728 306.465 182.312 307.127 177.414 302.842C176.836 301.708 176.073 300.168 175.321 298.05C173.893 294.962 163.286 290.724 176.209 285.226C176.719 285.026 180.801 284.487 183.183 283.468C184.676 282.779 185.561 281.792 185.048 279.718C184.876 279.032 182.694 276.861 182.865 276.329C184.105 272.798 187.232 273.352 188.821 270.569C188.894 270.444 188.967 270.317 189.04 270.189C190.582 267.485 192.314 264.333 195.223 263.569C195.892 263.391 196.993 263.75 198.172 264.329C200.223 265.329 202.515 266.986 203.408 267.471C207.408 269.707 205.798 262.906 209.459 266.401C212.49 269.319 214.262 275.067 217.314 277.519C217.945 278.032 218.632 278.401 219.397 278.575C215.319 271.696 211.267 264.555 207.23 257.599C209.191 256.501 211.172 255.664 212.938 254.995C215.284 254.098 216.932 253.597 217.027 253.984C218.552 252.931 219.583 252.131 220.796 250.801C221.293 250.237 217.73 247.716 218.173 247.042C218.303 246.847 218.444 246.665 218.595 246.494C220.07 244.816 222.526 244.158 224.414 242.592C225.129 241.999 225.761 241.276 226.224 240.319C226.875 238.959 227.008 236.99 227.134 234.929C227.276 232.592 227.413 230.131 228.278 228.317C230.573 229.621 232.332 230.089 233.758 230.031C237.136 229.901 238.695 226.759 240.99 224.932C241.17 224.789 241.355 224.654 241.544 224.53C242.806 223.7 244.438 225.524 245.743 225.375C250.707 224.739 243.846 220.108 243.833 218.379C243.853 216.611 244.542 216.058 245.628 216.186C249.324 215.897 256.11 220.743 259.481 220.923C260.113 220.928 260.658 220.776 261.101 220.397C261.356 220.191 258.202 210.478 258.051 209.834C258.046 209.788 258.042 209.743 258.038 209.699C257.524 205.513 260.372 212.36 261.838 212.172C262.843 212.056 263.778 212.157 264.536 212.129C265.677 212.117 266.51 211.666 265.673 210.308C265.635 210.252 265.595 210.195 265.55 210.137C265.235 209.361 260.927 206.49 262.286 209.148C262.449 209.395 262.688 209.683 263.018 210.007C263.477 210.457 266.383 211.859 266.503 212.038C267.854 213.562 264.171 214.898 260.721 214.069C258.717 213.547 256.591 213.1 255.298 213.234C251.646 215.17 258.917 216.215 260.855 215.494C260.895 215.489 260.935 215.483 260.973 215.477C263.348 215.091 263.915 214.899 263.936 214.916C263.955 214.922 263.278 214.984 263.541 214.943C267.832 214.461 268.559 214.342 268.745 214.003C268.822 213.879 268.812 213.754 268.925 213.595C278.568 211.106 277.426 209.513 269.254 212.977C268.351 213.315 269.342 213.384 268.925 213.595C260.631 215.289 259.131 217.205 263.807 214.321C264.536 213.855 265.41 213.261 266.417 212.517C269.771 209.882 274.374 207.625 271.325 206.632C270.229 206.329 267.042 209.3 264.857 210.976C264.258 211.444 263.741 211.823 263.373 212.024C261.346 213.171 261.462 212.341 261.39 211.062C261.374 209.948 261.195 208.542 260.507 208.791C260.038 209.007 259.056 212.634 258.797 212.943C258.766 212.99 258.741 213.028 258.72 213.056C258.067 213.535 259.764 211.343 259.218 212.577C259.141 212.705 259.279 216.42 259.052 216.664C259.044 216.671 259.036 216.675 259.027 216.677C258.804 217.114 259.663 215.917 256.995 216.016C255.79 216 254.299 216.231 252.721 216.968C251.927 217.339 251.003 218.162 250.009 219.126C248.433 220.649 246.702 222.527 245.071 223.245C244.078 223.685 242.905 223.981 241.626 224.232C237.867 224.958 233.176 225.31 230.222 227.138C229.54 227.559 228.947 228.062 228.49 228.657C226.434 231.303 229.366 234.009 229.869 236.976C230.444 240.242 227.614 240.211 224.778 239.474C222.62 238.931 220.513 237.942 219.89 237.642C219.86 237.605 221.62 235.091 219.153 234.447C215.884 231.67 219.907 237.606 219.89 237.642C219.032 237.136 213.566 240.186 212.843 241.631C212.523 242.376 215.026 245.144 214.807 245.483C214.468 245.992 214.138 246.48 213.816 246.948C213.816 246.948 213.816 246.948 213.816 246.948C211.091 250.956 207.318 254.671 203.511 257.357C200.739 259.312 197.746 260.891 194.549 262.076C194.381 262.092 192.387 258.44 192.022 258.52C190.63 258.794 189.617 259.421 188.838 260.286C186.732 262.621 186.32 266.712 184.913 270.096C183.977 272.348 182.726 273.671 181.053 273.855C179.285 274.05 177.046 272.975 174.196 270.386C172.226 272.484 167.572 272.03 164.519 271.556C164.303 271.523 164.094 271.489 163.895 271.457C160.886 270.964 164.591 278.159 164.488 278.401C162.705 282.777 160.17 283.914 157.191 284.586C154.973 285.084 152.477 285.338 149.968 286.442C148.753 286.97 147.197 288.036 145.586 289.31C145.419 289.589 145.556 289.718 144.898 290.413C144.327 291.077 143.542 291.934 142.766 292.764C142.533 293.013 142.297 293.263 142.07 293.504C141.278 294.349 140.326 294.924 139.317 295.423C137.784 296.18 136.165 296.758 134.325 298.044C133.789 298.417 133.229 298.85 132.62 299.37C132.052 299.846 134.359 302.706 134.226 302.932C129.87 309.825 129.125 300.361 127.293 299.487C127.141 299.416 126.99 299.346 126.84 299.276C123.316 297.35 119.177 296.279 116.244 295.885C115.286 295.545 113.104 295.887 110.634 296.572C109.907 296.765 109.078 296.99 108.113 297.225C107.036 297.451 105.175 299.84 101.218 301.911C96.9669 304.393 88.1977 305.747 80.3345 301.33C78.8014 300.492 77.3695 299.475 76.1567 298.372C65.2505 286.702 69.0512 285.034 67.5278 279.62C67.2207 277.62 66.6885 275.128 66.0039 271.97C65.8892 271.183 62.7567 270.97 62.9219 264.931C62.9248 264.872 62.9278 264.813 62.9309 264.755C63.0754 261.365 63.8864 256.996 64.2934 255.738C64.2935 255.737 64.2934 255.738 64.2934 255.738C66.0435 249.678 70.4823 239.491 73.1856 233.112C73.6643 231.973 68.9472 231.623 69.598 229.908C70.3934 227.84 71.3019 225.778 72.3132 223.788C75.24 218.013 79.0911 212.784 83.5697 209.089C85.0688 207.874 86.9371 210.627 87.9214 210.835C93.8033 212.19 89.2727 204.73 89.5282 204.154C89.9776 203 90.4953 201.926 91.0669 200.922C96.026 192.301 104.328 189.227 110.26 182.652C111.374 181.425 112.419 180.072 113.374 178.526C113.677 177.954 111.816 167.94 118.438 172.125C118.897 172.385 125.495 176.797 123.622 171.561C123.51 171.23 119.926 169.09 122.041 167.858C123.474 167.028 124.563 164.685 126.772 163.719C127.81 163.265 129.089 163.115 130.749 163.573C132.406 164.01 138.903 168.621 137.619 161.991C137.483 161.554 133.105 147.696 140.045 154.387C141.183 155.493 146.818 163.786 146.664 157.574C146.632 156.373 144.34 155.256 144.976 153.091C145.281 152.044 145.935 151.341 146.702 150.692C148.35 149.293 150.486 148.178 150.616 144.388C150.638 143.415 148.876 136.382 153.38 139.588C154.086 140.089 155.464 143.197 156.533 142.933C160.045 142.087 162.544 139.611 165.418 138.01C166.674 137.311 168.18 136.677 169.841 136.458C171.732 136.218 173.902 141.255 176.222 141.502C178.543 141.746 182.34 141.011 182.541 137.968C182.77 134.906 176.501 128.646 178.476 126.6C179.854 125.172 181.267 123.97 182.843 122.852C188.807 118.603 195.925 116.456 202.598 113.721C204.826 112.81 207.026 111.819 209.095 110.674C210.551 109.867 207.725 108.016 209.738 106.646C212.325 104.875 215.369 102.4 218.573 99.9936C224.561 95.5194 230.877 91.3488 236.937 91.9612C236.996 91.9665 237.055 91.9722 237.114 91.9783C244.711 92.7808 241.591 100.223 246.298 99.2966C248.64 98.7705 243.953 89.637 244.02 89.1674C244.988 84.7303 248.798 85.2617 249.42 84.4072C249.484 84.3128 249.455 84.221 249.293 84.1491C248.967 84.1053 245.915 81.4052 245.575 81.5261C246.739 82.953 235.559 83.7494 244.528 116.729C250.403 126.931 247.552 127.45 254.38 132.993C270.131 141.485 269.17 136.498 268.75 134.824C268.609 134.593 268.471 134.354 268.337 134.106C268.172 133.824 269.812 130.095 268.296 129.814C265.974 129.429 264.772 126.551 262.225 129.663C261.867 130.21 261.904 132.856 261.672 134.007C261.499 134.828 261.211 134.888 260.41 132.928C260.024 131.947 259.334 123.426 258.529 130.972C258.236 132.239 257.51 142.437 254.756 136.53C254.321 135.639 253.273 133.109 252.278 131.374C251.541 130.08 250.839 129.226 250.545 129.79C250.466 129.992 251.956 133.538 251.29 134.105C249.031 135.964 246.099 136.582 243.516 138.657C243.413 138.74 243.312 138.825 243.211 138.912C242.518 139.525 245.116 142.756 244.062 143.546C241.585 145.417 237.769 146.364 234.05 146.987C233.452 147.085 232.859 147.174 232.278 147.253C230.731 147.46 230.288 144.063 230.042 143.785C225.98 139.293 228.317 146.83 227.98 147.493C226.299 150.593 223.415 150.177 220.828 150.919C220.021 151.151 219.242 151.496 218.537 152.097C217.714 152.786 220.012 155.807 219.971 156.197C219.445 160.063 217.967 153.344 216.403 153.287C212.824 153.128 209.338 154.697 206.398 156.384C205.767 156.748 205.148 157.126 204.54 157.504C203.298 158.282 206.61 161.502 205.469 162.156C201.203 164.657 196.613 166.768 191.886 168.191C189.069 169.04 186.187 169.655 183.263 169.98C181.783 170.137 181.253 166.736 180.676 166.161C176.677 162.122 176.886 169.944 176.533 170.852C175.947 172.384 175.263 173.045 174.518 173.35C173.255 173.868 171.819 173.363 170.377 174.365C166.784 176.881 162.704 179.065 158.434 180.986C153.038 183.416 147.339 185.427 141.914 187.185C138.282 188.361 134.772 189.425 131.552 190.427C129.356 191.113 127.219 191.74 125.129 192.329C119.211 193.998 113.721 195.349 108.283 196.947C106.543 197.339 105.225 197.683 102.793 198.751C100.626 199.694 98.2164 200.929 95.6031 202.433C94.8868 202.845 94.1441 203.283 93.3929 203.738C92.5025 204.27 95.5187 207.671 94.7693 208.184C93.1521 209.249 91.4205 210.28 89.5784 211.284C86.5823 212.917 83.2984 214.487 79.6494 216.04C75.9806 217.595 71.9635 219.145 67.2469 220.668C63.1562 222.05 55.6771 223.978 50.1203 224.729C-20.7796 218.049 9.61666 173.27 3.14919 177.555C4.78166 167.359 -1.32475 176.862 0.267413 168.301C2.29031 159.173 3.9165 156.703 6.63276 153.466C7.79888 152.234 9.94092 155.096 11.202 154.533C11.3117 154.486 11.4144 154.413 11.5091 154.309C14.2763 151.261 16.1595 147.786 17.0928 144.125C17.479 142.571 12.5925 142.944 13.3995 141.064C13.4601 140.92 13.5208 140.777 13.5815 140.633C15.3133 136.541 17.0216 132.536 18.9081 128.647C20.8017 124.744 22.8676 120.972 25.3331 117.344C27.7921 113.721 30.5823 110.36 34.0503 107.072C34.4968 106.649 34.9485 106.24 35.4054 105.845C36.2297 105.081 44.3064 108.428 43.8333 105.734C41.7674 104.467 39.2466 103.148 36.9925 101.881C37.9969 99.6417 39.3682 96.7477 41.4446 93.2361C41.4448 93.2358 41.4447 93.236 41.4447 93.2359C42.1471 91.9839 42.4254 91.4734 43.2973 89.92C44.0634 88.5503 44.9499 86.9549 45.9417 85.1831C46.935 83.4096 48.0339 81.4597 49.2566 79.3534C50.4806 77.2463 51.8279 74.9816 53.3529 72.5578C54.8799 70.1338 56.5807 67.5513 58.5729 64.793C60.3399 62.3329 63.3639 58.437 65.6091 56.0401C68.6086 52.8329 72.9259 48.473 76.3469 45.242C77.0902 44.5344 72.5733 42.5025 74.0131 41.1038C75.3139 39.8457 76.6008 38.59 77.8689 37.3741C82.9689 32.4869 88.0008 28.001 94.0976 25.0745C96.2057 24.0645 98.4428 23.2423 100.84 22.6713C101.933 22.4079 106.422 29.1883 108.045 26.4386C108.33 25.9382 111.245 22.4467 111.132 20.3586C111.103 20.0518 108.222 17.4564 109.315 16.5292C109.719 16.1918 110.128 15.8594 110.541 15.5322C115.26 11.793 120.484 8.74712 125.897 6.52221C127.487 5.86843 129.091 5.28581 130.709 4.77373C131.939 4.39265 133.142 8.46355 134.037 8.22156C137.747 7.20061 140.557 4.62842 143.56 2.63771C145.686 1.22826 147.915 0.105838 150.674 0.00317371C155.142 -0.164065 158.089 6.31034 163.781 10.6674C164.588 11.2815 166.583 10.0015 169.07 13.1297C175.342 20.9923 180.916 30.5616 187.703 38.8665C189.169 40.6578 190.534 36.5263 192.188 42.2572C192.299 42.6434 191.292 45.6971 191.897 47.5959C192.308 48.9167 195.371 51.7119 195.613 53.6101C195.849 55.51 193.016 53.3577 192.946 55.8324C192.881 58.3296 196.101 61.7169 193.958 63.9116ZM150.448 269.259C148.576 268.13 149.262 270.577 150.487 272.868C150.656 273.185 150.836 273.499 151.021 273.801C152.216 275.752 153.613 277.166 153.761 275.355C153.769 275.142 150.639 269.369 150.448 269.259ZM224.186 262.801C224.93 263.363 225.503 263.644 225.884 263.731C228.723 263.72 224.359 257.7 220.486 255.651C219.153 254.948 218.74 255.224 218.856 255.997C219.662 257.357 223.117 261.929 224.186 262.801ZM202.884 282.108C208.637 284.08 197.861 267.015 196.611 272.89C196.529 273.233 202.537 282.006 202.884 282.108ZM157.142 17.8079C157.276 17.9452 158.805 17.0964 158.73 16.92C156.881 12.6987 153.849 14.3821 157.142 17.8079ZM189.38 313.404C192.296 313.109 189.87 309.593 186.287 310.03C183.443 310.284 185.802 313.662 189.38 313.404ZM134.856 208.777C134.893 208.805 134.969 208.793 135.058 208.749C135.391 208.586 135.911 207.985 135.25 207.31C133.609 205.638 132.749 205.735 132.974 206.556C133.12 207.088 133.724 207.92 134.856 208.777ZM171.901 359.991C173.052 357.36 176.188 355.928 179.393 355.591C183.65 355.134 188.029 356.515 188.486 358.999C188.62 359.719 188.43 360.534 187.823 361.444C187.026 362.647 183.845 356.824 181.83 357.974C178.087 360.282 187.357 365.535 181.099 366.985C179.905 367.367 171.637 360.474 171.884 359.971C171.89 359.978 171.896 359.984 171.901 359.991ZM140.887 255.045C140.841 254.997 140.619 255.05 140.35 255.149C139.839 255.336 139.159 255.686 139.196 255.806C140.081 258.537 141.671 259.01 142.03 258.086C142.247 257.524 142.012 256.447 140.887 255.045ZM199.333 171.982C199.621 172.272 203.289 170.417 203.186 170.048C201.088 162.648 193.657 166.382 199.333 171.982ZM235.842 181.682C235.782 176.656 238.36 174.956 242.089 179.64C239.918 180.157 237.903 180.999 235.842 181.682Z" fill="#FFCB32"/>
</svg>
