<svg width="36" height="28" viewBox="0 0 36 28" fill="none" xmlns="http://www.w3.org/2000/svg">
<path d="M27.4425 9.12916C27.9502 9.48936 28.4962 9.83747 29.0369 10.2013C29.8667 10.7598 30.6842 11.3554 31.3327 12.089C31.4642 12.2376 31.1255 12.6671 31.1258 12.7576C31.1256 13.0064 31.5845 12.5442 31.643 12.6473C31.929 13.1467 32.2687 13.5175 32.5592 13.9941C32.8587 14.4847 31.6367 15.6931 31.5367 16.1357C31.3401 17.0019 32.4234 15.0436 32.836 14.731C32.9829 14.9378 33.1091 15.1743 33.2257 15.4235C33.3097 15.6028 33.3888 15.7887 33.4671 15.9746C33.2617 16.0792 33.0588 16.1803 32.8615 16.2721C32.9793 16.4174 32.9818 16.847 32.3911 17.1281C32.3491 17.296 32.2873 17.4829 32.2491 17.649C32.7485 17.0145 33.0445 17.1553 33.3551 16.7901C33.6658 16.4248 33.4553 16.4044 33.4813 16.3716C33.8486 15.9018 33.9523 16.9984 33.9552 17.0836C33.9621 17.3099 33.2626 18.0362 33.3974 18.0567C33.6288 18.0926 34.7403 16.3811 33.34 18.7144C33.9567 18.0777 33.6905 18.4489 33.7667 18.5822C33.777 18.5994 34.0709 18.1834 34.0854 18.1777C34.4828 18.0034 33.7836 18.6624 33.7537 18.7041C33.2464 19.4128 33.6619 19.2403 33.6504 19.3361C33.51 20.5319 33.4419 21.3617 33.808 21.9378C33.8877 22.0617 34.4362 22.0311 34.4541 22.2298C34.4718 22.4258 34.0386 22.8856 33.9129 23.1682C34.9074 22.0263 35.0917 21.9563 34.6933 22.9011C35.4281 22.0753 34.8855 22.7791 35.1593 22.709C35.3866 22.6513 36.385 21.7482 35.8388 22.7465C35.7517 22.553 35.4424 22.9974 35.0789 23.1332C34.9583 23.178 34.3632 22.7606 33.7309 23.6938C33.4013 24.1803 33.9173 23.8935 33.8599 23.9856C33.5248 24.5227 32.9523 25.062 33.02 24.7733C33.1201 24.6893 33.2262 24.6074 33.3281 24.5248C33.587 23.7336 31.9176 26.2661 33.3425 24.0274C33.5171 23.7527 33.7279 23.4878 33.9017 23.1871C33.8093 23.2961 33.6377 23.6094 33.5647 23.6338C33.4908 23.6582 33.826 23.0703 33.4764 23.5154C32.9677 24.1623 33.3098 24.0136 33.2921 24.0605C33.2952 24.0566 33.2983 24.0527 33.3014 24.0488C33.1375 24.4719 32.9025 24.3579 32.8459 24.4129C32.4749 24.7754 32.2813 25.1237 31.932 25.391C31.733 25.5433 31.6799 25.3257 31.5821 25.3497C31.4835 25.3755 31.3289 25.7461 31.2446 25.7874C31.1603 25.8286 31.2953 25.5602 31.1971 25.6076C31.1543 25.6289 30.8947 25.9768 30.8773 25.9828C30.6881 26.0496 31.2882 25.3711 31.1744 25.3546C31.1002 25.3446 30.4196 25.8863 30.3901 26.1777C30.2796 26.2039 30.1845 26.2126 30.0856 26.2238C30.0446 26.3545 30.0297 26.453 29.9742 26.6012C29.9893 26.3541 29.4943 26.9115 29.3929 26.9045C29.2916 26.8973 29.7653 26.1383 29.4293 26.4298C28.7139 27.0497 29.3673 27.0054 29.3174 27.1746C29.2976 27.241 28.8049 27.7443 28.7816 27.7517C28.6787 27.7838 28.9187 27.3395 28.8664 27.3283C28.677 27.2907 28.1963 27.754 27.9838 27.7609C27.2608 27.7838 26.4803 27.6567 25.9656 27.4512C25.7743 27.3742 26.123 26.7094 26.0389 26.6725C25.8419 26.5865 25.4339 27.0877 25.2673 27.0057C25.1093 26.9293 25.0644 26.6277 25.025 26.3577C25.0023 26.202 24.9815 26.0568 24.9418 25.9714C24.8664 25.8104 24.3778 26.2251 24.336 26.2128C23.7476 26.0517 23.2039 25.6263 22.8232 25.3503C22.644 25.2206 22.9814 24.5958 22.9325 24.5849C22.723 24.5371 22.4049 25.049 22.314 24.905C22.2645 24.8276 22.5975 24.3569 22.6018 24.332C22.6347 24.1192 22.167 24.7092 22.089 24.6816C21.6399 24.5228 21.5852 23.866 21.2685 23.5382C21.2458 23.514 21.4482 23.249 21.421 23.25C21.2992 23.261 21.0179 23.7064 20.9191 23.68C20.7122 23.6269 20.6021 23.4358 20.4746 23.2571C20.4619 23.2394 20.7116 22.8909 20.6738 22.8623C20.6358 22.8338 20.3632 23.1373 20.3171 23.0744C20.1966 22.9104 20.3344 22.4063 20.1853 22.2612C20.1603 22.2377 19.8167 22.6254 19.7791 22.5901C19.7726 22.5841 19.7668 22.5769 19.7615 22.5685C19.6702 22.4246 19.7463 21.9571 19.6519 21.8661C19.3204 21.551 18.8089 21.5347 18.4644 21.2811C18.3841 21.2206 18.5998 20.7844 18.5648 20.7439C18.4852 20.6535 18.2852 21.0685 18.1885 20.9984C17.4009 20.4219 16.7405 19.6697 15.929 19.1062C15.6108 18.8842 14.9526 18.9751 14.7302 18.6469C14.7043 18.608 14.714 18.5387 14.7392 18.4577C14.8031 18.2525 14.967 17.9724 14.9063 17.9217C14.7534 17.7978 14.2442 18.4174 14.0304 18.3569C13.8604 18.3077 14.1886 17.5541 14.0212 17.4902C13.8538 17.4265 13.3241 18.0003 13.1101 17.9561C12.9342 17.9191 12.9638 17.5006 12.7877 17.4398C11.3539 16.9463 10.0328 16.3352 9.0942 15.1771C8.97575 15.031 8.8634 14.8761 8.75768 14.7117C8.42486 14.1938 7.84577 13.8989 7.8269 12.9302C7.82546 12.8388 8.34416 12.29 8.10594 12.3084C7.97747 12.3189 7.48184 12.7552 7.28403 12.6473C6.27387 12.0939 5.90935 10.5707 5.03678 9.77975C4.8947 9.65096 4.73916 9.54159 4.56517 9.45897C2.70238 8.57717 -2.17521 11.5927 1.10851 4.28977C1.26984 3.93121 2.43523 2.45516 2.79696 2.0588C2.6062 2.3929 2.36956 2.78216 2.15096 3.1571C3.61089 1.31563 3.235 1.79828 3.29551 2.1072C3.33208 2.29829 3.84292 1.42559 4.07538 1.24349C4.37605 1.00834 5.44581 0.360182 4.44053 1.55089C4.62551 1.35248 4.80192 1.16179 4.9829 0.967489C5.39465 0.981867 5.89109 0.867313 6.4234 0.708575C6.51591 0.680417 6.81091 0.291473 6.90482 0.264573C7.15916 0.189497 7.06738 0.521518 7.22761 0.579968C7.31451 0.611903 7.66281 0.168007 7.73407 0.266566C7.80514 0.365264 7.34621 0.972934 7.96948 0.40585C8.46023 -0.420409 8.41238 0.410305 8.57861 0.461409C8.60217 0.469578 9.27301 -0.100242 9.29664 0.0408078C9.32163 0.18063 9.11879 0.713928 9.43406 0.561315C9.58208 0.4895 10.0197 -0.0178644 10.1076 0.000470503C10.1692 0.0134805 9.86762 0.530021 9.91064 0.593246C9.95369 0.656387 10.3715 0.36008 10.3993 0.370857C10.5015 0.407131 10.1595 0.672822 10.2035 0.732128C10.4199 1.01315 10.6032 1.43048 11.0414 1.40777C11.095 1.40536 11.3444 0.977221 11.3587 0.967398C11.946 0.652993 11.4411 1.07597 11.2375 1.47408C11.2233 1.50189 11.213 1.52841 11.2065 1.55342C11.1227 1.87463 11.648 1.94683 12.1273 1.31399C11.4976 2.18106 12.0844 1.59817 12.1281 1.59166C12.2977 1.56706 11.7225 2.29443 11.9884 2.13539C12.0854 2.07766 12.3944 1.52614 12.4203 1.56858C12.4844 1.67362 11.9627 2.5406 12.024 2.71248C12.0386 2.75428 12.3171 2.40273 12.3603 2.45407C12.4033 2.50565 12.2934 3.10892 12.7596 2.27653C12.4379 2.9825 12.7143 2.66985 12.8564 2.80255C12.8917 2.83703 12.5086 3.45292 12.7264 3.33622C12.8003 3.29654 13.2173 2.73872 13.2632 2.766C13.3692 2.82679 13.0281 3.47217 13.1342 3.58735C13.3315 3.80417 13.8808 3.58259 14.0127 3.90707C14.0482 3.99564 13.6118 4.54363 13.6986 4.62565C13.7125 4.63612 14.1902 4.2374 14.2217 4.33216C14.2406 4.38912 14.1898 4.88302 14.2106 4.94132C14.2459 5.03634 14.6645 4.50367 14.6224 4.63766C14.5013 5.02415 13.8165 5.75667 14.7648 4.76313C14.3539 5.4 14.4753 5.39648 13.9412 6.15933C14.5974 5.37652 14.0668 6.20352 14.3576 5.99452C14.6485 5.78533 15.9041 4.25768 14.6496 5.97374C14.8446 5.79713 15.2799 5.57247 15.3281 5.56823C15.4676 5.559 15.0694 5.99535 15.1811 5.97984C15.2004 5.97766 15.4298 5.64716 15.4784 5.73315C15.5099 5.79005 15.8431 6.07078 15.8309 6.13044C15.8239 6.16422 15.8167 6.1952 15.8093 6.22361C15.747 6.46277 15.6696 6.51969 15.5771 6.53324C15.459 6.55054 15.3165 6.49714 15.1501 6.66219C15.2096 6.56398 15.2694 6.46552 15.3275 6.36792C15.3367 6.13747 14.8513 6.90885 14.7723 7.11315C14.6934 7.3174 15.0249 7.06024 14.8854 7.32843C14.8153 7.46297 14.1497 8.32502 14.1691 8.17519C14.0315 8.49128 13.7321 8.70942 13.5681 8.98049C13.5009 9.09165 13.4899 9.20316 13.5214 9.27414C13.5741 9.39294 13.7459 9.39823 13.9722 9.09844C13.9313 9.04166 13.8524 9.00837 13.8132 8.94811C14.3682 8.06083 16.7197 5.37266 16.0628 6.65848C15.5879 7.58914 14.8613 8.06754 15.7176 7.62954C15.6908 7.55714 15.7053 7.44628 15.6843 7.37593C16.1485 6.74649 15.7091 7.49187 15.8979 7.32243C15.9898 7.23933 16.2052 6.70864 16.4173 6.63732C15.8335 7.59748 16.5756 6.74786 16.7299 6.84698C16.5696 6.97604 16.4098 7.10425 16.2495 7.23331C16.0101 8.06763 15.2752 7.85092 15.4837 8.57471C15.4042 8.56016 15.3524 8.50931 15.2612 8.50972C15.0431 8.85917 14.2753 9.78904 14.1478 10.0116C13.8131 10.5957 14.1527 10.3469 14.1982 10.4544C14.2187 10.5007 14.0016 10.7444 14.0035 10.7482C14.0302 10.8133 14.3056 10.4239 14.3663 10.4314C14.4425 10.4411 14.3187 10.9276 14.3754 10.9041C14.521 10.8447 14.9777 10.0113 15.0261 9.95972C15.3408 9.62611 15.1983 9.99164 15.5516 9.51145C15.1027 9.68754 14.8343 8.82796 15.9544 8.4358C16.3865 7.55604 17.2253 6.52541 17.4975 6.59898C17.7233 6.6591 17.2923 7.0008 17.0315 7.53653C16.9992 7.60388 17.0635 8.00181 17.3236 7.67984C16.7427 8.43493 16.3121 9.16646 15.6718 9.91468C15.5777 10.0246 15.5166 9.90758 15.0757 10.5647C14.8542 10.8947 14.3835 11.6216 14.0727 12.0201C14.3031 11.7537 14.5607 11.4528 14.8005 11.1745C15.0049 11.1996 14.798 11.5176 14.4829 12.1004C14.6435 11.8789 15.261 10.9053 15.1608 11.2671C15.1539 11.288 14.9112 11.6217 14.8441 11.8271C14.7104 12.2397 14.6573 12.3594 13.8441 13.2638C14.4917 12.8857 13.7318 14.0035 14.2076 13.8668C15.0945 12.5853 14.7791 12.8308 14.3803 12.9068C14.593 12.6034 14.8086 12.3067 15.0233 12C14.8107 12.89 14.7182 12.7137 15.3343 12.2358C15.4853 12.1187 15.5822 12.4379 16.1395 11.5452C16.2706 11.3351 16.1198 11.2575 16.3685 10.9578C16.4159 10.9008 16.6916 10.872 16.6456 10.9631C16.0813 12.0904 15.2411 12.5409 16.0077 12.5508C16.0293 12.5504 16.3062 12.1913 16.3707 12.1608C16.4915 12.1042 16.177 12.5249 16.2945 12.4615C16.4123 12.3979 16.8982 11.8793 16.5738 12.4523C15.9835 13.496 15.2826 13.8252 15.5315 13.2236C14.5467 14.4272 15.4508 15.1481 15.5879 15.0847C16.1856 14.809 15.5687 14.7642 15.8058 14.4033C15.9063 14.2508 17.2976 12.405 16.2923 13.5258C15.9945 13.858 15.7734 14.4242 15.5486 14.562C15.3238 14.6997 15.763 14.1784 15.7858 14.1361C15.8641 13.9914 15.63 14.1312 15.6772 14.046C16.3909 12.7505 17.7339 10.9914 15.9912 13.7708C16.5298 13.2511 17.0178 12.1449 17.4371 11.8325C17.9468 11.4529 17.4194 12.3749 17.409 12.4265C17.2888 13.0388 17.9618 11.6203 17.9318 12.2123C17.9152 12.5418 17.0966 12.8659 17.4939 13.0381C17.8272 13.1812 17.9963 12.6384 18.7474 11.6797C18.9231 11.4554 19.2873 11.2919 19.0017 11.2343C18.8054 11.4836 18.5434 11.8096 18.3545 12.0336C18.4418 11.8096 19.3083 10.4751 19.3142 10.4102C19.3387 10.0986 18.8508 10.7626 19.3541 9.92705C18.7735 10.8186 19.0656 10.238 18.8967 10.3915C18.2732 10.9565 18.2566 11.3279 18.6065 10.2634C18.3453 10.6896 18.0861 11.1057 17.8248 11.5295C17.7802 11.5174 17.7352 11.5055 17.6905 11.4934C18.2968 10.578 18.0298 10.553 18.8575 9.7944C18.8464 9.39434 18.6225 9.52509 18.0673 10.1745C17.9613 10.2985 17.8924 10.3281 17.8478 10.3143C17.7106 10.5111 17.2746 11.1101 17.2146 11.1786C16.6856 11.7807 17.437 10.6188 17.7793 10.2169C17.7698 10.1783 17.7681 10.14 17.7689 10.1246C17.7744 10.0265 18.1457 9.70943 18.2084 9.55228C18.2286 9.50108 18.0436 9.49193 18.1575 9.33519C18.8877 8.33073 18.5522 9.19894 18.5795 8.31738C17.8915 9.21422 18.2291 9.15673 17.4604 10.0809C16.6346 11.0736 17.5667 9.61018 16.5941 10.8587C16.7416 10.6441 16.868 10.4677 17.0382 10.2252C16.4605 10.6536 17.249 9.5977 17.3734 9.32735C17.6168 8.79995 17.118 8.53245 16.835 9.74721C16.7078 9.79431 16.6162 9.79147 16.4973 9.82815C17.9014 7.92812 17.3729 8.70709 17.3077 8.20712C17.2935 8.09678 17.8968 7.25037 17.0954 8.19205C17.8301 7.22978 17.2078 7.67724 17.2788 7.54686C17.7422 6.70016 18.948 5.94207 17.7161 7.69347C18.2849 7.07847 17.6238 7.95952 17.7882 7.90036C18.0258 7.81494 18.1699 7.65488 17.8139 8.40414C18.6309 7.58508 17.6084 7.62009 18.9067 6.69425C20.0868 5.85288 22.4743 6.61093 23.3964 6.91478C23.4887 6.94522 23.5664 6.9711 23.6267 6.99035C24.8254 7.37415 25.4873 7.53378 26.3009 8.22945C26.3817 8.29723 27.084 8.68667 26.1576 9.6464C26.0246 9.78411 25.4488 9.98154 25.0602 10.9888C25.3805 10.4622 25.7576 10.2471 25.8079 10.2041C26.9534 9.23025 27.0151 8.82762 27.4425 9.12916ZM21.599 19.5036C21.2343 18.8526 21.1045 19.8613 19.7921 21.3749C19.8587 21.432 19.9252 21.4887 19.9919 21.5458C20.0487 21.4317 20.1055 21.3181 20.1623 21.204C20.1622 21.204 20.1621 21.2039 20.1621 21.2039C20.6409 20.6371 21.1202 20.0704 21.599 19.5036ZM29.7201 27.2667C29.541 27.4612 29.3617 27.6563 29.1842 27.845C29.1611 27.7255 29.1373 27.6075 29.1142 27.4881C29.2299 27.3517 29.3466 27.2134 29.4624 27.0771C29.5431 27.1471 29.6232 27.2176 29.7201 27.2667ZM15.2816 13.3977C15.6183 12.7361 14.8445 13.787 15.0656 13.2096C14.5044 13.9924 13.9577 14.7599 13.4031 15.5358C13.5919 15.4993 13.8351 15.2239 13.806 15.4963C13.9787 15.2389 14.1521 14.9798 14.3262 14.7211C14.2677 14.7602 14.2025 14.8057 14.1491 14.8392C14.64 14.1248 14.8967 14.1558 15.2832 13.3964C15.2827 13.3968 15.2822 13.3973 15.2816 13.3977ZM14.0027 12.923C14.023 12.7815 14.0882 12.2413 13.8192 12.5381C12.9071 13.5447 14.0359 13.3184 12.862 13.941C12.7502 14.0944 12.6366 14.2416 12.5239 14.3919C12.5665 14.5069 12.6144 14.6144 12.6656 14.7193C13.1102 14.1173 13.5565 13.5285 14.0027 12.923ZM19.5745 18.0896C19.5527 17.9429 18.7686 18.1501 18.3858 18.9337C18.274 19.1632 19.1888 18.3177 19.2252 18.4115C19.2488 18.4721 18.7961 18.9724 19.0316 18.8403C19.2054 18.6005 19.4 18.336 19.5731 18.091C19.5736 18.0905 19.5741 18.0901 19.5745 18.0896ZM22.0782 15.0811C21.9192 15.1114 21.7397 15.1663 21.5755 15.2022C21.1804 15.8626 21.6015 15.5639 20.9628 16.4311C20.8897 16.4784 20.8173 16.5255 20.7442 16.5728C20.8671 16.3706 20.9904 16.1685 21.1136 15.9665C20.6872 16.378 20.5584 16.6448 20.5195 16.4042C19.6276 17.7702 19.1191 18.4811 20.3477 17.3439C19.7724 18.0164 18.0883 20.3509 19.4556 18.8055C19.7096 18.5187 19.7586 18.2365 19.7939 18.187C20.2313 17.5704 20.5785 17.2279 20.9897 16.6438C21.1757 16.3797 21.1092 16.336 21.3687 15.9702C21.4955 15.792 21.9303 15.3381 22.0782 15.0811ZM19.9527 18.2775C19.651 18.6235 19.0915 19.5618 19.3038 19.4457C19.6339 19.2659 20.0568 18.2915 19.9527 18.2775ZM29.7212 27.2662C29.7208 27.2664 29.7205 27.2665 29.7201 27.2667C29.7208 27.2659 29.7215 27.2652 29.7222 27.2645C29.7218 27.2651 29.7215 27.2657 29.7212 27.2662ZM13.968 13.5592C13.6698 13.822 13.6081 13.7048 13.2439 14.2051C13.2854 14.0842 13.3253 13.9647 13.3668 13.8438C13.2555 13.9928 13.1442 14.1424 13.0341 14.29C13.0592 14.4537 13.0839 14.6174 13.1079 14.7827C13.3946 14.3756 13.6834 13.9678 13.968 13.5592ZM13.1965 12.4389C13.115 12.2995 12.7097 13.0478 12.4397 13.3534C12.1696 13.659 12.262 13.315 11.9246 13.7908C11.981 13.8616 12.0403 13.9347 12.0987 14.0047C12.4607 13.4831 12.8354 12.9563 13.1962 12.4387C13.1963 12.4387 13.1964 12.4388 13.1965 12.4389ZM23.4292 21.7049C23.4579 21.4984 23.8762 21.0092 23.2655 21.4914C23.2656 21.4915 23.2657 21.4916 23.2659 21.4917C23.1019 22.0263 23.0158 22.5479 23.4886 22.2663C23.7928 21.6473 23.3853 22.0281 23.4292 21.7049ZM14.4268 15.1258C14.7662 14.7441 14.8625 14.285 14.5438 14.6371C14.0278 15.2069 13.911 15.7053 14.4268 15.1258ZM29.3951 20.5439C29.8366 20.0616 30.2366 19.5068 30.5033 19.0534C30.8789 18.4148 30.9903 17.9772 30.5813 18.2257C30.5204 18.2631 30.3787 18.7798 30.1486 18.9895C30.1258 19.01 30.0618 18.9154 29.9097 19.0737C29.7573 19.2324 29.4755 19.6549 29.3128 19.7988C29.0282 20.0502 29.3027 19.3949 28.9639 19.7508C28.9186 19.7986 28.5978 20.4057 28.5878 20.4304C28.4301 20.8249 29.0472 20.1797 29.0644 20.1852C29.153 20.2137 28.7253 20.7617 28.6451 20.9057C28.4944 21.1767 28.7377 20.9753 28.7282 20.9966C28.4693 21.5643 28.3299 21.2418 28.1466 21.4176C27.6521 21.892 27.3571 22.4566 26.9152 22.6024C26.8734 22.616 26.6559 22.4019 26.4939 23.2531C24.9221 24.1017 26.2412 24.2168 26.5531 24.0043C26.6974 23.9056 27.0267 23.3246 27.2329 23.1066C27.5885 22.7304 27.7774 22.6286 28.0922 22.2682C28.1947 22.1508 28.3106 22.006 28.4499 21.8153C28.5874 21.6272 28.6966 21.4734 28.7823 21.348C29.4403 20.3863 28.7203 21.0983 28.8157 20.7939C29.0891 20.4504 29.3497 20.1109 29.626 19.7815C29.2806 20.1868 29.3079 20.5661 29.3747 20.5581C29.3805 20.5574 29.3866 20.5538 29.3928 20.5471C29.3936 20.546 29.3944 20.545 29.3951 20.5439ZM26.4943 21.2544C26.7257 20.6657 25.9699 21.6933 26.2844 21.0174C25.4885 21.8522 25.7489 21.9514 25.7351 22.0218C25.6759 22.3382 24.926 23.3326 25.2725 23.1135C25.6746 22.4939 26.0887 21.8737 26.4943 21.2544ZM27.3485 22.5522C26.8711 23.0014 27.0386 23.1134 26.971 23.217C26.2561 24.3184 25.9269 23.7533 27.3485 22.5522ZM20.5905 15.6437C20.571 15.5745 20.2289 16.0909 20.0791 16.2068C19.9282 16.3239 20.1077 15.7971 19.8803 16.1075C19.6525 16.4186 19.3053 17.4083 18.9216 17.3912C18.8003 17.5708 18.7006 17.6978 18.5874 17.8574C18.6537 17.9142 18.7184 17.9746 18.7848 18.0315C19.1203 17.5044 19.4743 16.9506 19.7987 16.4414C20.1354 16.0741 19.7758 16.5994 19.7779 16.6009C19.7783 16.6004 19.7787 16.5999 19.7791 16.5993C19.882 16.6142 20.6348 15.7984 20.5905 15.6437ZM23.0233 19.8947C23.9658 18.6664 22.8207 19.9688 22.6613 20.0891C22.5024 20.2089 22.7855 19.7048 22.4086 20.2549C22.2043 20.6763 22.9181 20.0318 23.0245 19.8931C23.0241 19.8936 23.0237 19.8941 23.0233 19.8947ZM25.762 20.7088C25.4238 20.9249 25.2002 21.2603 25.3379 20.7895C25.1187 21.0929 24.8946 21.4028 24.6788 21.7016C24.7838 21.7899 25.4279 20.915 25.2926 21.3594C25.2701 21.4327 24.705 22.0935 24.9661 21.9407C25.2167 21.5498 25.4974 21.1178 25.762 20.7088ZM24.3709 21.3999C24.5346 21.4512 26.4541 19.1057 25.3963 20.0196C25.2384 20.1564 24.2473 21.3618 24.3709 21.3999ZM21.8302 16.4779C21.6624 16.2429 21.6194 16.8214 21.3975 17.2367C20.6616 17.15 21.5318 17.1782 20.6543 18.4546C20.9814 18.149 21.7033 17.4307 21.735 17.1171C21.7479 16.9867 21.4913 17.3702 21.4891 17.3663C21.4575 17.2001 21.922 16.606 21.8302 16.4779ZM26.7727 21.37C26.7507 21.382 26.4501 21.8099 26.361 21.8737C26.2723 21.9368 26.432 21.5992 26.2336 21.8514C26.034 22.1052 26.0039 22.3955 26.1818 22.235C26.3611 22.0727 26.9686 21.2653 26.7727 21.37ZM26.7007 19.7058C26.365 19.9243 25.3894 21.5998 25.4187 21.6105C25.6893 21.6876 26.3286 20.189 26.7007 19.7058ZM24.3041 14.2445C23.4517 14.8281 22.6259 16.3337 22.1812 17.2729C22.3273 17.1238 22.4742 16.9749 22.6189 16.8271C21.7647 17.7583 20.8441 18.6215 21.8906 18.0364C21.8553 17.64 22.2362 17.5034 22.2802 17.4477C23.6895 15.6174 22.7306 16.2391 24.3043 14.2447C24.3042 14.2447 24.3041 14.2446 24.3041 14.2445ZM26.8001 22.0788C26.9202 22.1593 27.4599 22.0653 27.9238 21.1549C27.5492 21.4627 27.1747 21.771 26.8001 22.0788ZM19.8782 11.0941C20.1291 10.5629 20.0362 10.5054 19.8971 10.4486C19.4993 11.1973 19.3727 11.2226 19.2143 11.3602C18.9754 11.5671 19.1204 11.6442 19.0869 11.6896C18.607 12.3245 18.4501 12.3613 18.6499 12.4875C18.437 12.6743 18.2234 12.8633 18.0116 13.0486C18.1336 13.1853 17.8558 13.626 17.5663 14.2018C18.4079 12.8955 17.9421 13.7592 18.5105 13.2215C18.7949 12.9522 19.7496 11.3656 19.8778 11.0938C19.878 11.0939 19.8781 11.094 19.8782 11.0941ZM24.2164 13.79C24.0216 13.9929 23.77 14.2763 23.5521 14.5117C23.5051 14.5145 23.4602 14.5142 23.4132 14.5169C23.5577 14.3167 23.7097 14.1079 23.848 13.9149C23.8531 13.829 23.6617 14.115 23.6311 14.1324C23.6319 14.1313 23.6327 14.1303 23.6335 14.1292C23.1983 14.3725 23.1629 14.2818 23.4941 13.5762C23.0403 14.1813 22.5864 14.7864 22.1326 15.3915C22.2044 15.3551 22.2754 15.3204 22.346 15.2856C22.605 14.9718 22.8642 14.6579 23.1232 14.3441C23.0216 14.5481 22.9207 14.7507 22.8192 14.9547C22.9333 14.8576 23.0572 14.7584 23.1655 14.6616C22.0286 16.4515 22.5914 15.0784 22.0622 15.7785C21.722 16.2284 22.0377 16.4344 22.3147 16.1554C22.3551 16.1145 23.2346 14.8064 22.8526 15.5451C22.7923 15.6613 20.7549 18.3905 22.5283 16.2734C22.7799 15.9731 23.9903 14.2361 24.2164 13.79ZM23.7826 12.0917C22.6446 13.9616 23.4024 11.6502 22.5961 13.2866C21.9187 14.0297 21.9408 14.03 21.4851 14.7989C21.4441 14.8678 21.2256 15.0476 21.2091 15.079C20.9875 15.5254 21.2307 15.383 20.6967 16.0961C20.7448 16.0728 20.7886 16.0529 20.8366 16.0296C21.2587 15.2969 21.7269 14.9428 22.2022 14.4137C22.4175 14.1741 22.4244 14.0555 22.6121 13.8453C22.6808 13.7686 22.6313 13.9874 22.8107 13.7544C23.2158 13.2272 23.7089 12.4739 23.9249 12.0233C23.9253 12.0227 23.9256 12.0222 23.926 12.0217C23.8803 12.0419 23.8295 12.07 23.7826 12.0917ZM26.313 16.2519C25.6192 17.237 25.5278 17.5993 24.9527 17.9041C24.8214 18.1021 24.6915 18.2988 24.5602 18.4967C24.6101 18.5081 24.6588 18.5187 24.7082 18.532C26.951 15.779 24.7566 19.1383 26.1332 17.0252C26.2827 16.7955 26.0107 16.9735 26.5439 16.445C26.5442 16.4444 26.5444 16.4437 26.5447 16.4431C26.2857 16.5338 26.0142 16.8636 26.313 16.2519ZM24.9907 16.31C23.1882 18.1257 24.532 17.7334 24.8233 17.1113C24.8496 17.0551 24.2336 17.2737 24.9907 16.31ZM28.5769 16.2428C28.4766 16.113 27.6479 17.2005 27.3653 17.6039C27.0817 18.0086 27.4687 17.675 27.4334 17.7457C27.3163 17.9785 27.1366 18.0554 26.9735 18.3724C26.9209 18.4756 26.8487 19.0307 26.8941 18.9911C27.1463 18.7715 27.7413 17.8076 27.8348 17.7163C28.141 17.4168 27.8599 17.9395 28.2349 17.471C29.0355 16.4716 28.0971 17.4472 28.0617 17.4479C27.9578 17.446 28.396 16.874 28.4322 16.7207C28.4682 16.5676 28.2871 16.7403 28.2733 16.6661C28.2687 16.6414 28.5805 16.2513 28.5769 16.2428ZM26.4264 18.2391C27.1795 17.5102 27.5333 16.3685 27.3498 16.5338C26.8056 17.0256 26.0669 18.5868 26.4264 18.2391ZM22.2335 15.0398C22.8045 14.5301 22.8875 13.8333 22.6258 14.0146C22.4537 14.2752 22.037 15.2152 22.2335 15.0398ZM24.3753 14.3029C24.1241 14.4066 23.2571 15.8693 23.3657 15.9175C24.0865 15.0695 23.9033 15.2073 23.8701 15.1254C23.8372 15.0433 24.5711 14.2223 24.3753 14.3029ZM29.207 18.2597C29.1936 18.2276 28.2566 18.6726 28.2495 19.1442C28.2493 19.1797 28.6165 19.253 28.7396 19.1316C28.9883 18.886 29.2391 18.3455 29.207 18.2597ZM25.8924 13.3896C25.257 14.1142 25.2069 14.0605 24.584 15.0037C24.5841 15.0037 24.5842 15.0038 24.5843 15.0038C24.2282 15.1687 25.6066 13.3172 25.5449 13.3327C25.3288 13.3872 24.4493 14.7812 24.0553 15.16C24.5231 14.877 23.8116 15.7279 23.8938 15.8775C23.9126 15.9105 24.4212 15.4651 24.6848 15.1476C24.9485 14.8299 25.6331 13.7983 25.8924 13.3896ZM29.896 18.477C29.9866 18.0848 28.9329 19.2412 28.9654 19.5743C28.9807 19.7377 29.8411 18.716 29.896 18.477ZM17.1042 8.39613C16.879 8.73772 16.6555 9.07839 16.4342 9.41805C16.3269 9.46099 16.2183 9.50553 16.1098 9.54999C16.2253 9.47515 16.3397 9.40192 16.4544 9.32882C16.4496 9.14717 16.854 8.52196 17.1039 8.39595C17.104 8.39601 17.1041 8.39607 17.1042 8.39613ZM14.0781 5.73768C14.2736 5.39283 13.4635 6.30724 13.4166 6.3908C13.0679 7.01399 13.807 6.21585 14.0781 5.73768ZM24.2741 11.9472C24.2262 11.6984 23.1415 13.3596 23.1521 13.5371C23.323 13.192 24.3011 12.0886 24.2741 11.9472ZM15.1501 6.66219C15.0614 6.80846 14.9729 6.95481 14.8857 7.1025C14.9802 6.87755 15.0675 6.74404 15.1501 6.66219ZM30.1945 16.815C30.2628 16.6763 30.1686 16.4488 30.033 16.582C29.7484 16.8624 29.2247 17.836 29.5042 17.6254C29.5345 17.6029 30.1262 16.9537 30.1942 16.8147C30.1943 16.8148 30.1944 16.8149 30.1945 16.815ZM17.3561 7.63717C17.345 7.65253 17.334 7.66688 17.3236 7.67984C17.3344 7.66584 17.3453 7.65119 17.3561 7.63717ZM12.1802 1.24065C12.1627 1.26591 12.1449 1.29066 12.1273 1.31399C12.1441 1.29074 12.1616 1.26602 12.1802 1.24065ZM30.0078 14.5741C31.0832 13.0228 30.3512 13.7279 29.8943 14.551C29.8706 14.5946 29.9964 14.5608 30.0078 14.5741Z" fill="#FFCB32"/>
</svg>
