<svg width="76" height="81" viewBox="0 0 76 81" fill="none" xmlns="http://www.w3.org/2000/svg">
<path d="M20.0871 27.657C20.151 29.6812 20.0743 31.6987 19.8955 33.6597C19.6821 36.0016 19.3266 38.2628 18.901 40.4058C18.4698 42.5736 17.9679 44.6218 17.4452 46.5276C17.3546 46.858 17.2634 47.1833 17.1714 47.5051C16.9775 48.1854 16.4592 48.0177 16.3462 48.1946C16.0362 48.677 16.5934 49.1266 16.4664 49.4915C16.1579 50.3831 15.9011 51.2359 15.6644 52.0725C15.4294 52.9023 15.2134 53.7216 14.9915 54.5291C14.5589 56.1262 12.9905 55.1637 12.5079 55.7148C11.579 56.8484 13.877 56.0228 14.3213 56.5372C14.2775 56.7614 14.2322 56.9905 14.1868 57.2235C14.0065 57.8985 13.8172 59.2377 13.6437 60.4463C13.4298 60.0718 13.2229 59.7539 13.028 59.3768C12.9897 60.0053 12.6722 60.9509 12.0751 59.876C11.9206 60.1102 11.7402 60.3483 11.5915 60.5996C11.8528 60.6151 12.0386 60.7436 12.1875 60.9177C12.496 61.2895 12.6468 61.8194 12.9697 61.8832C13.4478 61.9695 13.3182 61.3346 13.3603 61.3393C13.9464 61.3467 13.2405 64.0395 13.1899 64.2422C13.0389 64.7575 12.025 64.3604 12.1102 64.7906C12.1444 64.9637 12.2792 65.0646 12.4323 65.1311C12.9364 65.3519 13.6362 65.1965 11.622 66.0872C12.5168 66.4434 12.066 66.504 12.0367 67.0179C12.0333 67.0857 12.5346 67.0024 12.5496 67.0311C12.9725 67.7803 11.9971 67.2458 11.9465 67.2523C11.0872 67.3782 11.5252 68.1861 11.455 68.3667C11.306 68.7517 11.1665 69.1196 11.0374 69.4767C10.4982 70.9723 10.1364 72.2813 10.0507 73.8485C10.0364 74.1179 10.0293 74.3838 10.0332 74.6764C10.0344 75.1772 10.578 76.6626 10.507 77.1454C10.4353 77.6405 9.78097 77.4826 9.5245 77.7794C10.0651 77.8372 10.4434 77.9114 10.6712 78.0251C11.1007 78.2674 10.9984 78.5972 10.4902 79.3012C11.6231 79.3572 10.7552 79.5494 11.1083 80.0379C10.8048 80.6127 14.6334 80.4403 9.5127 80.192C13.4356 80.5254 10.8741 81.1872 10.9155 80.7139C10.6944 80.6405 10.156 78.1248 9.10796 78.4798C8.55022 78.6938 9.24332 79.4675 9.15006 79.5261C8.58299 79.8694 7.71316 79.4867 7.9001 79.0009C8.04485 79.0901 8.19535 79.1968 8.34191 79.2881C8.85285 78.3159 6.77145 79.0915 7.84013 78.5049C8.00009 78.4211 8.23023 78.3083 8.55012 78.1574C8.85318 78.0139 9.19038 77.9954 9.50443 77.7914C9.35958 77.7824 9.04258 78.0229 8.95498 77.8733C8.86621 77.721 9.47621 77.297 8.91547 77.3432C8.09435 77.3813 8.52108 78.0416 8.48241 78.0917C8.48737 78.0914 8.49233 78.0912 8.49728 78.0909C8.14283 78.6139 7.94026 77.6743 7.85765 77.6278C7.31092 77.4106 6.95269 77.6723 6.47179 77.2801C6.19536 77.042 6.25048 76.3802 6.14355 76.1415C6.03452 75.9068 5.69843 76.3351 5.59561 76.1807C5.49234 76.0228 5.75945 75.787 5.6418 75.6104C5.59016 75.5344 5.16263 75.5885 5.14304 75.5507C4.92918 75.1436 5.8517 75.3218 5.7538 74.9409C5.71607 74.7954 5.38686 74.4901 5.08223 74.3715C4.91684 74.3081 4.75868 74.3028 4.6587 74.4161C4.62792 74.451 4.60267 74.4971 4.58446 74.556C4.56624 74.5138 4.54863 74.4717 4.53151 74.4295C4.44006 74.2052 4.36217 73.9748 4.28246 73.7509C4.17179 73.9336 4.10414 74.1297 3.97187 74.3156C4.12133 73.764 3.36618 73.6136 3.27973 73.2868C3.19382 72.9603 4.0485 72.5898 3.58704 72.2713C2.60405 71.5843 3.19514 73.4474 3.05914 73.7022C3.00397 73.8011 2.27945 73.5138 2.25453 73.4597C2.14485 73.2243 2.61125 72.8842 2.57265 72.7037C2.43014 72.045 1.74344 71.6865 1.56074 71.0597C1.48006 70.781 1.40089 70.4942 1.32373 70.2013C0.948054 68.774 0.621897 67.2013 0.394952 65.7549C0.309205 65.2094 0.237528 64.6854 0.181714 64.1929C0.0953572 63.4255 0.813734 62.9336 0.78072 62.5896C0.71381 61.8805 0.222824 61.7426 0.0575657 61.2368C0.0322723 61.1608 0.0147923 61.0772 0.00795113 60.9834C-0.0714306 59.9013 0.46635 58.4439 0.618433 57.2891C0.671416 56.8971 0.545179 56.4617 0.415454 56.1641C0.292073 55.9257 0.161328 55.7375 0.161086 55.6562C0.140531 53.5743 0.527989 51.0146 0.857771 49.2743C0.912317 48.9806 0.965991 48.701 1.01624 48.4415C1.1851 47.5728 1.95405 47.314 1.97018 47.1356C2.04416 46.3692 1.41926 46.4427 1.60885 45.8527C1.71119 45.5347 2.28337 45.598 2.31467 45.5596C2.5827 45.2209 1.87013 44.9839 1.91205 44.6841C1.99004 44.1265 2.13132 43.5959 2.30074 43.0806C2.65459 42.0044 3.13161 40.993 3.41348 39.9384C3.44412 39.8254 3.76517 39.9066 3.76482 39.8289C3.75475 39.4945 3.21349 39.5305 3.2478 39.1934C3.30813 38.5747 3.49398 37.976 3.67683 37.3675C3.70091 37.2874 3.72496 37.2069 3.74864 37.1263C3.76872 37.0578 4.19256 37.1081 4.22382 36.9478C4.25482 36.7874 3.88199 36.5905 3.95061 36.3465C4.1292 35.7086 4.71546 35.1553 4.84733 34.4817C4.86848 34.3704 4.38302 34.1547 4.41292 33.9909C4.50762 33.4771 5.06701 32.7759 5.13068 32.3398C5.14172 32.2648 5.15157 32.1902 5.16032 32.116C5.31905 30.7628 5.11841 29.537 5.09984 28.3577C5.09635 28.0665 5.56203 27.7929 5.56687 27.6376C5.5754 27.2925 5.14016 27.5717 5.11962 27.2305C5.11867 27.2156 5.11772 27.2008 5.11676 27.1859C4.99041 25.5187 4.89313 24.4563 4.4585 22.7626C4.17091 21.7213 3.92292 20.9643 3.52559 19.9116C3.38765 19.5483 3.24141 19.1797 3.08624 18.8016C2.83097 18.1773 2.43698 17.5093 2.03666 16.7614C1.61515 15.9719 1.18212 15.0883 0.9398 14.0645C0.748456 13.2153 1.30542 12.8825 1.16217 12.1626C1.15254 12.1115 1.14228 12.0618 1.13144 12.0133C0.941996 10.6514 -0.0942742 10.5956 0.349921 7.56468C0.669128 4.48877 5.19617 1.78496 6.77921 1.63109C6.78673 1.62847 6.79422 1.62586 6.80169 1.62326C8.5548 1.06927 9.07963 0.322153 10.4683 0.189759C11.4511 0.121637 12.4861 0.478821 13.28 0.612712C13.3956 0.631788 13.5218 0.648475 13.6256 0.656341C15.1402 0.782767 16.3748 0.963814 17.5391 1.15844C17.1805 1.03877 16.8598 1.01327 17.0663 0.998437C17.1856 0.979797 17.4434 0.957525 17.7599 0.931091C18.0786 0.905152 18.4632 0.876248 18.9097 0.855252C19.3585 0.834958 19.8662 0.820445 20.4859 0.840621C21.1081 0.865529 21.8271 0.907816 22.8301 1.11594C23.6367 1.26182 25.6188 1.87362 27.0384 3.06065C27.0384 3.06063 27.0385 3.06068 27.0384 3.06067C27.2007 3.17782 26.9677 2.99415 26.9104 2.96482C26.7955 2.89202 26.5822 2.77712 26.3222 2.68154C26.0652 2.58458 25.7797 2.52015 25.6186 2.49988C25.4529 2.47804 25.4153 2.48848 25.4991 2.49818C25.5812 2.50883 25.774 2.51972 26.0213 2.52901C26.2617 2.53858 26.5944 2.54779 26.8985 2.56173C27.9679 2.61488 29.0245 2.6858 30.0759 2.77978C31.5875 2.91568 33.2558 2.85751 34.8926 3.08589C35.479 3.16757 36.0638 3.28596 36.6414 3.46329C36.8475 3.52695 36.5651 4.28373 37.2123 4.1012C37.5602 4.00204 38.0224 3.34081 38.8308 3.27173C40.1815 3.15682 41.5652 3.1553 42.9685 3.19751C45.6577 3.27862 48.4215 3.51983 51.133 3.43893C52.0429 3.41182 52.9466 3.34851 53.8389 3.23088C55.6382 2.99312 57.433 2.46003 59.222 1.89409C61.9365 1.0353 64.6406 0.100892 67.3347 0.00757872C70.1621 -0.0904846 72.9838 0.739578 75.7339 3.55852C76.0816 3.91567 76.0391 5.78973 75.8857 6.33221C75.6813 5.96685 75.4849 5.52966 75.268 5.1162C75.2013 7.45918 75.1995 6.85012 74.3174 6.70492C73.7744 6.61465 74.2739 7.57784 74.0107 7.88115C73.6687 8.27271 72.0303 9.5523 72.2447 7.98731C72.158 8.26247 72.0787 8.5258 71.9945 8.79513C70.7623 9.12412 69.5784 9.60521 68.3917 10.1445C68.2727 10.1991 68.2326 10.385 68.1784 10.5499C68.1392 10.6691 68.0927 10.7773 68.0039 10.817C67.4353 11.0743 66.9448 10.7945 66.3452 10.8922C66.0194 10.9451 66.0191 11.5069 65.5868 11.5061C65.1547 11.505 65.1028 10.7508 64.5836 11.6173C65.0422 12.5316 63.2843 11.9843 62.6829 12.092C62.5956 12.1067 61.9436 13.0147 61.552 12.9483C61.1895 12.8887 60.6266 12.4624 60.0934 12.6768C60.0488 12.6947 60.0044 12.7171 59.9603 12.7446C59.6927 12.9119 59.5765 13.587 59.278 13.6489C59.0681 13.6923 58.7662 13.1247 58.4958 13.1217C58.2255 13.1188 57.6829 13.6477 57.5769 13.6641C57.1949 13.7265 57.5863 13.2795 57.3218 13.2795C56.0451 13.2861 54.5524 13.179 53.3192 13.5513C53.1675 13.5966 53.4175 14.0678 53.3983 14.0856C52.3952 14.7619 52.9069 14.0851 52.5917 13.67C52.4907 13.5371 52.2056 13.4897 51.8708 13.5161C51.194 13.5697 50.313 13.9244 50.3429 14.4919C50.2062 13.4354 49.817 14.2772 49.7029 14.3164C49.2594 14.468 49.2847 13.5439 48.8667 13.8578C48.7131 13.9723 49.0684 14.5714 48.8944 14.565C48.4638 14.5491 48.0125 13.578 47.4384 13.5156C47.2997 13.5001 47.2842 13.9472 47.0391 13.948C46.7936 13.949 45.7348 13.4702 46.2668 14.3772C45.5977 13.6655 45.4989 14.0854 44.7738 14.1084C44.5899 14.1131 44.3118 13.4112 43.9351 13.6559C43.8077 13.7389 43.8515 14.4289 43.6529 14.446C43.6395 14.4472 43.626 14.4478 43.6126 14.4478C43.1708 14.4467 42.7136 13.7964 42.1528 13.799C41.0724 13.8024 39.9471 14.3619 38.8109 14.2328C38.5022 14.1971 38.5484 13.4994 38.1032 13.5049C38.0382 13.5078 37.5267 14.1307 37.2159 14.0862C37.0288 14.0601 36.053 13.6736 35.8584 13.646C35.5366 13.6027 35.5019 14.2765 35.3218 14.151C35.2975 14.134 35.2751 14.1157 35.2545 14.0963C34.8344 13.7001 35.1516 12.8507 34.6095 14.1588C34.3857 13.4149 34.0314 13.5003 33.8913 12.5799C33.7125 13.5979 33.4169 12.6329 33.0243 12.982C32.6319 13.3314 32.3434 15.2993 32.1993 13.1919C32.0178 13.4528 31.2226 13.9061 31.0862 13.9402C30.6866 14.0374 30.8917 13.4502 30.5908 13.5339C30.5378 13.5479 30.5994 13.9463 30.2567 13.9119C30.0308 13.8904 28.3895 13.882 28.2932 13.8263C27.1785 13.2073 28.8978 13.4278 29.1363 12.9919C29.1796 13.1049 29.2226 13.2183 29.2689 13.33C29.7639 13.5131 29.4742 12.6146 29.2504 12.4076C29.0265 12.2007 28.6136 12.6058 28.4275 12.3109C28.3349 12.1628 28.3873 11.0816 28.6646 11.21C28.3668 10.8793 28.7691 10.5246 28.6503 10.2126C28.5199 9.87167 27.1953 9.77157 27.1882 10.3662C27.4362 10.3867 27.7447 10.3652 27.9955 10.3884C28.2698 11.2391 27.6463 13.7901 26.8985 13.8757C26.743 13.8941 26.5897 13.7998 26.4302 13.551C25.94 12.8069 26.3941 12.1695 26.0558 12.218C25.926 12.2346 25.7051 12.3498 25.2083 12.5677C25.4896 12.6176 25.7115 12.7148 25.9433 12.758C25.9684 13.5344 25.5923 12.6815 25.3733 12.9233C25.2667 13.043 25.8958 13.6016 25.3356 13.7761C25.2529 13.5798 25.1726 13.4513 25.0896 13.3724C24.7873 13.0809 24.4539 13.469 23.8346 13.5731C23.6577 13.6018 23.4574 13.6049 23.2386 13.5553C23.464 13.4866 23.6771 13.407 23.8756 13.3186C24.0081 13.2602 24.1323 13.1977 24.2524 13.1325C24.1067 13.0411 24.0078 12.9559 23.9463 12.8801C23.7991 12.6962 23.8737 12.5733 24.0114 12.4759C24.4037 12.2117 25.1555 12.0735 24.1366 11.6988C23.9822 11.6353 23.7848 11.559 23.5431 11.4507C23.7542 11.4865 23.9593 11.5245 24.1615 11.5441C24.2927 11.5569 24.4226 11.5618 24.5502 11.5534C24.4501 11.133 24.795 9.96717 24.7064 9.70361C24.6522 9.51596 24.5879 9.40498 24.5167 9.33918C24.3348 9.16726 24.0701 9.30014 23.8844 9.19085C23.8825 9.18971 23.8806 9.18855 23.8787 9.18736C23.7721 9.11959 23.9647 8.84805 23.9544 8.8421C23.8307 8.75168 23.6685 9.19752 23.512 9.15502C23.4427 9.13524 23.3598 9.03535 23.2845 8.91124C23.1381 8.68024 23.0542 8.3903 22.9748 8.37206C22.6752 8.30924 22.4627 9.32621 22.4103 9.37056C22.2158 9.4858 22.0896 9.43148 21.9793 9.38459C21.8569 9.33603 21.753 9.3235 21.593 9.59995C21.6467 9.59646 21.7118 9.60759 21.7787 9.63536C21.7787 9.63537 21.7787 9.63536 21.7787 9.63536C22.0128 9.74848 22.2918 9.93273 22.5523 10.1121C22.84 10.3129 23.1254 10.515 23.3213 10.6944C23.6044 10.9504 23.6927 11.2208 23.0856 11.3238C22.849 11.3569 22.499 11.347 22.0502 11.2404C22.3503 12.3171 21.9611 13.3644 20.736 13.0908C20.5421 13.0433 20.3528 12.9689 20.1442 12.841C19.6494 12.5303 19.6354 12.4189 19.6639 12.2789C19.8077 12.1493 19.9531 11.8543 20.2805 11.6704C20.4079 11.7084 20.6717 11.6504 20.4903 11.6234C20.4295 11.6236 20.3452 11.671 20.3164 11.8117C20.5107 10.8831 20.3329 10.015 20.6583 9.0738C20.7082 8.93075 21.1223 9.06645 21.1281 8.26946C21.1332 7.86622 20.9828 6.97459 21.0975 6.48537C20.9222 6.81203 20.7523 7.18668 20.6096 7.53762C20.3968 7.54368 20.2419 7.52594 20.1187 7.4791C19.7916 7.35722 19.6696 7.02819 19.3809 6.55303C19.4032 6.82496 19.739 7.96819 19.2087 7.61811C19.1845 7.59986 19.163 7.27521 18.9664 7.06194C18.9414 7.03475 18.9136 7.00939 18.8826 6.98675C18.3337 6.58753 18.2173 6.46475 18.613 5.25396C18.2874 5.45614 18.0509 5.49244 17.848 5.44869C17.4935 5.37114 17.2324 5.04715 16.9509 4.95602C16.8395 4.9187 16.7193 4.91843 16.6452 4.99221C16.5854 5.84004 16.6874 6.11937 16.9162 6.14482C17.1066 6.16594 17.3878 6.01585 17.8207 5.87304C17.8366 5.99101 17.8503 6.10863 17.8632 6.22625C17.8903 6.47436 17.914 6.72248 17.9494 6.97381C17.9244 6.95881 17.9003 6.94411 17.8769 6.92969C16.9051 6.3122 17.1517 6.24103 16.9023 6.62167C16.8442 6.71247 16.7662 6.82882 16.6416 6.9643C16.5079 7.06761 16.3131 7.02379 16.1131 7.17952C15.9319 7.26594 15.81 7.46123 15.8492 7.88598C15.8536 7.93277 15.8783 7.97507 15.9151 8.01525C16.0445 8.19271 16.3959 8.26591 16.3201 8.57498C16.3098 8.61959 16.0062 8.6828 15.762 8.66174C15.6079 8.64887 15.4825 8.62359 15.4659 8.58081C14.9081 7.19867 16.6087 6.67593 14.1806 6.63092C14.1138 6.63163 14.0038 7.06875 13.8703 7.10769C13.6286 7.18229 13.7017 6.66569 13.4614 6.74651C13.21 6.8263 12.8278 7.47493 12.5961 6.78873C12.5495 6.66269 12.523 6.54475 12.5136 6.43497C12.5006 6.28267 12.5207 6.1461 12.5673 6.0266C12.821 5.36951 13.865 5.2489 14.2532 5.81212C14.5079 5.19466 13.7849 4.653 12.7938 4.30608C11.517 3.79467 9.3161 3.86164 8.9947 4.0392C7.07333 4.94288 10.3603 4.05814 10.3452 4.6175C10.4144 4.80084 10.36 7.08424 10.982 5.61446C11.2018 5.17892 10.4088 4.57455 10.8999 4.34477C11.3768 4.12022 11.1519 4.7887 11.1855 4.8367C11.2799 5.00128 11.7631 4.78587 11.8201 4.8889C12.5119 6.42612 12.2417 8.59033 11.4022 5.2628C10.8696 5.9616 11.8891 7.20552 11.2644 7.65954C10.5785 8.21637 10.1225 7.19459 9.9842 7.15415C8.84304 6.71324 10.2376 8.04799 8.91591 7.79738C8.84182 7.79116 8.78919 7.77649 8.75175 7.75383C8.67708 7.70875 8.66338 7.63076 8.68319 7.53829C8.73553 7.24215 9.2264 6.80902 8.49942 6.96056C8.36803 6.99544 8.21009 7.04826 7.97659 7.17394C6.36798 8.46418 7.7528 8.13104 8.44992 9.05241C8.61775 9.29275 8.8266 9.58064 8.86541 9.35289C8.66951 9.10647 8.434 8.76224 8.31438 8.49126C8.64228 8.51986 9.35092 9.66052 9.4455 9.93484C9.46015 9.96171 9.47052 9.97824 9.47619 9.98197C9.75535 10.1775 9.71584 9.36607 10.0182 10.3023C9.75549 9.26854 10.0852 9.87326 10.2084 9.64865C10.6551 8.82864 10.0439 8.49736 11.1499 9.59903C11.0295 9.09545 10.9303 8.60434 10.7749 8.10684C10.9393 8.09515 11.0771 8.08505 11.2382 8.07905C11.4236 9.17879 12.1389 9.1189 11.3725 10.1407C11.6185 10.2658 11.8156 10.3332 11.9997 10.339C12.3726 10.3514 12.5808 10.0891 12.807 9.54927C12.8691 9.39567 13.0101 9.35328 13.1725 9.366C13.1854 9.12661 13.2757 8.3959 13.3176 8.31163C13.7037 7.57333 13.7682 8.98091 13.5537 9.47256C13.6538 9.51691 13.7331 9.5623 13.7606 9.58062C13.9337 9.69727 13.4686 10.0883 13.5889 10.277C13.6202 10.3354 14.1957 10.3479 14.1596 10.5379C13.9592 11.7595 13.2826 10.6933 14.8712 11.7823C15.1654 10.6969 14.278 10.75 14.7568 9.63643C15.1789 8.6505 15.3227 9.68488 15.6235 9.24675C15.6904 9.15284 15.7631 8.98926 15.8413 8.72114C15.8271 8.98178 15.8055 9.19691 15.7894 9.49279C16.6015 9.05307 16.6179 9.7647 16.7968 10.2398C16.833 10.3506 16.8721 10.4449 16.922 10.5015C17.1231 10.7298 17.6029 10.8491 17.9531 10.8368C18.4341 10.8208 18.7277 10.5679 17.9374 10.032C17.8503 9.97421 17.7521 9.913 17.6372 9.84793C17.7366 9.80681 17.8332 9.77285 17.9317 9.74147C18.1112 9.68363 18.2895 9.63471 18.4627 9.56636C18.5441 11.3944 18.4659 11.229 19.0045 11.2305C19.1537 11.2317 19.3509 11.2467 19.5874 11.3309C19.7345 11.3835 19.7947 11.8005 19.8784 11.8229C19.9304 11.8369 19.9899 11.7011 20.1032 11.2419C20.0163 12.2531 20.3791 11.9266 20.4295 11.8963C20.4417 11.8904 20.4471 11.8936 20.4441 11.9159C20.3935 12.1991 20.2931 12.5046 20.2398 12.7483C20.1643 13.0937 20.0231 13.2801 19.8116 13.03C19.6881 12.8743 19.5592 12.5497 19.5179 11.9808C19.2727 12.7409 19.264 11.8682 19.0102 11.8449C18.9891 11.8431 18.9663 11.8471 18.9415 11.8586C18.5285 12.0475 18.4245 12.2376 17.9709 11.7479C17.9053 11.6784 17.8323 11.5952 17.7502 11.4962C17.5561 11.8447 17.7214 12.0248 17.9787 12.1477C18.5785 12.4263 19.5067 12.423 18.3726 13.4931C18.2801 13.5755 18.1595 13.6568 18.0096 13.7363C17.7108 13.8908 17.312 14.0455 16.6823 14.1648C16.2508 14.2491 15.4691 14.3315 14.4523 14.1918C13.4212 14.2008 12.3563 14.2053 11.4805 14.2835C10.7382 14.2956 9.73261 14.6511 10.9104 14.5401C14.1225 14.3615 14.9465 8.18437 14.6379 9.54593C14.6982 9.54941 14.8453 9.89784 14.9523 10.1001C15.1486 10.4944 15.3891 10.9637 15.6338 11.4374C16.1772 12.4885 16.7247 13.546 17.2267 14.644C17.7361 15.743 18.3037 17.1738 18.7071 18.488C18.9018 19.1187 19.0905 19.8166 19.2699 20.6574C19.4656 21.2262 20.1198 25.1013 18.6837 24.4235C18.4892 24.3227 17.7833 22.8684 16.9372 24.306C17.5087 23.9636 17.9959 24.6837 18.0645 24.7457C19.2178 25.722 19.6769 25.5509 19.9186 26.2778C20.0093 26.5603 20.065 26.9818 20.0871 27.657ZM8.09309 33.1506C8.16876 32.8509 8.21329 32.6179 8.23129 32.4377C8.3417 31.2478 7.33829 32.386 5.66163 31.8079C5.64786 31.9263 5.63357 32.045 5.61872 32.164C5.59872 32.3243 5.5777 32.4852 5.55568 32.6464C5.68791 32.5867 5.8195 32.5276 5.95147 32.4668C5.95151 32.4665 5.95154 32.4662 5.95158 32.4659C6.66692 32.6864 7.38085 32.9154 8.09309 33.1506ZM3.37657 75.1407C3.10547 75.0656 2.83444 74.9946 2.56829 74.9101C2.57943 74.8177 2.59056 74.7253 2.60173 74.6327C2.63398 74.3689 2.66565 74.0945 2.70055 73.8363C2.881 73.8601 3.0634 73.8821 3.24384 73.9055C3.26137 74.1211 3.27989 74.3428 3.30233 74.5589C3.32261 74.7543 3.34615 74.9463 3.37657 75.1407ZM14.6815 5.60274C15.0374 6.41587 15.2644 5.13887 15.7684 5.85472C15.9042 4.90544 16.0242 3.9741 16.1479 3.03215C15.6379 3.06622 15.3969 3.38616 14.8699 3.04586C14.8781 3.36025 14.886 3.67663 14.8893 3.99232C14.9979 3.94646 15.1154 3.8935 15.2211 3.85543C15.1828 4.72339 14.2648 4.67347 14.6793 5.60432C14.68 5.6038 14.6808 5.60327 14.6815 5.60274ZM18.93 5.6147C18.9372 5.61783 18.945 5.62118 18.9533 5.62474C19.1702 5.71763 19.7635 5.95563 20.2011 5.9896C20.3899 6.00318 20.5512 5.97546 20.6154 5.863C20.8672 5.44951 20.603 5.2137 20.2516 5.07605C19.5561 4.80018 18.4963 4.91031 20.3018 4.16902C20.3159 4.16426 20.3302 4.15949 20.3446 4.1547C20.3417 3.96584 20.3662 3.78238 20.3771 3.5962C20.3627 3.59368 20.3483 3.59118 20.3339 3.58871C19.8104 3.49924 19.3545 3.44466 18.9329 3.39867C18.9128 3.39649 18.8928 3.39434 18.8729 3.3922C18.9045 4.13478 18.8966 4.86835 18.93 5.6147ZM8.04574 25.0134C8.11051 24.6275 7.20311 23.3172 6.46681 23.9764C6.25098 24.15 7.55892 24.5302 7.54712 24.815C7.53895 24.9879 6.85201 24.8994 7.14242 25.1927C7.43141 25.1369 7.75281 25.0819 8.04365 25.0128C8.04434 25.013 8.04504 25.0132 8.04574 25.0134ZM11.9815 25.1906C11.8168 24.8023 11.6114 24.417 11.4224 24.0417C10.7206 24.4466 11.2795 24.9385 10.222 25.1067C10.1283 25.0132 10.0348 24.922 9.94015 24.8307C10.1607 24.7198 10.3809 24.6078 10.6002 24.494C9.97487 24.2551 9.72494 24.4983 9.78942 23.8877C8.25998 24.5431 7.41404 24.6521 9.16225 25.4288C8.26916 25.3595 5.45653 25.8516 7.53726 26.1364C7.9248 26.1989 8.13465 25.7603 8.19297 25.7476C8.9313 25.5973 9.43351 25.7855 10.1305 25.639C10.4461 25.5715 10.4098 25.2959 10.846 25.2003C11.0592 25.1525 11.7064 25.3545 11.9815 25.1906ZM8.27325 26.3262C7.81139 26.2632 6.76946 26.7101 7.00615 26.9969C7.02807 27.0241 7.05207 27.0469 7.07784 27.0656C7.2369 27.1812 7.46489 27.1414 7.67986 27.0287C8.01747 26.8534 8.31787 26.4936 8.27325 26.3262ZM3.37781 75.143C3.37739 75.1422 3.37698 75.1415 3.37657 75.1407C3.37759 75.141 3.37861 75.1413 3.37964 75.1416C3.37903 75.142 3.37842 75.1425 3.37781 75.143ZM17.5949 5.11304C17.6678 5.00653 17.751 4.93259 17.8367 4.86876C18.0616 4.69877 18.2957 4.60133 18.262 4.15551C18.4143 4.27301 18.5747 4.3886 18.7374 4.50696C18.7332 4.32233 18.7275 4.13732 18.7233 3.95457C18.3946 3.88246 18.0898 3.81312 17.8147 3.74085C17.6781 3.70507 17.5491 3.6686 17.431 3.63089C17.4799 4.1245 17.5293 4.61989 17.5949 5.11304ZM24.1976 6.88829C24.3642 7.08394 24.6827 6.28485 24.9606 5.98733C25.0952 5.803 25.1394 5.84006 25.1821 5.79919C25.2174 5.76975 25.2572 5.69975 25.3808 5.48094C25.3832 5.47807 25.384 5.47427 25.3832 5.46944C25.3421 5.41758 25.4154 5.45384 25.2545 5.30775C24.9092 5.8377 24.5394 6.36219 24.1981 6.88868C24.198 6.88855 24.1978 6.88842 24.1976 6.88829ZM5.58738 42.7755C5.84639 42.4526 6.43531 42.7403 5.86857 41.861C5.86845 41.8615 5.86833 41.862 5.86821 41.8626C5.31676 42.3317 4.77077 42.9473 4.78708 43.6465C4.79038 43.7872 4.8165 43.9312 4.87003 44.0777C5.09487 43.9841 5.21411 43.8768 5.28094 43.7589C5.44064 43.477 5.30114 43.135 5.58738 42.7755ZM13.5566 3.49124C13.294 3.95989 14.0839 4.51471 14.3505 4.09004C14.811 3.40112 13.968 2.77426 13.5566 3.49124ZM7.5659 58.6598C9.12687 59.2294 10.8525 58.1168 10.1391 57.1742C10.0742 57.0987 9.55945 57.6918 9.2622 57.4999C9.23244 57.4722 9.28135 57.1303 9.07264 57.0104C8.86163 56.9065 8.35334 56.9652 8.15242 56.8044C8.1324 56.7886 8.1159 56.7722 8.10251 56.7555C7.88396 56.4332 8.51739 55.9072 8.08392 55.6672C8.02183 55.6318 7.31183 55.9691 7.28444 55.9933C6.99553 56.2384 7.25204 56.5233 7.46809 56.7066C7.58523 56.7954 7.69054 56.864 7.69127 56.8856C7.70321 57.2237 7.01886 57.1339 6.85309 57.2074C6.54228 57.3404 6.83981 57.666 6.81728 57.6764C6.20237 58.1708 6.3969 56.9986 6.16804 56.8032C6.00648 56.6825 5.84541 56.619 5.68918 56.5699C5.22525 56.417 4.79723 56.4205 4.58628 55.621C4.55913 55.522 4.7219 54.3299 3.80189 55.7634C2.92635 53.6139 2.72416 55.0726 2.83056 56.3499C2.87475 57.0491 3.02009 57.7064 3.12962 57.8524C3.29088 58.0953 3.95304 57.7433 4.24707 57.8927C4.91869 58.2574 5.03908 58.7212 5.99319 58.6872C7.99865 58.5942 6.68432 57.9327 7.03504 57.4781C7.46911 57.5431 7.89321 57.5758 8.31728 57.6788C7.74398 57.5061 7.44531 58.629 7.56195 58.6599C7.56327 58.6599 7.56458 58.6599 7.5659 58.6598ZM6.01562 51.2941C6.65357 50.8206 5.70044 50.6268 6.10437 50.2658C6.14892 50.2263 6.20996 50.1849 6.29146 50.1412C5.71458 49.7322 5.42641 49.8797 5.26962 50.108C5.1495 50.2826 5.10751 50.5029 5.07079 50.5492C4.69059 51.0401 3.47435 50.8165 3.75235 51.4488C4.5066 51.3754 5.26203 51.3448 6.01562 51.2941ZM4.78445 56.8986C4.17056 56.3552 4.13485 57.2572 4.01643 57.274C3.30823 57.4639 3.07622 56.7566 3.31199 56.3869C3.46532 56.1729 3.81166 56.0974 4.32609 56.4649C4.46546 56.5652 4.61759 56.7013 4.78445 56.8986ZM10.1381 22.4046C10.1323 22.1973 9.56861 22.4762 9.35153 22.3546C9.13676 22.2387 9.48003 21.5087 9.11517 21.6288C8.76034 21.7667 8.079 23.0555 7.59214 22.0877C7.39597 22.1832 7.23873 22.2163 7.05713 22.2876C7.13135 22.5696 7.19342 22.8456 7.25153 23.1117C7.81512 22.81 8.40393 22.4841 8.93905 22.1699C9.45671 22.2022 8.87033 22.4602 8.87228 22.4677C8.87291 22.4675 8.87355 22.4674 8.87418 22.4672C8.99581 22.7465 10.1472 22.867 10.1381 22.4046ZM7.84326 38.011C9.33927 38.3691 7.74933 37.5587 7.59803 37.3328C7.44849 37.1045 8.05695 36.9434 7.38825 36.9221C6.88315 37.1468 7.67725 37.9686 7.84519 38.0114C7.84455 38.0113 7.8439 38.0111 7.84326 38.011ZM6.67997 47.8885C6.42615 47.2911 6.01817 47.2865 6.60199 46.75C6.23375 46.6949 5.85756 46.6382 5.4948 46.5847C5.37685 47.0903 6.43847 47.2816 5.88942 47.7781C5.79895 47.8599 4.99982 47.474 5.17866 47.9689C5.65532 47.9357 6.18167 47.9128 6.67997 47.8885ZM5.89983 45.0249C5.82139 45.6315 8.65047 46.7536 7.57136 45.3721C7.40993 45.167 5.95812 44.5704 5.89983 45.0249ZM10.9024 27.605C10.9465 26.6203 10.5146 27.7608 10.0534 28.0135C9.59431 25.8098 10.205 28.2786 8.65046 28.4971C9.0904 28.7474 10.0863 29.2734 10.3571 28.7033C10.4679 28.4639 10.0104 28.5536 10.0123 28.5392C10.1211 28.1045 10.8716 28.1439 10.9024 27.605ZM5.90323 52.4109C5.88722 52.3678 5.36476 52.3482 5.28267 52.2052C5.20129 52.0617 5.60712 51.8345 5.2978 51.7544C4.98634 51.671 4.64537 52.2115 4.849 52.426C5.05436 52.6402 6.04451 52.797 5.90323 52.4109ZM7.89142 48.7154C7.63137 48.1336 5.58693 48.5712 5.57251 48.6904C5.47183 49.6915 7.30431 48.5558 7.89142 48.7154ZM14.1458 30.0046C13.2061 28.6831 11.5048 29.6299 10.4615 30.2983C10.6622 30.4052 10.8625 30.5165 11.0605 30.6253C9.83412 30.1079 8.6443 29.3155 9.63797 31.0472C9.98811 30.1364 10.2765 30.9333 10.3456 30.9471C12.6334 31.2051 11.64 29.6869 14.1458 30.0057C14.1458 30.0053 14.1458 30.0049 14.1458 30.0046ZM5.11219 54.0613C5.03771 54.643 5.29023 56.1253 6.35293 55.5434C5.93164 55.0653 5.51768 54.5723 5.11219 54.0613ZM9.34269 10.2575C9.86926 9.91867 9.90745 9.79466 9.83598 9.91509C9.04862 9.65627 8.93299 9.69902 8.7678 9.54424C8.51356 9.33454 8.45031 9.61157 8.40154 9.62485C7.63452 9.51662 7.52875 9.07575 7.48324 9.94561C7.20869 9.74187 6.94751 9.46866 6.74995 9.12295C6.55504 9.98001 6.11117 10.1547 5.53651 10.8055C6.68631 10.2391 6.3873 10.6442 6.62549 11.0097C6.69142 11.1117 6.79959 11.2176 6.98675 11.2939C7.26266 11.4003 8.01434 10.9638 8.61468 10.6463C8.95452 10.4668 9.24407 10.3227 9.34255 10.2564C9.3426 10.2568 9.34264 10.2572 9.34269 10.2575ZM14.4774 28.6587C14.2001 28.5235 13.8243 28.4033 13.5059 28.2797C13.4741 28.1409 13.445 28.002 13.4115 27.8639C13.656 27.8407 13.9119 27.8197 14.1469 27.7931C14.2131 27.6038 13.8739 27.6869 13.8403 27.6327C13.8416 27.6326 13.8429 27.6326 13.8442 27.6326C13.5909 27.2206 13.4775 26.9429 13.535 26.6694C13.5855 26.4276 13.7692 26.1905 14.0983 25.866C13.3502 25.9303 12.6021 25.9945 11.854 26.0587C11.9366 26.1834 12.0167 26.3105 12.0957 26.4375C12.5032 26.4786 12.9109 26.5229 13.3183 26.5698C13.2682 26.6108 13.2182 26.6515 13.1681 26.6919C13.0063 26.8227 12.8442 26.951 12.6804 27.0783C12.8315 27.1956 12.9905 27.34 13.1358 27.4441C11.3233 28.0449 12.1442 27.0244 11.7897 26.7765C11.7389 26.741 11.664 26.7224 11.5537 26.7279C11.4799 26.7315 11.4178 26.7584 11.3663 26.8025C11.0336 27.0929 11.1307 28.121 11.4635 28.2912C11.5202 28.321 13.08 27.9956 12.2708 28.52C12.1421 28.6102 8.76467 28.6198 11.4965 29.1707C11.8835 29.256 13.9889 29.0107 14.4774 28.6587ZM15.0847 23.0023C13.1371 24.2613 14.732 20.6319 13.2765 22.3788C12.2261 22.2259 12.2596 22.3132 11.4734 22.8568C11.4027 22.9037 11.0857 22.7254 11.0561 22.7542C10.6516 23.1803 10.9752 23.5078 10.1072 23.6787C10.1688 23.752 10.2241 23.822 10.2851 23.8967C11.041 23.3915 11.6943 23.8521 12.4257 23.9861C12.7576 24.0448 12.8148 23.7789 13.1046 23.8262C13.2114 23.8449 13.0646 24.2305 13.3548 24.2024C14.0119 24.1384 14.8645 23.7865 15.2752 23.2884C15.2758 23.2883 15.2765 23.2882 15.2771 23.2881C15.217 23.1911 15.1477 23.0986 15.0847 23.0023ZM12.2657 40.5969C11.0676 40.4822 10.6232 40.9299 10.2637 39.8054C10.0228 39.8068 9.78356 39.8097 9.54273 39.8105C9.52756 39.983 9.513 40.1504 9.49473 40.3255C12.8271 41.5868 8.73376 41.6855 11.3075 41.6154C11.5873 41.6076 11.3795 41.1376 12.0122 41.6952C12.013 41.6948 12.0138 41.6944 12.0145 41.694C11.9158 41.086 11.5165 40.9281 12.2657 40.5969ZM12.1793 36.6643C9.92185 34.9629 10.4868 38.1863 11.2256 37.8083C11.2971 37.7713 11.0004 36.3596 12.1793 36.6643ZM12.1214 47.4482C12.2894 46.8927 10.9744 46.5566 10.4844 46.5073C9.993 46.4578 10.3883 46.9606 10.3018 46.9947C10.0163 47.1059 9.93061 46.7163 9.54199 46.8569C9.4148 46.9036 8.72339 47.7982 8.7713 47.8573C9.0339 48.1799 10.2087 48.0445 10.3183 48.1445C10.6783 48.468 10.0408 48.6651 10.609 48.8565C11.821 49.2654 10.6415 48.3986 10.6428 48.2917C10.6493 47.9762 11.3425 48.1548 11.5317 47.9598C11.7208 47.7651 11.514 47.5649 11.6078 47.3761C11.6391 47.3134 12.1106 47.476 12.1214 47.4482ZM9.7496 44.9347C10.1466 45.313 10.66 45.2642 11.0809 45.079C11.5783 44.8599 11.9466 44.45 11.8409 44.3272C11.3338 43.7454 9.80519 44.3408 9.69793 44.7642C9.68227 44.8262 9.69695 44.8844 9.7496 44.9347ZM12.1465 25.5453C12.9471 26.0485 13.41 24.6327 13.0459 24.2794C12.7551 24.4061 11.8767 25.3855 12.1465 25.5453ZM14.1277 30.364C13.9173 29.8173 12.2153 30.4611 12.215 30.881C13.3 31.2022 13.0977 30.9498 13.1581 30.6628C13.2182 30.3756 14.2884 30.7949 14.1277 30.364ZM9.72903 53.3171C9.75516 53.2212 9.15307 51.3303 8.60942 52.2667C8.56497 52.3396 8.53003 53.594 8.68875 53.709C9.00195 53.9421 9.63793 53.5821 9.72903 53.3171ZM15.5562 33.1135C14.6374 32.7235 14.6751 32.4506 13.5357 32.6035C13.5356 32.6039 13.5356 32.6043 13.5356 32.6047C13.2599 31.8701 15.5426 32.0182 15.5073 31.8525C15.3768 31.2807 13.7121 31.6885 13.202 31.311C13.6468 32.1283 12.5668 31.821 12.4457 32.3931C12.4293 32.471 12.644 32.7158 12.9027 32.9271C13.0713 33.0644 13.2588 33.187 13.4158 33.2354C13.743 33.3364 14.6449 33.2611 15.2293 33.1708C15.3563 33.1514 15.4683 33.1317 15.5562 33.1135ZM9.65071 55.7489C10.0744 55.2208 8.60566 54.5057 8.26532 55.2994C8.10039 55.6923 9.39326 56.0824 9.65071 55.7489ZM19.7459 11.0642C19.6848 10.6563 19.6124 10.2505 19.5264 9.84743C19.6841 9.77611 19.8415 9.70598 19.9992 9.63925C20.0508 9.61756 20.1007 9.59612 20.1529 9.57528C20.0996 9.61136 20.0489 9.64787 19.9967 9.68453C19.8805 9.76597 19.7676 9.84882 19.6528 9.933C19.8055 9.99352 19.9133 10.1512 19.9609 10.3321C20.0049 10.5013 19.9972 10.6903 19.9327 10.8419C19.8934 10.9333 19.8331 11.0112 19.7468 11.0642C19.7465 11.0642 19.7462 11.0642 19.7459 11.0642ZM34.4409 12.9804C34.6425 13.3649 34.9767 12.145 34.9261 12.0522C34.5501 11.3614 34.1629 12.4472 34.4409 12.9804ZM15.6881 24.2334C15.7437 23.4194 13.8815 24.2561 13.8029 24.7104C14.1395 24.3796 15.6502 24.6886 15.6881 24.2334ZM29.1363 12.9919C29.0718 12.8235 29.0069 12.6551 28.9351 12.4866C29.159 12.7195 29.1991 12.877 29.1363 12.9919ZM11.4859 53.3165C11.6493 53.2403 11.8944 52.5292 11.7293 52.3975C11.3795 52.1209 10.2082 52.5164 10.4818 52.9176C10.5105 52.9628 11.3209 53.3926 11.4861 53.3149C11.486 53.3154 11.486 53.3159 11.4859 53.3165ZM20.3077 11.8643C20.3099 11.8456 20.3129 11.8279 20.3164 11.8117C20.3134 11.829 20.3108 11.8469 20.3077 11.8643ZM50.3554 14.5811C50.3489 14.551 50.3445 14.5209 50.3429 14.4919C50.3466 14.5203 50.3521 14.55 50.3554 14.5811ZM14.1351 48.4279C16.0181 48.5825 15.1731 47.7941 14.1685 48.0474C14.1152 48.0625 14.1519 48.3686 14.1351 48.4279Z" fill="#FFCB32"/>
</svg>
