<svg width="17" height="47" viewBox="0 0 17 47" fill="none" xmlns="http://www.w3.org/2000/svg">
<path d="M2.41147 46.9801C2.14673 46.7833 2.28791 46.4072 2.52896 46.0873C2.60353 45.9873 3.03062 45.9245 3.10086 45.8508C3.23768 45.7066 3.00911 45.6594 3.17714 45.5087C3.23487 45.4582 3.90655 45.3388 3.95193 45.2896C4.19578 45.0206 3.98143 44.8752 4.0726 44.6405C4.52245 43.4831 4.52632 42.4463 4.57381 41.3644C4.58889 41.0077 5.08618 40.453 4.73739 40.1752C4.73674 40.1747 4.73595 40.1743 4.73504 40.1739C4.67811 40.1483 4.12195 40.3132 4.07305 40.3176C3.31179 40.3825 4.4915 40.127 4.62717 40.0096C5.1624 39.5443 5.12862 39.1858 4.82944 38.9429C4.70047 38.84 3.58188 39.2582 4.19546 38.9669C4.23686 38.947 4.86028 38.824 4.91709 38.7725C5.0447 38.6561 4.89681 38.5336 4.93008 38.4599C4.9973 38.3172 4.98617 38.2992 4.96496 38.1855C4.94133 38.0287 5.20132 37.7696 5.0205 37.6403C4.98008 37.6132 4.36095 37.8185 4.23951 37.7895C4.11823 37.7605 4.1344 37.5987 4.27055 37.5113C4.40676 37.4239 4.90797 37.3205 5.0194 37.2831C5.96043 36.9692 4.5887 37.1318 4.55028 37.1179C3.88932 36.856 4.55964 36.3201 4.46313 35.9424C4.38824 35.656 4.06169 35.4104 4.02807 35.1277C3.99047 34.7902 4.26452 34.4293 4.12771 34.126C4.114 34.0938 3.38082 34.3154 3.36256 34.2764C3.2854 34.1109 3.2351 33.9391 3.22773 33.7572C3.21664 33.4831 3.30293 33.1858 3.54151 32.8516C3.58199 32.7957 4.24835 32.6944 4.32784 32.6292C4.79984 32.2327 5.98947 31.5072 3.10747 32.0256C3.1754 31.818 3.23799 31.5703 3.77349 31.2732C4.11813 31.0819 4.85406 31.0155 4.52012 30.9591C4.44563 30.9462 3.83079 31.1304 3.76623 31.0998C3.49495 30.9707 3.65109 30.7237 3.28658 30.6176C3.21097 30.5963 2.65414 30.7363 2.55101 30.7493C1.71499 30.8503 3.02919 30.391 3.11988 30.3368C3.7945 29.9254 3.46644 29.8151 3.43268 29.5848C3.42518 29.5313 2.6875 29.7647 2.65325 29.7192C2.48566 29.4811 2.48858 29.193 2.76492 28.8608C2.82821 28.7865 3.481 28.6959 3.54406 28.6531C3.81441 28.4668 2.59753 28.7097 2.83344 28.5356C2.88164 28.4993 3.43364 28.3913 3.49295 28.3735C4.42401 28.0944 3.0696 28.3312 3.03599 28.3196C2.5812 28.1818 3.95007 27.7295 3.70432 27.5553C3.67348 27.5346 2.9911 27.7449 2.94689 27.6773C2.81677 27.4815 2.75849 27.2641 2.77191 27.0313C2.78926 26.7296 2.92688 26.402 3.18429 26.0623C3.25429 25.969 3.78882 25.9143 3.85233 25.8961C4.84437 25.6101 3.48339 25.84 3.42738 25.8257C3.02087 25.7062 4.11735 25.2941 2.48047 25.4889C2.87202 24.5521 1.80463 23.895 3.10031 22.8035C3.11517 22.79 3.78671 22.6857 3.81348 22.6594C4.143 22.3416 3.11339 22.5802 1.81242 22.643C1.4856 22.6581 2.99694 22.2539 3.10751 22.223C3.51469 22.1078 4.5171 21.9719 4.59493 21.9438C5.20534 21.7193 1.91827 22.3252 1.88966 22.1701C1.89429 22.1643 2.50365 22.0773 2.56159 22.0537C2.7436 21.9801 2.49584 21.9829 2.69749 21.9069C3.16425 21.7318 4.7586 21.4211 3.80385 21.4479C3.67999 21.4516 1.81666 21.803 1.88096 21.6492C1.90814 21.5878 1.83434 21.3492 1.94398 21.2603C2.05343 21.1716 2.66377 21.1166 2.68902 21.1073C3.45488 20.7905 3.79676 20.8041 4.96127 20.5163C6.12162 20.2307 3.3225 20.723 3.00338 20.7378C2.6851 20.7522 3.32059 20.5095 3.54394 20.4395C3.76733 20.3693 4.15709 20.347 4.28178 20.2968C5.09634 19.9673 2.87583 20.4402 2.42021 20.449C2.0477 20.456 2.04954 20.4058 2.21921 20.3307C2.54086 20.1879 3.46596 19.9564 3.58526 19.8457C3.63446 19.7999 3.16519 19.9055 3.11559 19.8794C2.9254 19.7745 3.56276 19.5942 2.94374 19.5376C2.84293 19.5287 1.57164 19.5994 2.47879 19.3796C2.60965 19.3482 3.13363 19.3003 3.24139 19.2266C3.40315 19.1164 3.49403 18.9494 3.30703 18.8856C3.16867 18.8385 2.32404 19.0423 2.57746 18.9187C2.69068 18.8639 3.20168 18.8583 3.37265 18.7617C3.54361 18.6657 3.49572 18.4924 3.4687 18.4275C3.4413 18.3629 2.7969 18.4936 2.75235 18.4946C2.49683 18.4979 2.16476 18.4124 2.16389 18.4006C2.00106 17.8266 3.0263 17.1458 2.59262 16.6295C2.55951 16.5886 1.87625 16.7038 1.86412 16.6985C1.5573 16.5814 3.39873 16.4748 3.99718 16.2944C2.60482 16.4814 2.84954 16.3879 2.68363 16.2998C2.60255 16.2574 2.06595 16.3508 2.0101 16.3528C1.18053 16.3748 2.23358 16.1933 2.44873 16.154C3.24007 16.0083 2.29135 16.0653 2.82032 15.9678C3.34539 15.8713 4.13893 15.857 4.11701 15.7572C3.6142 15.7871 2.31795 16.0164 2.09726 15.9631C1.26174 15.7587 2.22523 15.0883 2.30772 14.8425C2.38954 14.5948 2.28966 14.5275 2.45676 14.3717C2.75934 14.091 1.79796 14.2772 1.33864 14.1633C0.879461 14.0481 3.27513 13.8995 3.78643 13.8286C4.29762 13.7589 3.76711 13.785 4.04676 13.7319C4.32638 13.6791 4.68084 13.7038 4.78099 13.6319C4.88104 13.5606 3.9523 13.4738 3.4132 13.4988C3.24883 13.5067 3.08352 13.5173 2.92216 13.529C1.96234 13.5983 1.14205 13.7091 1.48834 13.5307C1.51238 13.5187 2.14354 13.4951 2.20376 13.4522C2.66149 13.1136 2.66637 12.8057 3.07213 12.4792C3.12892 12.4344 3.83137 12.4169 3.87235 12.3903C4.30171 12.1151 3.1284 12.2907 1.80751 12.2507C3.55434 12.154 4.61616 12.0028 4.61384 11.8212C4.61309 11.7115 3.85224 11.7828 3.31016 11.7474C3.14674 11.7366 3.66492 11.6234 3.3055 11.6329C2.13052 11.6628 0.823423 11.8241 1.33324 11.5947C1.35752 11.5846 2.00082 11.5708 2.0378 11.5389C2.28023 11.3337 1.05268 11.3866 0.891868 11.1864C0.765666 11.0293 1.49783 10.6975 1.6105 10.5079C3.57484 10.414 3.11684 10.2688 1.75901 10.2587C1.80888 10.1364 1.72657 10.0096 1.90902 9.88631C1.97121 9.84397 2.54126 9.84817 2.60253 9.84075C3.5638 9.72824 2.24352 9.72664 2.1908 9.7021C1.67735 9.43741 2.66918 9.18364 1.68462 8.94142C1.64918 8.93304 0.282942 8.94793 1.27818 8.85371C1.34681 8.84785 1.97061 8.92217 2.01525 8.79589C2.05996 8.66845 2.78661 8.42286 2.15041 8.2592C1.9972 8.21991 0.886323 8.12581 1.75141 8.03083C1.86888 8.01826 2.26086 8.02651 2.47861 8.00797C3.17247 7.94881 1.79131 7.93306 2.96346 7.86087C4.13557 7.78858 5.01234 7.65891 4.20157 7.49326C4.17799 7.48806 3.08325 7.45274 3.10017 7.39828C3.1281 7.3116 3.35548 7.18839 3.34813 7.09832C3.34421 7.05515 2.66472 7.08362 2.65227 7.07613C2.5794 7.02047 2.54261 6.96769 2.5326 6.91678C2.48972 6.70918 2.92323 6.5385 3.12187 6.27867C3.16806 6.21566 2.23364 6.13167 2.95421 5.96818C3.65437 5.79451 6.37099 5.63607 6.38006 5.4067C6.38107 5.37827 6.34013 5.34826 6.24832 5.31889C5.9119 5.18242 1.70263 5.62973 3.84008 5.11011C3.50224 4.93117 3.67818 4.68217 3.74062 4.43576C3.78996 4.24635 3.77034 4.06267 3.39548 3.9776C3.35719 3.96736 2.20256 4.22269 2.2081 4.18255C2.21798 4.12023 2.74028 3.93845 2.7631 3.88606C2.84896 3.71038 2.5551 3.65739 2.43602 3.55457C2.40394 3.52669 2.38435 3.49482 2.3878 3.45495C2.39277 3.38392 2.9427 3.22874 2.94747 3.14131C2.95125 3.05309 2.22218 3.24331 2.53099 3.02451C2.76668 2.85879 4.18936 2.27182 4.31887 2.10113C2.88879 2.60321 2.89281 2.52072 2.47112 2.531C2.38941 2.53332 1.90266 2.7385 1.83845 2.74892C1.56629 2.79584 1.96191 2.60449 1.66801 2.66248C1.59739 2.67633 1.11108 2.85354 1.02596 2.87505C0.917008 2.90286 0.846681 2.91547 0.806539 2.91639C0.573253 2.92193 1.3594 2.53077 1.51483 2.45241C2.20714 2.10488 1.56203 2.30148 1.82344 2.13457C2.08468 1.96735 2.47417 1.92755 2.61977 1.79129C2.92072 1.50895 2.77112 1.34705 2.73757 1.18781C2.72137 1.12588 2.08842 1.40625 2.07106 1.40297C1.96775 1.37166 2.07 1.26341 2.04516 1.20973C2.0196 1.15462 1.85722 1.15758 1.1859 1.36132C4.49833 0.0576576 0.834145 1.40454 1.43797 0.978246C1.48693 0.944039 3.06553 0.360968 3.31691 0.330155C3.56798 0.299194 3.10164 0.556577 3.4904 0.498766C3.58193 0.486115 5.09868 0.0425734 5.19291 0.0220255C5.26769 0.00640157 5.31073 0.00134624 5.32759 0.00497191C5.47736 0.0375722 3.56449 0.757334 3.44989 0.805386C2.07525 1.38578 3.71443 0.920302 3.83627 0.911172C4.39522 0.871349 4.11109 1.12152 4.51816 1.11477C4.78161 1.1114 6.32877 0.546052 6.30654 0.631184C6.27445 0.755151 5.84658 0.993074 5.54128 1.18097C5.15111 1.42153 4.9593 1.57471 6.056 1.32085C6.47303 1.22511 8.15099 0.569882 6.88122 1.22459C6.80176 1.26743 5.62515 1.82512 6.42563 1.63388C6.52663 1.60994 7.02253 1.43853 7.06876 1.43742C7.3691 1.43408 6.99386 1.62887 7.21685 1.66452C7.43877 1.70006 7.76179 1.73376 7.63561 1.90682C7.635 1.90765 7.63437 1.90849 7.63374 1.90934C7.55588 2.01572 6.65081 2.3979 6.43175 2.50009C5.80025 2.79235 6.91401 2.57249 6.13019 2.86722C5.34016 3.15582 4.08691 3.40843 3.60416 3.69177C4.91678 3.32398 6.26654 2.95523 7.58883 2.59325C7.63704 2.90704 7.42911 3.28793 7.4205 3.61743C7.41862 3.69612 7.42798 3.77218 7.45486 3.84522C7.47366 3.89273 8.18099 3.69396 8.22 3.74321C8.38205 3.95716 7.90512 4.25429 8.14854 4.46116C8.33967 4.6205 9.13863 4.7317 9.35812 4.9245C8.90432 5.01719 8.63359 5.1017 8.47389 5.1804C8.09367 5.36382 8.34318 5.53309 8.2544 5.69102C8.21093 5.76966 7.79497 5.79461 7.66297 5.85537C7.17411 6.08356 8.54389 5.90841 8.76406 5.95421C9.70324 6.18066 6.58692 6.3369 6.67046 6.56847C6.67402 6.57949 8.33973 6.71711 8.44328 6.7414C9.11969 6.87706 7.8647 6.76809 7.74229 6.85225C7.70863 6.87494 7.67104 6.89624 7.63309 6.91678C7.41849 7.01038 7.194 7.08893 7.60846 7.20631C7.75292 7.24697 8.79005 7.33962 7.9889 7.42073C7.884 7.43147 7.33424 7.42824 7.30212 7.43671C6.7668 7.59036 8.4942 7.58454 9.08013 7.66428C9.66595 7.74351 8.47553 7.88224 8.13233 7.91283C7.24445 7.99139 7.75157 7.86314 7.66431 7.86021C6.62546 7.82492 6.80558 7.91988 6.7191 7.99454C5.0257 8.02327 5.1292 8.12777 6.63628 8.07192C6.80089 8.06576 6.64196 8.01023 6.7191 7.99454C8.38177 8.04196 8.59649 8.14595 7.04646 8.29269C6.32004 8.36187 5.47023 8.31974 5.78477 8.49431C5.92685 8.57318 7.09205 8.52065 7.4117 8.58461C8.14099 8.72857 7.05953 8.95837 7.23646 9.11899C7.30067 9.17644 7.93679 9.10047 8.00266 9.13872C8.17944 9.23899 7.70417 9.34836 7.95352 9.4468C7.97692 9.45557 8.64381 9.40882 8.65359 9.44121C8.74089 9.68527 8.32282 9.91853 8.32404 10.182C8.32485 10.309 8.70502 10.5171 8.63871 10.6541C8.52736 10.8896 7.57555 11.2368 7.8246 11.4213C7.98412 11.5409 8.649 11.4666 9.10706 11.49C9.99476 11.533 8.43121 11.8319 8.18909 11.877C8.18106 11.8785 8.01577 11.7784 7.67796 11.8629C6.96756 11.95 8.18592 11.8761 8.18909 11.877C8.03249 11.9051 7.89803 12.1398 8.02896 12.1743C8.10044 12.1929 8.7307 12.1303 8.75603 12.1409C9.32351 12.3832 9.51533 12.6488 9.28699 12.959C9.27875 12.9702 9.26996 12.9814 9.26062 12.9928C9.24835 12.9992 8.5422 13.0547 8.52217 13.069C8.22432 13.2722 9.09762 13.3047 9.6232 13.397C10.1486 13.4897 9.98808 13.616 8.78671 13.8222C8.94982 13.9149 8.43098 14.1247 8.11609 14.2492C7.80119 14.3739 9.17364 14.2412 9.20155 14.2461C10.095 14.3969 9.32565 14.6209 9.23256 14.8896C9.18588 15.0173 9.41255 15.2337 9.57796 15.3458C9.7109 15.4341 9.39773 15.5353 9.61448 15.6051C9.64345 15.6146 10.2511 15.5265 10.2751 15.5275C11.017 15.5422 9.52138 15.6764 9.25809 15.7313C8.30073 15.9309 7.79202 16.0468 8.26443 16.1271C8.37272 16.1463 10.5278 15.9631 10.6603 16.0024C10.8288 16.0551 10.0571 16.1273 10.2533 16.1803C10.2694 16.1849 10.743 16.1216 10.7283 16.1717C10.6664 16.4034 10.4236 16.6818 10.5031 16.9052C10.5121 16.9359 11.2572 16.7911 11.2826 16.8334C11.401 17.032 11.4064 17.2663 11.0858 17.5245C11.0045 17.5884 10.4749 17.634 10.3206 17.668C9.38758 17.8761 10.7723 17.77 10.8007 17.7815C11.5156 18.0598 10.3218 18.5425 10.9737 18.8383C10.9887 18.8445 11.23 18.8368 11.4402 18.8418C11.7629 18.8496 12.0124 18.8867 11.2584 19.0548C11.1756 19.073 9.90148 19.356 10.7911 19.2754C10.8467 19.2702 11.5013 19.1167 11.4467 19.2055C11.3922 19.2947 11.8548 19.3454 11.1459 19.5746C10.9226 19.6466 9.65472 19.9449 10.6936 19.8735C10.7662 19.8692 13.1019 19.6285 11.5184 19.9579C11.2578 20.012 9.57046 20.2935 10.4558 20.2662C10.6274 20.2604 10.996 20.1531 11.2413 20.1733C11.6193 20.2033 11.1898 20.4066 11.9604 20.3884C12.0968 20.3851 13.2548 20.2658 12.3994 20.4881C12.2654 20.5231 11.6996 20.6033 11.6432 20.6506C11.3721 20.8764 11.7806 20.9879 11.424 21.2336C11.2988 21.3207 10.385 21.456 10.1537 21.5661C9.92252 21.6761 9.71319 21.8519 10.1407 21.8428C10.5683 21.8333 12.0007 21.4887 12.1354 21.5679C12.7198 21.9098 11.9559 22.5059 11.9198 22.9722C11.9143 23.0411 12.4199 22.8844 12.4488 22.9784C12.5576 23.3254 13.1656 23.8339 12.1352 24.3711C11.3102 24.8031 10.5768 24.6295 10.26 24.8952C10.1092 25.0239 11.8041 24.7707 11.8614 24.7814C12.1619 24.8346 12.1171 24.9421 12.0411 25.0542C11.9702 25.1587 11.8723 25.2672 12.0022 25.3375C12.058 25.3676 12.7274 25.1824 12.7674 25.2094C12.9099 25.3003 12.6339 25.488 12.7134 25.5873C12.7507 25.6315 13.2661 25.5097 13.2362 25.5642C13.1705 25.6933 12.9743 25.8379 12.5132 26.052C12.4712 26.0716 11.8132 26.1467 11.8073 26.2339C11.7995 26.3743 11.3581 26.6454 11.8857 26.6883C12.0443 26.7006 13.2258 26.4385 12.4318 26.7178C12.266 26.7762 10.842 27.0678 12.0927 26.9068C12.3007 26.8808 13.9956 26.698 12.9516 27.0312C12.6769 27.119 11.5313 27.4445 11.726 27.458C11.7567 27.4588 12.384 27.2855 12.4561 27.3166C12.699 27.4284 12.6694 27.6103 12.9053 27.7281C12.9695 27.7592 13.6103 27.5439 13.6851 27.5949C13.8916 27.7348 13.7761 27.9954 13.6116 28.2177C13.5497 28.3 12.9967 28.3818 12.9387 28.4002C11.9956 28.6994 13.3027 28.4421 13.3841 28.4494C13.873 28.4991 13.2919 28.7601 13.4868 28.8661C13.5389 28.8956 14.1502 28.7221 14.2072 28.7171C14.7647 28.6719 13.6407 28.8724 13.5306 28.953C13.2185 29.1798 13.3066 29.3304 13.4204 29.4588C13.4632 29.5057 14.1649 29.2748 14.1949 29.3188C14.3863 29.5756 14.389 29.8892 14.0621 30.2647C13.9993 30.3357 13.4403 30.4354 13.3171 30.4767C12.455 30.7653 13.6829 30.587 13.8034 30.5848C14.3538 30.5749 13.8776 30.738 13.9935 30.8189C14.1024 30.8932 14.1845 30.9786 14.2456 31.0717C14.5067 31.4699 14.3828 32.0111 14.3171 32.4376C14.2147 33.1226 13.8122 33.7369 14.0975 34.2995C14.1149 34.3354 14.8367 34.1139 14.8612 34.1425C15.143 34.5194 14.9619 35.0069 15.2799 35.3779C15.3047 35.4086 15.9852 35.1838 16.0483 35.2272C16.1826 35.3151 16.1815 35.4696 15.9895 35.6414C15.8971 35.7249 15.2832 35.799 15.2024 35.88C15.0129 36.0688 14.9995 36.2236 15.145 36.3319C15.2085 36.3777 15.8952 36.1111 15.9224 36.1845C16.065 36.5383 16.2328 36.8809 16.0331 37.3218C15.9526 37.4996 15.8123 37.6934 15.5863 37.9099C15.5323 37.9616 14.0995 38.3564 14.3949 38.3627C14.7962 38.2677 15.2665 38.1488 15.6945 38.0435C16.1145 38.7382 15.803 39.6117 15.9153 40.3914C15.9202 40.4242 16.6703 40.1783 16.6837 40.2409C16.762 40.6032 17.0607 40.9015 16.3924 41.4586C16.3271 41.5136 14.9779 41.8269 15.2078 41.8843C15.2496 41.8941 15.4689 42.012 15.7712 41.9822C15.8166 41.9771 16.4371 41.7929 16.4683 41.8408C16.6386 42.1221 16.5737 42.4777 16.2642 42.8762C16.2131 42.9408 15.5314 43.0513 15.4892 43.0986C15.1944 43.4328 15.7685 43.58 15.2182 43.9642C14.8473 44.2216 13.6761 44.4412 12.5574 44.7989C12.3996 44.8494 12.3976 44.9531 11.736 45.1171C10.0727 45.5297 8.23675 45.9209 6.46511 46.3664C6.0835 46.4622 6.52624 46.4913 5.58351 46.6373C5.52036 46.6468 5.19131 46.6279 4.87223 46.6806C4.6516 46.7168 3.98451 46.9072 3.69921 46.9417C3.41419 46.9762 3.97058 46.805 3.63165 46.8301C3.2887 46.8562 2.52779 47.0643 2.41147 46.9801ZM6.71042 14.8144C6.06168 14.9724 8.47339 14.7177 7.88673 14.6909C7.85551 14.69 6.74223 14.8065 6.71042 14.8144ZM5.52845 3.88254C5.06404 4.05705 5.14053 4.09193 5.43659 4.05861C5.75164 4.02229 6.31542 3.90709 6.73291 3.77034C6.77581 3.75628 6.81716 3.74199 6.85653 3.72753C7.63638 3.4336 5.83353 3.76366 5.52845 3.88254ZM4.40083 2.76094C3.64224 3.15593 6.92815 2.14122 6.21191 2.18525C6.1713 2.18738 4.44467 2.73741 4.40083 2.76094ZM12.1396 44.4891C12.1086 44.4979 12.095 44.5752 12.1265 44.5694C12.8842 44.426 12.9108 44.2711 12.1396 44.4891ZM3.18554 1.86804C2.76381 2.06875 3.3102 1.99879 3.83482 1.74937C4.25654 1.54776 3.70977 1.61724 3.18554 1.86804ZM4.75375 19.6562C4.71827 19.6632 4.69419 19.7189 4.89575 19.6857C5.54491 19.5787 5.35044 19.5381 4.75375 19.6562ZM2.46601 0.00128624C2.43485 0.311034 -0.179826 1.43694 0.00982244 1.00723C0.0447355 0.93074 0.909167 0.836135 1.12568 0.678658C1.5216 0.395994 -0.197119 0.881924 0.661768 0.436572C0.820152 0.358844 2.47451 -0.0158115 2.46993 0.000500958C2.46862 0.000762406 2.46732 0.00102416 2.46601 0.00128624ZM3.82052 15.1828C3.78883 15.1881 3.76644 15.2621 3.79823 15.2602C4.5676 15.213 4.61332 15.0653 3.82052 15.1828ZM3.78737 22.8721C3.72087 22.8885 3.68855 23.0639 3.75146 23.0577C5.00471 22.9107 5.07441 22.559 3.78737 22.8721ZM1.66275 10.5024C0.885195 10.461 0.789374 10.3665 1.75804 10.2591C1.71015 10.3406 1.70639 10.4206 1.66275 10.5024Z" fill="#FBEF29"/>
</svg>
