<svg width="33" height="15" viewBox="0 0 33 15" fill="none" xmlns="http://www.w3.org/2000/svg">
<path d="M32.9842 14.8758C32.8384 15.1114 32.5676 14.9287 32.3399 14.6546C32.2687 14.5697 32.2289 14.145 32.1767 14.0675C32.0746 13.9164 32.0377 14.1338 31.9314 13.9514C31.8959 13.8888 31.8188 13.2184 31.784 13.168C31.5941 12.897 31.4871 13.0883 31.3201 12.9702C30.4973 12.3873 29.7594 12.2506 28.992 12.0639C28.739 12.0029 28.3532 11.4456 28.1515 11.7494C28.128 11.7855 28.2397 12.3668 28.2421 12.4159C28.2764 13.1667 28.1135 11.9829 28.0325 11.8352C27.7114 11.2524 27.4571 11.2385 27.2811 11.4984C27.2801 11.4999 27.2791 11.5017 27.2782 11.5037C27.2144 11.6428 27.4825 12.7471 27.2887 12.1197C27.2752 12.0767 27.1976 11.4527 27.1621 11.3906C27.0817 11.2509 26.993 11.3791 26.9415 11.337C26.8416 11.2527 26.8287 11.2612 26.7482 11.2671C26.6371 11.2696 26.458 10.9822 26.3642 11.1416C26.3445 11.1775 26.4806 11.808 26.4585 11.9227C26.4363 12.0372 26.3225 12.0003 26.2628 11.8561C26.2031 11.7119 26.1371 11.2097 26.1123 11.0961C25.9039 10.1376 25.9996 11.4964 25.9893 11.5321C25.7958 12.1426 25.4278 11.4194 25.1606 11.4649C24.958 11.5011 24.7817 11.7882 24.5829 11.785C24.3456 11.7787 24.0946 11.4658 23.8806 11.5613C23.8579 11.5706 24.0068 12.3138 23.9793 12.3267C23.6871 12.4634 23.3697 12.4312 22.9829 11.9759C22.944 11.9296 22.877 11.2668 22.8318 11.1813C22.5572 10.6722 22.0511 9.42428 22.4034 12.3003C22.2586 12.2092 22.0861 12.1188 21.8793 11.5611C21.7653 11.254 21.7159 10.6777 21.6788 10.718C21.6725 10.7248 21.6666 10.7491 21.6608 10.7953C21.6516 10.8666 21.7795 11.4885 21.7579 11.548C21.6673 11.798 21.4945 11.6171 21.4205 11.9612C21.4057 12.0327 21.5037 12.5927 21.5128 12.6949C21.5843 13.5232 21.2629 12.1869 21.2247 12.0922C20.9366 11.3867 20.8597 11.6952 20.6991 11.7029C20.6617 11.7043 20.8272 12.4511 20.7957 12.4795C20.6306 12.6172 20.4308 12.5831 20.1977 12.2776C20.1456 12.2079 20.0781 11.5599 20.0478 11.4937C19.9157 11.2097 20.0938 12.4254 19.9709 12.1764C19.9453 12.1255 19.8657 11.5743 19.8528 11.5144C19.6507 10.5747 19.8264 11.9242 19.8188 11.9558C19.727 12.3864 19.3991 11.001 19.2792 11.2242C19.2651 11.2523 19.4189 11.9411 19.3723 11.9776C19.0627 12.2248 18.6714 12.0922 18.2439 11.5907C18.1776 11.5136 18.1303 10.9851 18.1165 10.9212C17.8996 9.92367 18.0834 11.2776 18.0746 11.3312C17.9989 11.7185 17.6896 10.6083 17.8583 12.2291C17.3274 11.8562 16.9505 12.4225 16.4091 11.9651C16.2757 11.8525 16.1324 11.6777 15.9744 11.4116C15.9645 11.3961 15.8697 10.73 15.8504 10.7019C15.6169 10.3571 15.8175 11.3838 15.9076 12.6645C15.9302 12.9862 15.5953 11.4765 15.5695 11.366C15.4744 10.959 15.3436 9.96633 15.3212 9.88815C15.1413 9.27487 15.6838 12.5399 15.5783 12.5581C15.5741 12.5532 15.4905 11.9496 15.4719 11.8912C15.4139 11.708 15.4253 11.9514 15.3647 11.7487C15.2253 11.2798 14.9459 9.69582 15.0014 10.635C15.0089 10.7569 15.3277 12.6072 15.2191 12.5349C15.1755 12.5046 15.0141 12.5633 14.9479 12.4508C14.8819 12.3384 14.817 11.736 14.8095 11.7107C14.5558 10.9414 14.5504 10.6064 14.2978 9.44742C14.046 8.2929 14.514 11.0681 14.5386 11.3823C14.563 11.6956 14.3652 11.059 14.3059 10.8362C14.2465 10.6133 14.2132 10.2292 14.1723 10.1042C13.903 9.28808 14.3373 11.4926 14.3649 11.9407C14.4305 13.0015 14.0157 10.9544 13.8881 10.7679C13.8536 10.7176 13.9506 11.1834 13.9349 11.231C13.8716 11.4132 13.7129 10.7792 13.7055 11.3853C13.7042 11.4841 13.8218 12.7363 13.6205 11.836C13.5916 11.7062 13.53 11.1893 13.4728 11.0805C13.3872 10.9173 13.2651 10.8219 13.231 11.0036C13.2058 11.1379 13.3954 11.9754 13.2953 11.7219C13.2506 11.6087 13.2178 11.1062 13.1407 10.9348C13.0638 10.7634 12.9451 10.805 12.9013 10.8296C12.8577 10.8546 12.9872 11.4922 12.9905 11.536C13.0079 11.7874 12.9689 12.1112 12.9609 12.1117C12.5764 12.2545 12.0346 11.2323 11.7059 11.653C11.6799 11.6851 11.8099 12.3585 11.8071 12.3704C11.7491 12.6707 11.5393 10.8583 11.3691 10.2679C11.6022 11.6394 11.5191 11.3977 11.4703 11.5601C11.447 11.6395 11.5524 12.1681 11.558 12.2231C11.6366 13.0392 11.4311 12.002 11.3871 11.7901C11.2251 11.0108 11.3378 11.9443 11.2292 11.4235C11.1212 10.9066 11.0502 10.1258 10.9816 10.147C11.0416 10.6418 11.3021 11.9179 11.2825 12.1347C11.2523 12.4722 11.1433 12.5104 11.013 12.4331C10.8267 12.3225 10.5968 11.9755 10.4916 11.9293C10.3133 11.8509 10.2759 11.95 10.153 11.7876C9.93109 11.494 10.1479 12.4369 10.1132 12.8903C10.0781 13.3436 9.74928 10.9903 9.65233 10.4887C9.5557 9.98724 9.62351 10.5086 9.56002 10.2346C9.49662 9.96065 9.48109 9.61141 9.42071 9.51448C9.36031 9.41766 9.38662 10.3334 9.45665 10.863C9.6051 11.985 9.84881 13.1483 9.6668 12.7551C9.65621 12.7318 9.57773 12.1117 9.54225 12.0535C9.26372 11.6115 9.04956 11.616 8.78018 11.2288C8.74298 11.1746 8.6565 10.4847 8.63359 10.4454C8.39466 10.0338 8.64219 11.1807 8.75858 12.4804C8.50195 10.7673 8.28147 9.72944 8.15249 9.73999C8.07485 9.74574 8.20914 10.4904 8.24498 11.0247C8.25585 11.1858 8.11854 10.6818 8.16567 11.0346C8.31947 12.1878 8.57888 13.4647 8.36461 12.9743C8.35491 12.9509 8.27134 12.3195 8.24527 12.2847C8.07622 12.0564 8.25554 13.2597 8.14006 13.4277C8.04956 13.5595 7.73694 12.8587 7.59352 12.7597C7.2844 10.837 7.23854 11.2962 7.40592 12.6293C7.31657 12.5881 7.24171 12.6771 7.13415 12.5066C7.09722 12.4484 7.02458 11.889 7.01144 11.8294C6.80665 10.8945 6.98074 12.1896 6.97155 12.243C6.86279 12.765 6.55078 11.8125 6.52582 12.7968C6.52502 12.8323 6.73121 14.1693 6.52503 13.2021C6.51102 13.1354 6.4719 12.5182 6.37968 12.4849C6.28743 12.4516 6.01184 11.7616 5.99472 12.3994C5.99044 12.553 6.09433 13.6487 5.89928 12.8111C5.87294 12.6973 5.81925 12.313 5.7736 12.1017C5.6276 11.4284 5.82688 12.7813 5.59878 11.6415C5.41611 10.7287 5.23418 10.0054 5.17399 10.1696C5.15903 10.2105 5.15159 10.3062 5.15355 10.4676C5.1535 10.4912 5.29893 11.5655 5.25893 11.5546C5.19494 11.5363 5.07437 11.3272 5.0134 11.3442C4.98428 11.3528 5.11102 12.0139 5.10783 12.0269C4.96828 12.4316 4.72997 11.8625 4.47413 11.6402C4.42702 11.5981 4.46109 12.5222 4.26896 11.8184C4.05838 11.048 3.6153 7.77298 3.54947 8.58103C3.52249 8.90433 4.09546 13.0575 3.60882 10.9365C3.42529 11.5114 2.99802 10.4548 2.8506 11.2571C2.84389 11.2926 2.99268 12.4536 2.96154 12.4425C2.91496 12.4238 2.80415 11.8879 2.76808 11.8573C2.61473 11.7153 2.5734 12.1959 2.43933 12.1439C2.38862 12.1253 2.31438 11.5647 2.25388 11.5425C2.19351 11.5208 2.27572 12.2616 2.14309 11.9189C2.04252 11.6576 1.74226 10.1648 1.63861 10.002C1.87598 11.4839 1.81934 11.4618 1.79088 11.8678C1.78553 11.9465 1.88808 12.4591 1.88986 12.5229C1.89895 12.7942 1.79819 12.372 1.81282 12.6665C1.81623 12.7372 1.8979 13.2432 1.90533 13.3297C1.97156 14.0836 1.69706 12.9601 1.64948 12.7645C1.46824 12.0215 1.54728 12.684 1.45381 12.3951C1.36043 12.1061 1.36815 11.7247 1.28603 11.5535C1.11594 11.1994 0.988142 11.3039 0.872879 11.2988C0.827397 11.2998 0.967259 11.9703 0.963298 11.9861C0.899084 12.1723 0.689569 11.469 0.856715 12.8225C0.228879 9.35454 0.855953 13.1689 0.611553 12.4939C0.592059 12.4393 0.312152 10.7965 0.312752 10.5486C0.313397 10.3009 0.457064 10.8053 0.451195 10.4199C0.449934 10.3295 0.274825 8.77596 0.269894 8.68094C0.231546 7.93826 0.641487 10.3945 0.667611 10.5288C0.951866 11.978 0.774041 10.3026 0.779521 10.184C0.804443 9.64036 0.954104 9.97087 0.985401 9.58066C1.00634 9.32834 0.751138 7.71727 0.806457 7.75889C0.990195 7.89627 1.40934 10.1335 1.24178 8.16191C1.20621 7.74139 0.889247 5.9867 1.22755 7.35202C1.24885 7.43809 1.5387 8.69029 1.45772 7.88165C1.44748 7.77969 1.36412 7.26686 1.36522 7.22246C1.37426 6.93498 1.47669 7.3377 1.50405 7.13243C1.53139 6.92716 1.55513 6.62391 1.65079 6.78693C1.70831 6.88435 1.91542 7.83145 1.97282 8.06223C2.13705 8.72725 2.01678 7.61274 2.18316 8.4233C2.3505 9.23792 2.48537 10.4944 2.66133 11.0097C2.44858 9.67673 2.23447 8.30784 2.02252 6.96693C2.2274 6.98186 2.49136 7.38125 2.67976 7.29029C2.70289 7.27768 2.56163 6.5654 2.58345 6.53342C2.67598 6.40162 2.85573 6.89655 2.93785 6.67453C3.00097 6.49993 2.97567 5.72563 3.03784 5.51944C3.342 7.03494 3.3963 6.49491 3.51932 6.61797C3.56231 6.66041 3.62599 7.06801 3.67256 7.19681C3.84661 7.67285 3.58389 6.33263 3.57538 6.11639C3.53963 5.19342 4.04369 8.24162 4.16235 8.14505C4.1688 8.14096 3.98995 6.50157 3.9852 6.39845C3.95233 5.72629 4.08923 6.96228 4.15513 7.07486C4.27548 7.28062 4.39733 7.6593 4.41956 7.16702C4.42568 7.02128 4.33093 5.99676 4.51433 6.77137C4.53838 6.87279 4.62142 7.41079 4.63249 7.44129C4.71897 7.66851 4.71229 7.45474 4.67577 7.09724C4.63081 6.65699 4.54061 5.99876 4.52347 5.67768C4.49245 5.09599 4.77671 6.24605 4.85058 6.57883C5.04221 7.43959 4.87193 6.9565 4.88301 7.04222C5.01531 8.06229 5.05646 7.8763 5.12346 7.95345C5.3996 9.60767 5.45773 9.49626 5.19183 8.02676C5.16266 7.86627 5.14639 8.02735 5.12346 7.95345C4.90667 6.32165 4.95454 6.1004 5.29079 7.60361C5.44834 8.30816 5.54295 9.14407 5.6219 8.81985C5.65785 8.67345 5.45053 7.53722 5.45146 7.21813C5.45373 6.49006 5.77853 7.52866 5.87225 7.34152C5.90626 7.27358 5.76234 6.65655 5.7821 6.58862C5.83421 6.40639 5.98031 6.86318 6.02133 6.61039C6.02492 6.5867 5.90131 5.93641 5.92482 5.92406C6.10091 5.81765 6.33281 6.2094 6.53139 6.1891C6.62729 6.17899 6.7388 5.7912 6.849 5.84766C7.03936 5.94166 7.40331 6.85741 7.51167 6.60304C7.58279 6.43993 7.456 5.79002 7.42455 5.3383C7.36325 4.46274 7.75302 5.98567 7.81057 6.22195C7.81242 6.22978 7.75559 6.39705 7.85362 6.72532C7.99231 7.41997 7.81013 6.22513 7.81057 6.22195C7.84794 6.37455 8.03543 6.49635 8.04762 6.3662C8.05419 6.2951 7.94395 5.67774 7.94928 5.65236C8.07799 5.06301 8.2714 4.8702 8.53998 5.12366C8.54591 5.13553 8.6523 5.82883 8.66485 5.8481C8.84308 6.13512 8.78791 5.27485 8.81219 4.75484C8.8365 4.23505 8.94772 4.38979 9.20309 5.56819C9.25866 5.40559 9.45841 5.91248 9.57603 6.22062C9.69364 6.52876 9.4843 5.17957 9.48578 5.15199C9.51702 4.50527 9.6488 4.73825 9.79854 4.94395C9.85303 5.01881 9.90991 5.09005 9.96518 5.11397C10.064 5.15889 10.2093 4.9347 10.282 4.77166C10.3391 4.64056 10.4363 4.94894 10.4739 4.73558C10.4791 4.70707 10.3721 4.10856 10.3713 4.08498C10.3334 3.35431 10.5336 4.82738 10.5922 5.08675C10.8055 6.02997 10.9241 6.53151 10.952 6.067C10.9585 5.9606 10.6835 3.83743 10.7058 3.70705C10.7353 3.54141 10.8374 4.30188 10.8652 4.10915C10.8677 4.09335 10.7909 3.62644 10.8298 3.64128C11.0091 3.70399 11.233 3.94663 11.3967 3.87204C11.4194 3.86364 11.2692 3.12765 11.3 3.10332C11.4444 2.98977 11.6228 2.98899 11.8336 3.31069C11.8859 3.39221 11.9461 3.9148 11.9793 4.06748C12.1812 4.99118 12.0335 3.62546 12.0412 3.59774C12.2187 2.90114 12.634 4.09143 12.8279 3.46123C12.838 3.42443 12.7235 1.95325 12.9793 3.18944C12.9964 3.27167 13.2563 4.53671 13.1623 3.65821C13.1564 3.60325 13.0168 2.95293 13.0857 3.01035C13.1545 3.06763 13.1769 2.6146 13.3734 3.32212C13.4355 3.54499 13.7012 4.80586 13.6123 3.78084C13.6057 3.70934 13.3506 1.4004 13.6483 2.97372C13.6972 3.23272 13.9613 4.90591 13.9122 4.03405C13.9024 3.86507 13.8108 3.49717 13.8182 3.25694C13.8294 2.88677 13.9938 3.31971 13.9583 2.56104C13.9517 2.42677 13.831 1.28162 14.0214 2.13478C14.0512 2.26839 14.1266 2.82906 14.1636 2.88718C14.3396 3.16618 14.4125 2.77115 14.6045 3.13639C14.6723 3.26467 14.7953 4.17089 14.8822 4.40498C14.9692 4.63898 15.1032 4.85592 15.0863 4.43543C15.0694 4.01475 14.7816 2.58537 14.8378 2.45813C14.845 2.44182 14.8524 2.42668 14.86 2.41266C15.1094 1.95156 15.552 2.69896 15.8871 2.76756C15.9383 2.77817 15.8148 2.27 15.8843 2.24871C16.1402 2.16793 16.5143 1.61202 16.9191 2.66872C17.2433 3.51506 17.1221 4.21907 17.3192 4.55292C17.4139 4.71205 17.2155 3.02816 17.2231 2.97288C17.2949 2.41245 17.5251 3.13531 17.6308 2.88493C17.6526 2.833 17.5138 2.15996 17.5336 2.12324C17.6001 1.99183 17.7392 2.27975 17.812 2.21115C17.8444 2.17882 17.7537 1.66229 17.794 1.69677C17.8893 1.77329 17.996 1.97929 18.1535 2.45166C18.1678 2.49471 18.2238 3.14646 18.2875 3.16072C18.3902 3.18196 18.5879 3.64107 18.6191 3.12879C18.628 2.97475 18.4374 1.79153 18.6409 2.59701C18.6835 2.76523 18.8948 4.18885 18.7785 2.94804C18.7593 2.74182 18.6298 1.06374 18.871 2.11984C18.9346 2.39779 19.169 3.55278 19.1791 3.36365C19.1797 3.33363 19.0551 2.70169 19.078 2.63437C19.1603 2.40818 19.2929 2.45626 19.3797 2.23791C19.4027 2.17835 19.2487 1.52848 19.2864 1.46071C19.3899 1.27336 19.5798 1.41438 19.7407 1.59951C19.8003 1.66902 19.8561 2.21898 19.8691 2.2777C20.0805 3.23292 19.902 1.92628 19.908 1.84743C19.9478 1.37464 20.1334 1.97193 20.2119 1.79318C20.2338 1.7455 20.1127 1.12832 20.1095 1.07206C20.1087 1.05594 20.108 1.04127 20.1074 1.02795C20.0894 0.586599 20.2194 1.64675 20.2754 1.76005C20.4375 2.09071 20.5474 2.02172 20.6414 1.92509C20.6759 1.88868 20.515 1.17635 20.5473 1.15199C20.7358 0.99417 20.9639 1.02784 21.2319 1.39147C21.2825 1.46124 21.3482 2.01919 21.3767 2.14443C21.5754 3.02082 21.4603 1.80014 21.4602 1.6821C21.4595 1.14317 21.5717 1.6278 21.6315 1.52425C21.922 1.00986 22.4245 1.26141 22.8009 1.40611C23.2909 1.59144 23.7241 2.06211 24.1293 1.85595C24.1551 1.84354 24.0082 1.11095 24.029 1.09079C24.3025 0.864092 24.6468 1.10383 24.9152 0.841834C24.9374 0.821641 24.7883 0.12874 24.8202 0.0728422C24.8848 -0.0467104 24.9946 -0.0255437 25.1135 0.184141C25.1713 0.285091 25.2144 0.893427 25.2706 0.982788C25.4016 1.19223 25.511 1.22556 25.59 1.09779C25.5902 1.09749 25.5904 1.09717 25.5906 1.09684C25.6215 1.0344 25.4454 0.337315 25.4975 0.320443C25.8521 0.190187 26.1917 0.00881479 26.7117 0.874202C26.7473 0.933645 27.0051 2.3824 27.0138 2.09513C26.9525 1.69141 26.8754 1.21731 26.8074 0.786202C27.3026 0.467712 27.9117 0.885665 28.4587 0.876852C28.4818 0.876315 28.318 0.113097 28.362 0.108137C28.6163 0.0785731 28.8269 -0.174367 29.2092 0.54863C29.2469 0.619277 29.4533 1.9752 29.4956 1.75821C29.5029 1.71869 29.5873 1.5197 29.5691 1.22105C29.5659 1.17607 29.4427 0.54754 29.4763 0.523181C29.6737 0.392689 29.9203 0.50076 30.1955 0.852375C30.2401 0.910331 30.3127 1.58918 30.3454 1.63629C30.5767 1.9654 30.6823 1.42328 30.947 2.00739C31.1246 2.4008 31.2722 3.57065 31.5168 4.70607C31.5513 4.86626 31.6241 4.88073 31.7357 5.54632C32.0165 7.21999 32.2807 9.05966 32.5839 10.843C32.6491 11.2271 32.6739 10.798 32.7702 11.7362C32.7764 11.799 32.7598 12.1183 32.7945 12.4362C32.8184 12.656 32.9489 13.3302 32.9708 13.613C32.9927 13.8956 32.875 13.3318 32.8895 13.6659C32.9046 14.0041 33.0466 14.7721 32.9842 14.8758ZM10.1039 7.59758C10.2699 8.2349 9.8945 5.86295 9.92046 6.4408C9.92217 6.47154 10.0956 7.56634 10.1039 7.59758ZM2.78021 9.16946C3.02956 10.2021 2.83485 8.65584 2.64762 7.85748C2.46053 7.05999 2.70451 8.85646 2.78021 9.16946ZM2.0766 10.067C2.30354 10.8762 1.77312 7.51239 1.78344 8.20812C1.78385 8.24746 2.0634 10.02 2.0766 10.067ZM31.2964 5.07642C31.3024 5.10776 31.3567 5.13044 31.3528 5.09905C31.257 4.34192 31.1485 4.2971 31.2964 5.07642ZM1.39032 11.0312C1.49317 11.4812 1.49188 10.9427 1.36401 10.3831C1.26113 9.93294 1.26235 10.4714 1.39032 11.0312ZM13.6979 9.61123C13.7046 9.6464 13.7452 9.67247 13.7121 9.47291C13.6054 8.83019 13.5856 9.01967 13.6979 9.61123ZM0.00113949 11.2962C0.22783 11.3893 0.803113 14.1457 0.527782 13.8688C0.477931 13.8187 0.471817 12.9691 0.379477 12.7272C0.210827 12.2864 0.430668 14.0401 0.182542 13.1215C0.137313 12.9533 -0.0127855 11.2847 0.000874236 11.2922C0.000962655 11.2935 0.00105107 11.2948 0.00113949 11.2962ZM10.6008 10.4391C10.6071 10.4703 10.6609 10.4921 10.657 10.4608C10.5615 9.70394 10.4531 9.65963 10.6008 10.4391ZM16.0003 10.7421C16.0139 10.8085 16.1376 10.8525 16.1314 10.7904C15.9911 9.55013 15.7402 9.45745 16.0003 10.7421ZM7.58325 12.7088C7.65257 13.4745 7.60309 13.574 7.40632 12.6302C7.46761 12.6721 7.52229 12.6708 7.58325 12.7088Z" fill="#FBEF29"/>
</svg>
