<svg width="56" height="55" viewBox="0 0 56 55" fill="none" xmlns="http://www.w3.org/2000/svg">
<path d="M56 27.5C56 42.6878 43.464 55 28 55C12.536 55 0 42.6878 0 27.5C0 12.3122 12.536 0 28 0C43.464 0 56 12.3122 56 27.5Z" fill="#FFCB32" fill-opacity="0.33"/>
<path d="M43.2652 43.6944L32.1585 32.7861C31.277 33.4787 30.2633 34.027 29.1174 34.431C27.9715 34.835 26.7521 35.037 25.4593 35.037C22.2565 35.037 19.546 33.9476 17.3276 31.7689C15.1092 29.5901 14 26.9279 14 23.7824C14 20.6369 15.1092 17.9747 17.3276 15.7959C19.546 13.6172 22.2565 12.5278 25.4593 12.5278C28.662 12.5278 31.3725 13.6172 33.5909 15.7959C35.8093 17.9747 36.9185 20.6369 36.9185 23.7824C36.9185 25.0522 36.7128 26.2498 36.3015 27.3752C35.8901 28.5007 35.3319 29.4963 34.6267 30.362L45.7333 41.2704L43.2652 43.6944ZM25.4593 31.5741C27.663 31.5741 29.5361 30.8165 31.0787 29.3015C32.6213 27.7865 33.3926 25.9468 33.3926 23.7824C33.3926 21.6181 32.6213 19.7784 31.0787 18.2633C29.5361 16.7483 27.663 15.9907 25.4593 15.9907C23.2556 15.9907 21.3824 16.7483 19.8398 18.2633C18.2972 19.7784 17.5259 21.6181 17.5259 23.7824C17.5259 25.9468 18.2972 27.7865 19.8398 29.3015C21.3824 30.8165 23.2556 31.5741 25.4593 31.5741Z" fill="#FFCB32"/>
</svg>
