<svg width="43" height="21" viewBox="0 0 43 21" fill="none" xmlns="http://www.w3.org/2000/svg">
<path d="M0.0122222 6.5451C0.178138 6.27132 0.545739 6.39425 0.866421 6.62028C0.966622 6.69015 1.05875 7.11331 1.13369 7.18009C1.28011 7.31016 1.3071 7.08014 1.46192 7.2412C1.51386 7.29659 1.67778 7.96128 1.72758 8.00442C1.99906 8.23617 2.11912 8.01645 2.34633 8.09781C3.46585 8.49968 4.43306 8.46703 5.4431 8.47846C5.77596 8.48168 6.32816 8.95922 6.55994 8.60293C6.58681 8.56075 6.38665 7.99486 6.37888 7.9455C6.26261 7.18902 6.58661 8.35639 6.70553 8.48785C7.17654 9.00645 7.50663 8.96148 7.70922 8.65589C7.71044 8.65403 7.71154 8.65196 7.71254 8.64971C7.78171 8.4933 7.32919 7.43137 7.63991 8.02505C7.66143 8.06566 7.82159 8.68293 7.87347 8.73792C7.99074 8.86142 8.09314 8.71027 8.16382 8.74111C8.30098 8.80363 8.31683 8.79198 8.42045 8.76729C8.56377 8.73884 8.82293 8.98974 8.92883 8.80558C8.95087 8.76446 8.71459 8.15416 8.7322 8.03229C8.74991 7.91058 8.90053 7.92164 8.99154 8.05451C9.08259 8.18744 9.21597 8.68343 9.25898 8.79325C9.62017 9.72068 9.36631 8.35943 9.37615 8.32074C9.56781 7.65409 10.113 8.30475 10.454 8.19615C10.7124 8.11213 10.9129 7.7788 11.1703 7.73575C11.4777 7.68689 11.8321 7.94705 12.0997 7.79997C12.1282 7.78517 11.8645 7.0632 11.8988 7.04364C12.2635 6.83645 12.6768 6.79531 13.2206 7.16878C13.2753 7.20688 13.4254 7.86611 13.4921 7.94266C13.8958 8.39709 14.6698 9.54979 13.9387 6.70361C14.1347 6.76259 14.3664 6.81441 14.6872 7.33411C14.864 7.62027 14.983 8.19556 15.0272 8.14587C15.0346 8.13749 15.0399 8.11132 15.043 8.06299C15.0481 7.98828 14.8232 7.38478 14.8453 7.31917C14.9386 7.04352 15.1793 7.18751 15.242 6.81994C15.2543 6.74373 15.0739 6.19639 15.0524 6.09442C14.8807 5.26773 15.4242 6.5534 15.4826 6.64093C15.9228 7.2922 15.9926 6.96018 16.1995 6.91496C16.2476 6.90478 15.9621 6.18303 16.0002 6.14668C16.2005 5.96808 16.462 5.95629 16.7926 6.21301C16.8667 6.27189 17.0161 6.91592 17.0615 6.97626C17.2595 7.23467 16.9128 6.03838 17.0956 6.26326C17.1336 6.30914 17.2893 6.85182 17.3117 6.90977C17.6629 7.81953 17.3065 6.48644 17.3134 6.45243C17.3908 5.99268 17.9474 7.32684 18.0811 7.07172C18.0966 7.03981 17.8318 6.37431 17.8885 6.32631C18.2651 6.00248 18.7838 6.04637 19.3845 6.45751C19.4777 6.52051 19.5894 7.04761 19.6133 7.10944C19.9894 8.07461 19.622 6.73887 19.6283 6.68228C19.689 6.27025 20.1953 7.32866 19.8219 5.71772C20.544 5.97371 20.977 5.30933 21.7209 5.649C21.9041 5.73265 22.1061 5.87719 22.3359 6.11135C22.3502 6.12482 22.5366 6.78099 22.5642 6.80506C22.8991 7.10173 22.5414 6.10314 22.3022 4.8201C22.2422 4.49788 22.8198 5.95701 22.8638 6.06343C23.0257 6.45574 23.2899 7.43597 23.3264 7.51036C23.6177 8.09289 22.6035 4.8949 22.7382 4.85178C22.7441 4.85581 22.91 5.4509 22.9396 5.50599C23.0322 5.67905 22.9941 5.4339 23.0918 5.62611C23.317 6.07114 23.83 7.6188 23.6682 6.67545C23.6469 6.55313 23.0575 4.74347 23.2048 4.79173C23.264 4.81251 23.4671 4.71507 23.5634 4.81424C23.6596 4.91328 23.8012 5.51153 23.8133 5.53556C24.215 6.25978 24.2541 6.59962 24.6916 7.7208C25.1278 8.83766 24.257 6.12104 24.195 5.80684C24.1334 5.49349 24.4501 6.09561 24.5482 6.30867C24.6463 6.52183 24.7262 6.9051 24.7911 7.02281C25.2174 7.7911 24.4447 5.64763 24.3661 5.19786C24.1796 4.13308 24.912 6.12076 25.0949 6.28092C25.1443 6.32415 24.9742 5.87247 24.99 5.82035C25.0545 5.62003 25.3204 6.22859 25.2719 5.60974C25.2641 5.50887 24.9921 4.26137 25.3386 5.1311C25.3884 5.25657 25.5175 5.76854 25.6019 5.86593C25.7282 6.01219 25.8952 6.08088 25.9219 5.88798C25.9415 5.7453 25.6162 4.93679 25.77 5.17152C25.8385 5.27638 25.9291 5.78044 26.0452 5.93696C26.161 6.09353 26.3106 6.02356 26.3648 5.98829C26.4188 5.95269 26.1903 5.33368 26.1819 5.28981C26.1352 5.03799 26.1546 4.69916 26.1649 4.69677C26.6484 4.46187 27.4467 5.37652 27.8315 4.8716C27.8619 4.83289 27.6294 4.17752 27.6319 4.16477C27.6781 3.84546 28.123 5.64193 28.3996 6.20343C27.9668 4.86135 28.0975 5.08806 28.145 4.91128C28.1675 4.825 27.9806 4.31137 27.9681 4.25672C27.7882 3.44414 28.1534 4.45231 28.2305 4.65779C28.5145 5.41357 28.2794 4.48926 28.4698 4.99428C28.6589 5.49545 28.8255 6.2739 28.9121 6.23627C28.7871 5.74652 28.3282 4.50788 28.3327 4.28256C28.3394 3.93193 28.4767 3.86761 28.6526 3.916C28.9041 3.98522 29.2345 4.28496 29.3749 4.30749C29.613 4.34582 29.6519 4.23617 29.8262 4.37291C30.1413 4.62022 29.7707 3.71062 29.7722 3.24096C29.774 2.77122 30.4246 5.09069 30.598 5.57887C30.771 6.06693 30.6334 5.55192 30.7417 5.8161C30.8499 6.08024 30.9035 6.43222 30.9908 6.51684C31.0782 6.60136 30.9564 5.67512 30.8152 5.15222C30.5157 4.04442 30.0892 2.91673 30.3622 3.27461C30.3781 3.29593 30.539 3.909 30.5904 3.96C30.9929 4.34517 31.2693 4.29068 31.6547 4.62217C31.708 4.6687 31.8859 5.35105 31.9193 5.38574C32.2676 5.74911 31.8377 4.63906 31.5627 3.34282C32.0586 5.02735 32.4431 6.0327 32.6089 5.99192C32.7087 5.96799 32.4638 5.2411 32.3662 4.70539C32.3367 4.54393 32.5626 5.02508 32.4678 4.67686C32.1585 3.53847 31.7008 2.29885 32.0248 2.74829C32.0396 2.76984 32.2081 3.39322 32.2452 3.42261C32.4856 3.61563 32.1385 2.43224 32.2717 2.23433C32.3761 2.07908 32.8474 2.7198 33.0423 2.78716C33.6261 4.67287 33.6414 4.19465 33.2973 2.87628C33.4168 2.89742 33.505 2.78934 33.6605 2.93796C33.7138 2.98853 33.8613 3.5412 33.884 3.59882C34.2383 4.50309 33.8892 3.22493 33.8959 3.16845C33.9865 2.61167 34.4812 3.50874 34.4191 2.50076C34.4168 2.46449 34.0221 1.15122 34.3813 2.08797C34.4059 2.15262 34.5156 2.7719 34.638 2.7843C34.7604 2.79679 35.1828 3.43511 35.1439 2.78172C35.1347 2.62437 34.8954 1.53299 35.2278 2.34038C35.2728 2.45007 35.379 2.82888 35.4583 3.03341C35.7115 3.68487 35.3243 2.35385 35.7284 3.46122C36.052 4.34801 36.3565 5.04216 36.4186 4.86091C36.434 4.81584 36.4345 4.71662 36.4165 4.55277C36.4143 4.52872 36.1233 3.46878 36.1761 3.47054C36.2606 3.47424 36.4365 3.65913 36.5137 3.62758C36.5505 3.6121 36.3233 2.96843 36.3262 2.95447C36.4679 2.50998 36.8305 3.03393 37.1826 3.20067C37.2475 3.23253 37.1149 2.29956 37.4307 2.97142C37.7768 3.7068 38.6634 6.93813 38.6711 6.10008C38.675 5.76462 37.5364 1.66941 38.3687 3.71561C38.5509 3.08755 39.2046 4.06387 39.3183 3.21269C39.3236 3.1749 39.02 2.02754 39.0613 2.03157C39.1233 2.03974 39.3179 2.55958 39.3675 2.58237C39.5794 2.69121 39.5867 2.19228 39.7651 2.21397C39.8324 2.22106 39.9821 2.77462 40.0624 2.78313C40.1426 2.79115 39.9653 2.05603 40.1696 2.37409C40.3247 2.61673 40.8559 4.06668 41.0055 4.20836C40.5566 2.75475 40.632 2.76409 40.6299 2.34411C40.6293 2.26269 40.4476 1.76469 40.4392 1.7001C40.4014 1.42602 40.5722 1.83247 40.525 1.536C40.5138 1.46475 40.3598 0.968578 40.3419 0.882334C40.184 0.130115 40.6465 1.21008 40.7268 1.39821C41.0323 2.11244 40.8667 1.45629 41.0152 1.72876C41.1636 2.00122 41.1901 2.39136 41.3127 2.54657C41.5665 2.86751 41.7218 2.73127 41.8713 2.7097C41.93 2.69803 41.6849 2.04798 41.6885 2.03094C41.7537 1.8264 42.092 2.49368 41.7462 1.15449C42.8901 4.53928 41.714 0.801644 42.0947 1.43198C42.1251 1.48308 42.6443 3.09048 42.6673 3.34306C42.6902 3.59541 42.4561 3.11532 42.5007 3.50632C42.5109 3.59814 42.8862 5.13907 42.9016 5.23467C43.0224 5.98191 42.2571 3.57654 42.2104 3.44586C41.7041 2.03655 42.0945 3.70093 42.0988 3.823C42.1186 4.38229 41.8935 4.08064 41.8904 4.48522C41.8875 4.74699 42.3718 6.3279 42.2963 6.29842C42.0455 6.20132 41.2893 4.02107 41.6948 5.98944C41.7811 6.40932 42.359 8.12207 41.7908 6.81073C41.755 6.72805 41.2603 5.5206 41.4425 6.32508C41.4655 6.4265 41.6224 6.92924 41.6252 6.9747C41.6411 7.26951 41.4701 6.88333 41.4544 7.09869C41.4387 7.31406 41.437 7.62834 41.2977 7.48464C41.214 7.39884 40.8555 6.48277 40.7592 6.26116C40.4832 5.6223 40.7454 6.72906 40.4527 5.94251C40.1583 5.15206 39.8636 3.90416 39.5867 3.42043C39.9894 4.72812 40.3974 6.07202 40.7999 7.38793C40.5336 7.42044 40.154 7.07526 39.9192 7.21175C39.8905 7.22997 40.1413 7.92229 40.1162 7.95994C40.0092 8.11568 39.7294 7.6536 39.6445 7.89879C39.5796 8.09126 39.6865 8.87373 39.6258 9.09814C39.0874 7.62594 39.0689 8.18842 38.8981 8.09178C38.8385 8.05858 38.7171 7.6584 38.6445 7.5381C38.3739 7.09395 38.842 8.39734 38.8737 8.61552C39.0083 9.54693 38.0646 6.56073 37.9205 6.68669C37.9125 6.69235 38.3008 8.31987 38.3168 8.42377C38.4237 9.10048 38.1283 7.87392 38.0323 7.77464C37.857 7.59316 37.6632 7.23598 37.6816 7.74238C37.6876 7.89219 37.9083 8.91326 37.597 8.16729C37.5562 8.06962 37.3973 7.54119 37.38 7.51271C37.2465 7.3015 37.2756 7.51759 37.357 7.87309C37.4574 8.31086 37.637 8.96005 37.6899 9.28297C37.7858 9.868 37.3081 8.76324 37.1807 8.44163C36.8505 7.60985 37.1169 8.06206 37.0944 7.97737C36.8256 6.96957 36.7902 7.16852 36.6962 7.10558C36.1807 5.4856 36.1162 5.61257 36.6008 7.04686C36.6539 7.20347 36.6595 7.03567 36.6962 7.10558C37.1328 8.71654 37.0921 8.95295 36.5134 7.50073C36.2422 6.82007 36.0398 5.99101 35.9688 6.3395C35.9363 6.49693 36.3132 7.60553 36.3426 7.93063C36.4094 8.67246 35.89 7.69062 35.7867 7.90298C35.7493 7.98007 35.9944 8.5748 35.9754 8.64857C35.9255 8.84625 35.6928 8.41518 35.664 8.68211C35.6616 8.70707 35.8837 9.34039 35.8545 9.35844C35.6371 9.50779 35.2997 9.16291 35.0449 9.22983C34.9219 9.26245 34.8149 9.68325 34.667 9.65142C34.4119 9.60005 33.8536 8.7524 33.7379 9.03663C33.6615 9.21926 33.8877 9.85145 33.9717 10.3041C34.1348 11.1813 33.485 9.72142 33.3879 9.49425C33.3848 9.48671 33.4423 9.30316 33.2841 8.99175C33.0382 8.31678 33.3882 9.49091 33.3879 9.49425C33.325 9.34758 33.0709 9.26722 33.0676 9.40258C33.066 9.4765 33.2676 10.0794 33.2632 10.1065C33.1532 10.7365 32.9216 10.9779 32.5501 10.7823C32.5413 10.7716 32.3373 10.0905 32.3193 10.0738C32.0613 9.82308 32.2151 10.6861 32.2335 11.2212C32.2519 11.7561 32.0932 11.6245 31.6502 10.4841C31.5939 10.6626 31.2871 10.1931 31.1055 9.9067C30.9239 9.62035 31.3238 10.9453 31.3246 10.9737C31.3461 11.6395 31.1534 11.433 30.9401 11.2584C30.8625 11.1949 30.7822 11.1356 30.7084 11.1241C30.5763 11.1014 30.4099 11.3635 30.3316 11.5464C30.2703 11.6932 30.1151 11.4018 30.0869 11.6278C30.083 11.658 30.2786 12.2425 30.2819 12.2663C30.4009 13.0014 30.001 11.5482 29.9003 11.2978C29.5342 10.3871 29.3328 9.90409 29.3413 10.3835C29.343 10.4934 29.9019 12.5911 29.8856 12.729C29.8633 12.9045 29.6586 12.154 29.6411 12.3567C29.6394 12.3734 29.7833 12.8309 29.7317 12.8248C29.4937 12.8028 29.1811 12.6078 28.9766 12.7219C28.9481 12.7357 29.2127 13.4501 29.1753 13.4821C28.9994 13.6313 28.7689 13.6736 28.4655 13.3952C28.3901 13.3244 28.2621 12.8063 28.2045 12.6586C27.8551 11.7651 28.1769 13.1213 28.1696 13.1513C28.0068 13.9019 27.3558 12.7867 27.1656 13.4734C27.156 13.5133 27.445 14.9845 26.9958 13.7854C26.9658 13.7057 26.5086 12.4782 26.7144 13.3508C26.7273 13.4053 26.97 14.035 26.8755 13.9925C26.781 13.9503 26.7955 14.4167 26.4736 13.7421C26.372 13.5297 25.9077 12.3077 26.1208 13.3307C26.1362 13.4019 26.6872 15.6934 26.1515 14.1609C26.0635 13.9085 25.5618 12.2665 25.7088 13.1427C25.7376 13.3125 25.8914 13.6657 25.9047 13.9121C25.9258 14.2915 25.6717 13.889 25.7904 14.6532C25.8116 14.7884 26.0775 15.9262 25.7496 15.1019C25.6982 14.9728 25.547 14.4195 25.4937 14.3689C25.2394 14.1259 25.183 14.5451 24.8997 14.2179C24.7997 14.1031 24.554 13.209 24.4191 12.9909C24.2842 12.7729 24.0902 12.5833 24.1523 13.0074C24.2145 13.4318 24.7236 14.8202 24.663 14.9628C24.6553 14.9811 24.6471 14.9982 24.6387 15.0143C24.3604 15.5418 23.7166 14.8839 23.2768 14.8921C23.2096 14.8932 23.4179 15.3819 23.3301 15.4197C23.007 15.5615 22.5765 16.2147 21.952 15.233C21.4518 14.4468 21.541 13.7018 21.2543 13.4078C21.1165 13.2678 21.5344 14.9361 21.5298 14.9941C21.4907 15.5815 21.1238 14.8991 21.0111 15.1786C20.9879 15.2366 21.2318 15.8895 21.2098 15.9315C21.1363 16.0808 20.929 15.82 20.8414 15.9068C20.8026 15.9473 20.9693 16.4521 20.914 16.4264C20.7834 16.3706 20.6257 16.1858 20.3769 15.7415C20.3542 15.701 20.2194 15.0504 20.1357 15.0507C20.0008 15.053 19.7013 14.6316 19.71 15.1605C19.7133 15.3194 20.073 16.4797 19.7327 15.707C19.6616 15.5456 19.252 14.1454 19.5212 15.3816C19.5658 15.5871 19.894 17.2655 19.481 16.2464C19.3722 15.9782 18.9585 14.8568 18.9636 15.0517C18.9656 15.0824 19.1872 15.6969 19.1641 15.7707C19.0793 16.0202 18.9033 16.0021 18.8119 16.2447C18.7879 16.3107 19.0493 16.9365 19.0071 17.0142C18.8912 17.2291 18.6321 17.1297 18.4063 16.9787C18.3227 16.9218 18.1979 16.3749 18.1754 16.3181C17.8106 15.3947 18.1666 16.6836 18.1664 16.7652C18.1601 17.2559 17.863 16.691 17.7787 16.8912C17.7549 16.9449 17.9706 17.5451 17.9801 17.6016C17.9827 17.6178 17.985 17.6326 17.987 17.646C18.0526 18.0912 17.783 17.0421 17.6997 16.9398C17.4584 16.6409 17.323 16.7367 17.2107 16.857C17.1696 16.902 17.4458 17.5899 17.4065 17.6222C17.1778 17.8268 16.8797 17.8456 16.4984 17.5378C16.4262 17.4785 16.2878 16.9257 16.239 16.8049C15.8982 15.9588 16.1639 17.1748 16.1754 17.295C16.2279 17.8436 16.0364 17.3763 15.969 17.4956C15.6427 18.087 14.969 17.9479 14.4684 17.8882C13.8172 17.8136 13.212 17.4353 12.7079 17.7395C12.6756 17.7582 12.9357 18.4699 12.9108 18.4952C12.579 18.7897 12.1108 18.6258 11.789 18.9551C11.7621 18.9808 12.0213 19.6516 11.9855 19.7159C11.9134 19.8527 11.7694 19.8567 11.5956 19.6709C11.5112 19.5816 11.3972 18.9722 11.316 18.8943C11.1265 18.7116 10.9818 18.7031 10.8919 18.8516C10.8917 18.852 10.8915 18.8523 10.8913 18.8527C10.8573 18.9235 11.1517 19.5922 11.086 19.6215C10.64 19.8367 10.2184 20.1005 9.46321 19.3404C9.4114 19.2882 8.93935 17.8732 8.95555 18.1677C9.07348 18.5645 9.21859 19.0292 9.34792 19.4523C8.7381 19.8919 7.91057 19.6082 7.20418 19.7446C7.17445 19.7505 7.45924 20.4894 7.40288 20.5047C7.07691 20.594 6.82886 20.9006 6.26536 20.2535C6.20978 20.1904 5.81305 18.8579 5.77914 19.0887C5.77354 19.1306 5.68342 19.3529 5.73563 19.6527C5.74407 19.6977 5.96359 20.309 5.9224 20.3416C5.67968 20.5205 5.35054 20.4678 4.96105 20.1739C4.89782 20.1253 4.73895 19.451 4.69213 19.4107C4.36159 19.1294 4.27698 19.706 3.87877 19.1729C3.61149 18.8137 3.30862 17.657 2.88363 16.5579C2.82364 16.4028 2.72812 16.4051 2.5201 15.7533C1.99678 14.1147 1.47898 12.3031 0.916153 10.558C0.794997 10.182 0.804068 10.6248 0.589727 9.69191C0.575587 9.62942 0.566524 9.30048 0.491194 8.98484C0.439216 8.76658 0.205959 8.11056 0.150522 7.82771C0.095161 7.54512 0.301368 8.09171 0.250624 7.7549C0.198617 7.41413 -0.0585112 6.66526 0.0122222 6.5451ZM30.2911 8.62766C30.0155 8.01741 30.728 10.345 30.6391 9.76273C30.634 9.73183 30.3048 8.65753 30.2911 8.62766ZM39.6093 5.32182C39.188 4.32851 39.5879 5.85749 39.9064 6.62676C40.2247 7.39517 39.7371 5.62288 39.6093 5.32182ZM40.433 4.24417C40.0621 3.47307 41.0701 6.77449 40.9901 6.06852C40.9858 6.02856 40.4546 4.28893 40.433 4.24417ZM3.13306 16.1295C3.12236 16.099 3.04995 16.0885 3.05797 16.1196C3.25437 16.8682 3.39901 16.8885 3.13306 16.1295ZM41.2279 3.10265C41.0518 2.66843 41.1051 3.21641 41.324 3.75637C41.5001 4.19074 41.447 3.64277 41.2279 3.10265ZM25.4516 7.41432C25.4395 7.38007 25.3846 7.36297 25.4465 7.55845C25.646 8.188 25.6535 7.99046 25.4516 7.41432ZM42.9986 2.50936C42.6966 2.46736 41.6888 -0.2052 42.0713 0.0126343C42.1405 0.0520341 42.2298 0.915628 42.3724 1.14047C42.6326 1.54992 42.1804 -0.184379 42.5892 0.693097C42.6638 0.853784 43.0177 2.5178 42.9993 2.5133C42.9991 2.51198 42.9988 2.51067 42.9986 2.50936ZM29.3765 5.85017C29.3654 5.81992 29.2938 5.81027 29.3017 5.84121C29.4977 6.58958 29.6422 6.60945 29.3765 5.85017ZM22.3665 6.79901C22.3426 6.7346 22.1784 6.71859 22.1924 6.7804C22.4926 8.01053 22.8258 8.04647 22.3665 6.79901ZM33.0604 2.83666C32.8975 2.07314 32.9519 1.9603 33.2967 2.87543C33.2135 2.84708 33.1429 2.86107 33.0604 2.83666Z" fill="#FBEF29"/>
</svg>
