<svg width="24" height="16" viewBox="0 0 24 16" fill="none" xmlns="http://www.w3.org/2000/svg">
<g clip-path="url(#clip0_205_550)">
<path d="M9.07997 3.67989L8.66997 2.83989C7.96997 1.43989 7.96997 1.36989 7.26997 1.27989C7.06997 1.24989 6.96997 1.22989 6.96997 1.12989V0.689893L7.01997 0.639893H11.17L11.28 0.679893V1.11989C11.28 1.21989 11.21 1.26989 11.07 1.26989L10.77 1.30989C9.99997 1.36989 10.13 1.67989 10.63 2.68989L15.43 12.5099L15.6 12.5499L19.86 2.44989C20 2.03989 19.98 1.74989 19.79 1.57989C19.59 1.40989 19.46 1.30989 18.97 1.28989L18.57 1.26989C18.5191 1.26918 18.4698 1.2516 18.43 1.21989C18.4095 1.20702 18.3924 1.18938 18.3802 1.16848C18.3681 1.14759 18.3611 1.12406 18.36 1.09989V0.679893L18.43 0.639893H23.23L23.29 0.679893V1.09989C23.29 1.20989 23.22 1.26989 23.09 1.26989C22.46 1.29989 21.99 1.43989 21.69 1.67989C21.39 1.92989 21.15 2.25989 20.99 2.70989C20.99 2.70989 17.07 11.6699 15.73 14.6499C15.21 15.6299 14.71 15.5399 14.26 14.6199C13.33 12.6899 10.69 6.83989 10.69 6.83989L9.08997 3.68989L9.07997 3.67989Z" fill="#FFCB32"/>
<path d="M16.77 0.639893H12.86L12.8 0.679893V1.09989C12.8 1.14989 12.82 1.19989 12.86 1.21989C12.91 1.25989 12.96 1.26989 13 1.26989L13.2 1.28989C13.69 1.30989 13.92 1.43989 13.98 1.51989C14.1 1.66989 14.16 1.81989 13.88 2.44989L8.81 12.5299L8.68 12.4899C8.68 12.4899 5.07 4.85989 4.02 2.30989C3.92 2.03989 3.86 1.84989 3.86 1.71989C3.86 1.45989 4.1 1.31989 4.56 1.30989L5.11 1.27989C5.26 1.27989 5.33 1.22989 5.33 1.10989V0.699893L5.28 0.649893H0.05L0 0.689893V1.12989C0 1.20989 0.1 1.25989 0.3 1.27989C0.85 1.30989 1.21 1.39989 1.39 1.54989C1.56 1.68989 1.74 2.06989 1.99 2.64989C3.3 5.80989 6.1 11.4499 7.46 14.6599C7.86 15.5399 8.35 15.6799 8.94 14.6399C9.98 12.7099 12.79 6.83989 12.79 6.83989L15 2.71989C15.26 2.27989 15.5 1.88989 15.63 1.70989C15.86 1.37989 15.99 1.30989 16.63 1.28989C16.75 1.28989 16.82 1.22989 16.82 1.10989V0.679893L16.77 0.639893Z" fill="#FFCB32"/>
</g>
<defs>
<clipPath id="clip0_205_550">
<rect width="24" height="16" fill="white"/>
</clipPath>
</defs>
</svg>
