<svg width="24" height="16" viewBox="0 0 24 16" fill="none" xmlns="http://www.w3.org/2000/svg">
<g clip-path="url(#clip0_236_48)">
<path d="M9.08 3.68001L8.67 2.84001C7.97 1.44001 7.97 1.37001 7.27 1.28001C7.07 1.25001 6.97 1.23001 6.97 1.13001V0.690015L7.02 0.640015H11.17L11.28 0.680015V1.12001C11.28 1.22001 11.21 1.27001 11.07 1.27001L10.77 1.31001C10 1.37001 10.13 1.68001 10.63 2.69001L15.43 12.51L15.6 12.55L19.86 2.45001C20 2.04001 19.98 1.75001 19.79 1.58001C19.59 1.41001 19.46 1.31001 18.97 1.29001L18.57 1.27001C18.5191 1.2693 18.4698 1.25172 18.43 1.22001C18.4095 1.20714 18.3925 1.1895 18.3803 1.16861C18.3681 1.14771 18.3611 1.12418 18.36 1.10001V0.680015L18.43 0.640015H23.23L23.29 0.680015V1.10001C23.29 1.21001 23.22 1.27001 23.09 1.27001C22.46 1.30001 21.99 1.44001 21.69 1.68001C21.39 1.93001 21.15 2.26001 20.99 2.71001C20.99 2.71001 17.07 11.67 15.73 14.65C15.21 15.63 14.71 15.54 14.26 14.62C13.33 12.69 10.69 6.84001 10.69 6.84001L9.09 3.69001L9.08 3.68001Z" fill="#FFCB32"/>
<path d="M16.77 0.640015H12.86L12.8 0.680015V1.10001C12.8 1.15001 12.82 1.20001 12.86 1.22001C12.91 1.26001 12.96 1.27001 13 1.27001L13.2 1.29001C13.69 1.31001 13.92 1.44001 13.98 1.52001C14.1 1.67001 14.16 1.82001 13.88 2.45001L8.81 12.53L8.68 12.49C8.68 12.49 5.07 4.86001 4.02 2.31001C3.92 2.04001 3.86 1.85001 3.86 1.72001C3.86 1.46001 4.1 1.32001 4.56 1.31001L5.11 1.28001C5.26 1.28001 5.33 1.23001 5.33 1.11001V0.700015L5.28 0.650015H0.05L0 0.690015V1.13001C0 1.21001 0.1 1.26001 0.3 1.28001C0.85 1.31001 1.21 1.40001 1.39 1.55001C1.56 1.69001 1.74 2.07001 1.99 2.65001C3.3 5.81001 6.1 11.45 7.46 14.66C7.86 15.54 8.35 15.68 8.94 14.64C9.98 12.71 12.79 6.84001 12.79 6.84001L15 2.72001C15.26 2.28001 15.5 1.89001 15.63 1.71001C15.86 1.38001 15.99 1.31001 16.63 1.29001C16.75 1.29001 16.82 1.23001 16.82 1.11001V0.680015L16.77 0.640015Z" fill="#FFCB32"/>
</g>
<defs>
<clipPath id="clip0_236_48">
<rect width="24" height="16" fill="white"/>
</clipPath>
</defs>
</svg>
